<svg width="534" height="490" viewBox="0 0 534 490" fill="none" xmlns="http://www.w3.org/2000/svg">
<path fill-rule="evenodd" clip-rule="evenodd" d="M296.998 390.104C322.165 373.157 368.748 370.205 360.203 333.224C351.854 295.837 320.472 294.466 262.556 260.716C206.251 223.628 220.454 197.721 137.385 194.236C58.1489 194.27 82.269 308.442 23.8934 290.812C-34.4823 273.182 31.1621 419.003 41.5448 429.797C59.8056 448.78 107.894 471.431 131.35 468.221C149.163 465.845 206.47 452.659 234.527 438.973C261.935 426.2 264.897 412.853 296.998 390.104Z" fill="#20BF6B"/>
<path d="M521.164 22.8965L521.33 22.901C522.729 22.9837 523.795 24.1843 523.712 25.5826L523.433 30.4204L523.255 33.657C521.398 68.02 516.988 97.2281 518.024 121.274L518.183 124.755C519.427 150.667 526.036 187.298 532.719 242.65C533.305 243.061 533.715 243.716 533.789 244.484C533.924 245.878 532.904 247.118 531.51 247.253C498.841 250.419 468.444 252.526 440.319 253.574L436.476 253.711L432.083 253.854C403.649 254.737 363.622 255.165 311.994 255.14C310.593 255.139 309.459 254.003 309.459 252.602C309.459 251.933 291.425 30.1962 291.425 30.1962C291.425 30.1962 520.471 22.9004 521.164 22.8965Z" fill="white"/>
<path d="M476.96 440.704L478.555 440.868C501.222 443.239 516.104 446.661 522.968 450.962L523.396 451.238C528.667 454.742 528.002 458.39 520.426 464.213C512.142 470.58 491.78 476.58 461.315 480.242C423.175 484.826 371.898 485.566 307.502 481.579L300.751 481.16C263.574 478.905 235.051 478.296 182.261 478.01L167.688 477.926C136.259 477.707 122.901 477.273 110.005 475.89L108.779 475.755C92.6118 473.906 83.6771 470.528 80.6836 465.232L80.5742 465.032C80.5172 464.925 80.5169 464.927 80.9512 464.487C81.8207 463.606 83.6041 462.579 86.257 461.51L86.9444 461.239C92.6942 459.027 101.782 456.76 114.154 454.468L116.497 454.04C141.196 449.604 178.029 445.094 226.971 440.517L234.843 439.789L241.562 439.545C351.693 435.598 430.18 435.987 476.96 440.704Z" fill="white"/>
<path fill-rule="evenodd" clip-rule="evenodd" d="M425.904 23.4248C426.852 22.3938 428.457 22.3268 429.488 23.275C430.519 24.2232 430.586 25.8277 429.638 26.8586C429.638 26.8586 314.268 158.006 313.218 154.356C312.64 152.348 361.158 94.0548 368.79 86.197L370.907 84.0569C374.487 80.3411 392.206 60.0631 425.904 23.4248Z" fill="#E7EAEE"/>
<path fill-rule="evenodd" clip-rule="evenodd" d="M367.843 52.1952C368.991 51.3933 370.572 51.6744 371.374 52.8229C372.176 53.9714 371.895 55.5525 370.746 56.3543C366.921 59.0251 307.255 119.215 305.988 118.736C304.721 118.256 310.836 111.105 310.836 111.105C314.745 107.015 349.667 69.903 349.667 69.903C352.601 66.7723 355.311 63.9497 357.905 61.3358C360.473 58.7481 363.784 55.0287 367.843 52.1952Z" fill="#E7EAEE"/>
<path fill-rule="evenodd" clip-rule="evenodd" d="M426.236 440.704L427.83 440.868C450.498 443.239 465.379 446.661 472.243 450.962L472.672 451.238C477.942 454.742 477.277 458.39 469.701 464.213C461.417 470.58 371.898 476.436 307.502 472.449L300.751 472.029C263.574 469.774 235.051 463.079 182.261 462.793L167.688 462.709C136.259 462.489 122.901 477.273 110.005 475.89L108.779 475.755C92.6118 473.906 83.6771 470.528 80.6836 465.232L80.5742 465.032C80.5172 464.925 80.5169 464.927 80.9512 464.487C81.8207 463.606 83.6041 462.579 86.257 461.51L86.9444 461.239C92.6942 459.027 101.782 456.76 114.154 454.468L116.497 454.04C141.196 449.604 178.029 445.094 226.971 440.517L234.843 439.789L241.562 439.545C351.693 435.598 379.456 435.987 426.236 440.704Z" fill="#E7EAEE"/>
<path d="M125.72 251.081C126.51 253.15 153.459 256.397 168.229 265.127C173.893 268.475 178.181 282.964 177.903 283.238C171.207 289.842 167.569 293.208 163.964 295.236C151.293 302.366 141.528 300.512 132.072 299.021C120.707 297.228 113.953 284.75 118.385 274.39C119.079 272.767 120.829 270.395 123.725 267.059L124.111 266.62C124.099 266.501 124.1 266.379 124.115 266.255C124.247 265.137 124.264 263.99 124.164 262.813L123.94 260.702C123.675 258.343 123.163 254.341 122.402 252.346C122.053 251.43 122.512 250.404 123.428 250.055C124.344 249.705 125.37 250.164 125.72 251.081Z" fill="white"/>
<path d="M187.949 277.52C187.947 277.094 188.054 276.661 188.281 276.263C188.674 275.572 189.343 275.137 190.071 275.016C190.241 274.863 190.357 274.809 190.423 274.871L190.533 274.982C190.943 274.99 191.358 275.097 191.74 275.315L199.2 279.552C214.663 288.392 231.285 301.541 232.889 311.525C234.706 322.838 222.861 381.709 221.492 381.412C220.123 381.116 194.464 439.425 194.449 439.583C194.398 440.114 171.588 440.96 147.592 443.528C139.206 444.425 160.985 415.167 169.178 394.482C183.23 359.01 187.949 277.52 187.949 277.52Z" fill="white"/>
<path d="M371.95 306.45C362.896 304.477 352.378 305.468 340.358 309.477C330.521 312.758 325.134 317.352 323.79 323.223L323.715 323.573L324.101 323.731C332.133 326.971 339.629 327.792 346.642 326.238L347.154 326.12C352.011 324.961 355.956 322.238 360.639 317.399L361.285 316.721C362.388 315.547 364.987 312.699 365.306 312.357C366.97 310.575 368.242 309.346 369.528 308.342L369.807 308.129C370.458 307.639 371.25 307.165 372.185 306.703L372.465 306.566L371.95 306.45Z" fill="white"/>
<path d="M282.837 292.504C276.395 290.503 268.753 290.271 259.9 291.843L259.484 291.918L259.575 292.1C263.492 299.957 267.044 304.792 270.011 306.546L270.196 306.651C273.179 308.299 280.288 308.417 291.19 306.791L292.803 306.541L292.763 306.406C292.722 306.251 292.696 306.09 292.685 305.924L292.68 305.757C292.68 298.828 289.53 294.582 282.837 292.504Z" fill="white"/>
<path d="M209.321 255.746C209.14 257.189 209.751 262.493 207.712 264.942C206.903 265.913 204.972 266.608 203.712 265.996C203.154 265.726 204.891 263.306 205.947 260.57C206.354 259.513 205.638 258.235 205.947 257.225C206.216 256.342 207.523 255.706 207.712 255.042C208.012 253.985 209.44 254.792 209.321 255.746Z" fill="white"/>
<path d="M212.849 249.549C212.668 250.992 216.952 257.715 214.813 259.869C211.177 263.532 207.681 257.109 208.736 254.373C209.144 253.316 209.166 252.038 209.475 251.028C209.744 250.145 212.968 248.595 212.849 249.549Z" fill="white"/>
<path d="M252.381 355.707C251.591 358.668 250.922 376.052 254.694 385.866C256.075 389.457 258.101 392.089 260.843 393.111C263.148 393.933 265.544 394.444 267.991 394.784C273.265 395.51 313.567 398.939 331.659 396.574C349.751 394.209 348.727 393.989 356.997 392.524C360.998 391.814 365.573 391.059 369.664 389.455C372.677 388.277 375.427 386.64 377.582 384.313C379.51 382.233 380.702 378.697 381.058 374.741C381.509 369.715 380.739 363.068 379.984 359.723C379.984 359.536 379.944 359.466 379.984 359.407C380.172 359.133 377.735 357.775 369.664 357.442C355.827 356.871 334.249 357.952 313.342 357.736C284.815 357.44 257.548 354.826 253.028 355.302C252.614 355.346 252.396 355.649 252.381 355.707Z" fill="white"/>
<path d="M122.789 262.915C124.19 262.907 125.333 264.034 125.344 265.435C125.345 265.581 125.333 265.725 125.311 265.865L125.528 265.725C126.745 264.973 128.252 264.592 127.93 266.433C127.481 269 121.054 271.985 121.054 276.923C121.054 284.255 123.882 291.272 134.05 294.205C162.531 302.42 176.597 287.859 181.862 281.579C181.86 281.153 181.967 280.72 182.193 280.322C182.587 279.631 183.256 279.195 183.984 279.075C184.154 278.921 184.27 278.867 184.335 278.93L184.446 279.041C184.856 279.049 185.27 279.156 185.652 279.373L193.112 283.61C208.576 292.451 225.198 305.6 226.801 315.583C228.619 326.897 216.774 385.768 215.405 385.471C214.036 385.174 188.376 443.484 188.361 443.641C188.293 444.358 146.777 445.648 116.832 450.971C97.1951 454.461 84.4161 461.006 84.0028 461.376C82.9592 462.31 81.7467 463.928 80.8124 462.885C74.54 455.878 72.8679 436.188 75.2907 407.208L74.0219 407.079C48.0677 404.457 35.2649 397.157 36.1364 380.72C38.2743 340.397 49.6262 308.798 62.832 289.232C74.5574 271.86 93.2874 263.127 122.789 262.915Z" fill="white"/>
<path fill-rule="evenodd" clip-rule="evenodd" d="M181.862 281.579C181.86 281.152 181.967 280.72 182.194 280.322C182.587 279.631 183.257 279.195 183.984 279.075C184.155 278.921 184.27 278.867 184.336 278.93L184.446 279.041C184.856 279.048 185.271 279.156 185.653 279.373L193.113 283.61C208.576 292.451 225.198 305.599 226.802 315.583C228.619 326.897 216.774 385.768 215.405 385.471C214.036 385.174 188.377 443.484 188.362 443.641C188.311 444.173 165.501 445.018 141.505 447.587C133.119 448.484 154.898 419.226 163.091 398.541C177.143 363.068 181.862 281.579 181.862 281.579Z" fill="#E7EAEE"/>
<path d="M183.195 280.751C183.244 282.151 182.059 283.323 180.659 283.288C173.661 283.11 172.549 271.078 173.22 271.03C174.149 270.963 175.737 276.678 178.861 278.76C181.243 280.347 183.058 276.894 183.195 280.751Z" fill="white"/>
<path d="M119.778 248.61C120.746 247.451 122.554 248.479 123.186 249.728C123.818 250.978 123.318 252.504 122.068 253.136C115.69 256.363 107.197 255.165 101.965 250.687C92.876 242.908 92.5039 222.718 92.5039 216.692C92.5039 215.888 102.875 216.837 107.176 222.464C114.805 232.444 118.531 250.104 119.778 248.61Z" fill="white"/>
<path d="M119.099 193.78L119.196 193.245C119.277 192.771 119.276 192.257 119.033 189.709L118.222 181.736C118.069 180.216 117.946 178.904 117.839 177.626L117.755 176.586C117.024 167.195 117.376 161.858 119.912 159.377C127.069 152.374 131.024 152.525 138.479 154.941L140.041 155.449C143.354 156.497 145.013 155.686 147.279 155.154L147.934 155.006C153.187 153.855 158.661 153.642 164.955 154.189C168.636 154.509 170.914 154.812 176.756 155.816L183.655 157.024C187.972 157.784 190.881 158.257 193.96 158.677L194.639 158.764C199.573 159.362 203.589 159.004 208.436 157.91C208.536 157.888 211.145 157.272 212.169 157.052L212.787 156.929C213.747 156.75 214.559 156.656 215.316 156.656L215.435 156.59C222.833 152.752 229.872 140.763 229.292 131.148C228.572 119.217 217.238 111.645 192.901 111.495L191.717 111.49C187.698 111.447 184.761 110.781 176.323 108.196L172.159 106.91C164.932 104.696 160.577 103.689 155.914 103.376C155.111 103.322 154.324 103.295 153.551 103.295C121.22 103.295 89.3718 130.842 84.9885 156.59C84.1926 161.265 87.7977 181.888 89.1013 192.141C89.1013 192.141 101.661 192.279 107.775 193.161C108.358 193.245 113.315 204.05 116.319 204.05C119.033 204.05 119.099 193.78 119.099 193.78Z" fill="white"/>
<path d="M137.692 159.007C142.199 160.489 144.674 160.91 148.082 160.174L149.333 159.89C157.414 158.124 163.602 158.657 180.889 161.689L185.036 162.414C188.239 162.965 190.692 163.351 193.275 163.704C198.964 164.479 203.559 164.154 208.883 163.007L214.316 161.791C215.253 161.596 215.137 161.669 215.475 161.724L215.632 161.743C216.344 161.809 218.758 162.172 219.325 163.811C222.818 173.903 223.832 197.992 220.123 217.822C215.087 244.748 200.635 263.205 179.981 268.812C148.508 277.355 124.846 261.122 108.465 219.196L107.961 217.906L106.604 217.633L105.635 217.432C90.0433 214.091 84.7775 208.099 90.0481 198.344C92.6879 193.457 96.304 191.944 99.3178 192.966C102.985 194.21 107.605 199.004 112.884 207.375L112.943 207.465C115.258 210.814 118.472 209.531 120.104 205.974C121.123 203.755 122.091 200.044 123.066 194.736L123.262 193.651C123.428 192.634 123.35 191.823 122.501 183.62L122.2 180.682C122.092 179.597 122.001 178.619 121.919 177.675L121.88 177.205C121.546 173.209 121.424 170.026 121.549 167.523C121.676 164.98 122.085 163.356 122.445 163.003L123.048 162.423C128.284 157.466 131.252 156.97 136.609 158.655L137.692 159.007Z" fill="white"/>
<path fill-rule="evenodd" clip-rule="evenodd" d="M220.124 217.822C215.087 244.748 200.636 263.205 179.982 268.812C173.971 270.443 191.379 263.992 200.549 252.394C213.123 236.49 220.197 212.939 221.362 205.806C224.888 184.229 223.833 197.992 220.124 217.822Z" fill="#E7EAEE"/>
<path fill-rule="evenodd" clip-rule="evenodd" d="M120.104 205.974C121.123 203.755 122.091 200.044 123.067 194.736L123.263 193.651C123.428 192.634 123.351 191.823 122.501 183.62L122.2 180.682C122.092 179.597 122.001 178.619 121.919 177.675L121.88 177.205C121.546 173.209 121.424 170.026 121.549 167.523C121.677 164.98 122.085 163.356 122.445 163.003L123.048 162.423C128.284 157.466 131.252 156.97 136.609 158.655L137.692 159.007C142.199 160.489 144.674 160.91 148.082 160.174L149.333 159.89C157.415 158.124 163.602 158.657 180.89 161.689L185.036 162.414C188.239 162.965 190.692 163.351 193.275 163.704C198.964 164.479 203.56 164.154 208.883 163.007L214.316 161.791C215.253 161.596 215.138 161.669 215.475 161.724L215.632 161.743C216.344 161.809 218.758 162.172 219.325 163.811C219.325 163.811 217.125 165.594 215.475 165.715C201.104 166.772 190.655 169.28 179.548 170.344C162.033 172.021 146.37 172.596 137.692 177.205C133.5 179.432 129.048 202.394 123.459 210.177C120.294 214.586 120.104 205.974 120.104 205.974Z" fill="#E7EAEE"/>
<path fill-rule="evenodd" clip-rule="evenodd" d="M252.664 385.866C254.045 389.457 256.071 392.089 258.813 393.111C261.118 393.933 263.514 394.444 265.961 394.784C271.236 395.51 311.537 398.939 329.629 396.574C347.721 394.209 346.697 393.989 354.967 392.524C358.968 391.814 363.544 391.059 367.634 389.455C370.647 388.277 373.397 386.64 375.552 384.313C377.48 382.233 378.672 378.697 379.028 374.741C379.479 369.715 378.709 363.068 377.954 359.723C377.788 358.825 374.775 359.475 374.941 360.374C375.393 363.483 375.533 369.655 374.945 374.222C374.582 377.052 374.027 379.683 372.639 381.176C370.899 383.048 368.656 384.325 366.224 385.279C362.374 386.796 358.061 387.507 354.297 388.189C346.138 389.678 338.517 391.61 304.723 392.524C299.243 392.673 271.795 391.255 266.48 390.492C264.293 390.181 262.148 389.73 260.088 388.988C257.684 388.173 256.419 385.191 255.296 381.846C253.939 377.803 250.791 363.362 252.664 360.258C253.362 359.101 258.403 359.353 261.557 359.688C271.66 360.758 290.198 361.189 308.186 361.388C327.99 361.607 375.211 361.618 375.211 360.709C375.211 359.891 377.088 359.688 377.954 359.723C378.234 359.734 376.384 357.442 367.634 357.442C353.692 357.442 332.219 357.952 311.313 357.736C282.785 357.44 255.519 354.826 250.999 355.302C250.903 355.312 250.812 355.319 250.726 355.325C247.42 355.519 248.892 376.052 252.664 385.866Z" fill="#00160A"/>
<path fill-rule="evenodd" clip-rule="evenodd" d="M259.359 366.091C259.5 365.061 260.693 362.814 261.182 363.994C262.052 366.091 261.166 380.094 269.37 381.549C270.747 381.793 274.369 382.316 274.369 383.472C274.369 384.627 273.809 386.371 270.804 385.555C265.503 384.116 262.47 381.147 260.612 376.436C259.29 373.085 258.939 369.158 259.359 366.091Z" fill="#00160A"/>
<path fill-rule="evenodd" clip-rule="evenodd" d="M76.4568 331.616L76.4592 331.64C76.4603 331.833 76.6985 332.096 76.7406 332.664C76.9202 335.08 75.8952 340.767 75.7138 342.563C75.2387 346.769 74.4085 352.029 74.2594 357.055C74.1634 360.302 74.3348 363.449 75.258 366.117C77.1776 371.862 81.6077 375.396 86.9604 377.655C91.7485 379.679 97.2902 380.568 102.606 381.206C106.483 381.668 110.225 382.054 113.543 382.241C114.109 382.241 114.57 382.704 114.57 383.271C114.57 383.839 114.109 384.295 113.543 384.295C110.152 384.488 106.302 384.722 102.318 384.5C96.6197 384.184 90.7118 383.043 85.5931 380.925C79.2716 378.304 74.1681 374.004 71.9139 367.229C70.9321 364.169 70.701 360.577 70.9614 356.885C71.3224 351.772 72.5656 346.477 73.3016 342.218C73.6322 340.433 74.2289 334.647 75.151 332.4C75.6021 331.294 76.3808 331.16 76.4065 331.224C76.5136 331.33 76.5306 331.493 76.4568 331.616Z" fill="#00160A"/>
<path fill-rule="evenodd" clip-rule="evenodd" d="M127.584 373.01L124.509 373.501C123.541 373.703 122.44 374.095 121.518 374.697C120.835 375.143 120.275 375.722 119.895 376.397C119.718 376.721 119.616 377.046 119.545 377.371C119.411 377.984 119.448 378.603 119.341 379.261C119.254 379.779 119.224 380.293 119.241 380.805C119.265 381.508 119.383 382.205 119.456 382.91C119.617 384.026 119.668 385.096 120.104 386.082C120.301 386.526 120.565 386.921 120.903 387.326C121.063 387.615 121.427 387.719 121.715 387.558C122.004 387.398 122.108 387.034 121.948 386.746C121.948 386.746 119.949 377.479 122.383 375.942C124.817 374.406 126.168 374.606 126.88 374.429C127.171 374.357 127.805 373.577 127.841 373.398C127.878 373.22 127.762 373.046 127.584 373.01Z" fill="#00160A"/>
<path fill-rule="evenodd" clip-rule="evenodd" d="M127.481 373.363L127.818 374.058C127.926 374.512 127.943 375.036 127.955 375.54C127.965 375.985 128.014 376.421 127.735 376.786C127.584 376.937 127.584 377.181 127.735 377.332C127.886 377.483 128.13 377.483 128.281 377.332C128.776 376.99 129.078 376.506 129.169 375.94C129.286 375.206 128.97 374.409 128.695 373.766C128.604 373.561 128.256 373.057 127.897 372.848C127.611 372.682 127.335 372.639 127.118 372.812C126.966 372.912 126.924 373.117 127.024 373.269C127.125 373.421 127.329 373.463 127.481 373.363Z" fill="#00160A"/>
<path fill-rule="evenodd" clip-rule="evenodd" d="M127.071 376.896C126.806 377.048 126.56 377.202 126.464 377.246C125.531 377.671 124.997 378.599 124.853 379.711C124.68 381.059 125.174 382.624 125.461 383.586C125.544 383.917 125.881 384.12 126.213 384.037C126.544 383.954 126.746 383.617 126.663 383.286C126.444 382.298 126.206 380.628 126.445 379.346C126.536 378.862 126.612 378.406 126.985 378.115C126.985 378.115 127.25 376.793 127.071 376.896Z" fill="#00160A"/>
<path fill-rule="evenodd" clip-rule="evenodd" d="M120.589 378.549C121.148 379.177 121.092 380.139 120.464 380.698C119.51 381.548 118.673 382.196 117.941 382.646L117.584 382.856C116.959 383.21 116.128 383.618 115.081 384.087C114.951 384.145 113.741 384.528 113.3 384.185C113.067 384.004 112.809 383.79 112.675 383.484C112.612 383.341 112.826 383.06 113.219 382.701C113.873 382.102 115.615 381.78 116.819 381.027C118.789 379.793 120.306 378.232 120.589 378.549Z" fill="#00160A"/>
<path fill-rule="evenodd" clip-rule="evenodd" d="M125.993 392.903C126.588 392.31 127.551 392.311 128.145 392.906C130.746 395.515 131.521 398.015 129.834 400.073C128.756 401.389 127.222 402.539 125.047 403.409C124.033 403.816 124.155 404.007 121.508 404.588C120.688 404.768 119.876 404.249 119.696 403.428C119.516 402.607 120.035 401.796 120.856 401.615L121.922 401.376C123.83 400.937 126.721 399.071 127.48 398.144C127.912 397.617 127.627 396.697 125.99 395.055C125.396 394.46 125.398 393.497 125.993 392.903Z" fill="#00160A"/>
<path fill-rule="evenodd" clip-rule="evenodd" d="M165.112 368.368C165.467 375.358 165.611 379.555 165.545 380.959C165.361 384.774 164.664 389.665 162.977 393.924C161.754 397.007 159.978 399.722 157.705 401.594C156.16 402.799 152.893 405.149 143.209 404.479C123.761 403.133 126.85 370.159 126.97 369.68C127.09 369.2 127.595 367.339 128.076 367.456C128.949 367.597 125.566 401.847 142.688 402.08C144.018 402.098 145.326 401.916 146.666 401.741C148.523 401.6 150.477 401.179 152.285 400.477C153.418 400.038 154.495 399.482 155.416 398.727C157.305 397.265 158.706 395.036 159.82 392.584C161.575 388.717 162.853 384.286 163.27 380.77C163.491 378.933 163.981 367.778 163.981 367.778C164.237 366.894 165.102 368.173 165.112 368.368Z" fill="#00160A"/>
<path fill-rule="evenodd" clip-rule="evenodd" d="M146.168 364.361L147.039 364.366C157 364.464 164.936 366.241 164.936 368.419C164.936 370.66 161.187 374.912 150.822 374.912L149.951 374.908C136.024 375.489 127.399 370.597 127.399 368.419C127.399 366.178 135.802 364.361 146.168 364.361Z" fill="#00160A"/>
<path fill-rule="evenodd" clip-rule="evenodd" d="M146.168 365.377L145.324 365.381C136.088 365.48 128.414 367.176 128.414 368.42C128.414 369.703 136.56 372.478 146.168 372.478L147.011 372.474C156.248 372.375 163.921 369.665 163.921 368.42C163.921 367.138 155.776 365.377 146.168 365.377Z" fill="white"/>
<path fill-rule="evenodd" clip-rule="evenodd" d="M160.756 233.409C161.22 234.058 161.795 234.656 162.472 235.178C163.187 235.736 164.019 236.084 164.847 236.328C166.465 236.761 168.062 237.195 169.712 237.464C174.795 238.292 187.53 239.684 188.782 239.918C189.626 240.165 190.511 239.677 190.755 238.832C191 237.986 190.512 237.1 189.667 236.853C188.394 236.343 187.135 235.862 185.821 235.524C183.874 235.022 181.874 234.787 179.882 234.556C176.485 234.152 173.078 233.817 169.665 233.606C168.214 233.521 166.784 233.543 165.334 233.445C164.886 233.427 164.435 233.362 163.988 233.217C163.224 232.976 162.486 232.69 161.866 232.268L160.211 231.029C160.031 231.026 159.883 231.177 159.883 231.36C159.884 231.543 160.629 233.214 160.756 233.409Z" fill="#00160A"/>
<path fill-rule="evenodd" clip-rule="evenodd" d="M176.669 245.546C177.531 246.477 178.949 247.255 180.512 247.489C182.097 247.717 183.727 247.331 184.829 246.716C185.168 246.547 185.306 246.131 185.136 245.792C184.967 245.453 184.554 245.318 184.215 245.488C183.46 245.815 182.452 245.868 181.416 245.821C180.981 245.798 180.542 245.739 180.105 245.704C178.966 245.599 177.881 245.511 177.089 245.037C176.948 244.926 176.74 244.944 176.624 245.084C176.508 245.225 176.528 245.429 176.669 245.546Z" fill="#00160A"/>
<path fill-rule="evenodd" clip-rule="evenodd" d="M521.331 22.901C522.729 22.9837 523.796 24.1843 523.713 25.5826L523.434 30.4204C521.425 66.1895 520.956 96.4767 522.024 121.274L522.073 122.381C523.251 148.443 526.129 185.187 532.72 242.651C533.306 243.061 533.715 243.716 533.79 244.484C533.925 245.878 532.904 247.118 531.51 247.253C498.841 250.419 468.445 252.526 440.319 253.574L436.476 253.711C407.831 254.69 366.34 255.166 311.994 255.14C310.593 255.139 309.458 254.003 309.459 252.602C309.46 251.201 310.596 250.066 311.997 250.067L323.434 250.065C373.213 250.022 411.415 249.528 438.034 248.582L442.136 248.429C468.614 247.398 497.108 245.432 527.618 242.531C526.54 231.693 518.135 146.788 517.042 123.403L517.006 122.61C515.816 96.31 516.365 63.8709 518.649 25.2829C518.729 23.9405 519.838 22.904 521.164 22.8965L521.331 22.901ZM288.575 28.019C289.963 27.8331 291.239 28.8079 291.425 30.1962L292.344 37.1074C297.878 79.0285 301.543 112.351 303.338 137.086L303.508 139.479C305.327 165.753 306.46 203.88 306.909 253.876C306.921 255.277 305.796 256.423 304.395 256.435C302.995 256.448 301.849 255.323 301.836 253.922L301.764 246.526C301.289 201.706 300.237 166.932 298.609 142.215L298.448 139.829C296.638 113.678 292.621 77.3537 286.398 30.8693C286.212 29.481 287.187 28.2048 288.575 28.019Z" fill="#00160A"/>
<path fill-rule="evenodd" clip-rule="evenodd" d="M119.434 262.941C120.835 262.931 121.979 264.058 121.989 265.459C121.999 266.859 120.871 268.003 119.471 268.013C91.5026 268.212 72.3271 276.279 61.6529 292.094C49.0017 310.838 37.0727 341.426 37.8473 381.013C38.4236 410.468 100.367 405.793 115.218 405.005C117.201 404.9 118.552 405.955 118.537 406.113C118.424 407.3 117.483 408.278 116.252 408.395C98.1532 410.112 82.94 408.342 70.6675 407.103C44.7132 404.481 31.9105 397.181 32.7819 380.744C34.9198 340.421 46.2717 308.822 59.4775 289.256C71.2029 271.884 89.9329 263.151 119.434 262.941Z" fill="#00160A"/>
<path fill-rule="evenodd" clip-rule="evenodd" d="M119.912 159.377C117.376 161.858 117.024 167.195 117.755 176.585L117.839 177.626C117.946 178.904 118.069 180.215 118.222 181.736L119.033 189.709C119.276 192.256 119.277 192.771 119.196 193.245L119.099 193.779C118.405 197.559 116.711 201.449 116.071 203.372L115.935 203.764L115.859 203.647C110.524 195.595 105.63 189.75 100.947 188.161C95.228 186.222 90.2955 189.091 86.5998 195.931L86.3853 196.335C79.658 209.213 87.0795 217.181 104.912 221.225L105.259 221.302L105.8 222.642C123.036 264.846 147.696 282.831 181.31 273.706C204.194 267.494 217.723 247.393 223.08 218.754C226.943 198.105 225.891 173.134 222.09 162.151C220.92 158.773 218.998 156.96 216.1 156.691C215.114 156.6 214.085 156.687 212.787 156.928L212.169 157.052C211.145 157.272 208.536 157.887 208.436 157.91C203.589 159.003 199.573 159.361 194.639 158.764L193.96 158.676C190.881 158.257 187.972 157.784 183.655 157.024L176.757 155.816C170.914 154.811 168.636 154.509 164.955 154.189C158.661 153.642 153.187 153.855 147.934 155.005L147.279 155.154C145.013 155.686 143.354 156.497 140.041 155.449L138.479 154.94C131.024 152.524 127.07 152.373 119.912 159.377ZM137.692 159.006C142.199 160.488 144.674 160.909 148.082 160.173L149.333 159.889C157.414 158.123 163.602 158.656 180.89 161.687L185.036 162.413C188.239 162.964 190.692 163.35 193.275 163.702C198.964 164.478 203.56 164.153 208.883 163.005L214.316 161.79C215.253 161.595 215.138 161.668 215.475 161.723L215.632 161.742C216.344 161.808 218.758 162.171 219.325 163.81C222.818 173.902 223.832 197.991 220.123 217.821C215.087 244.747 200.635 263.204 179.981 268.811C148.508 277.354 124.846 261.121 108.465 219.195L107.961 217.905L106.604 217.632L105.635 217.431C90.0434 214.09 84.7775 208.098 90.0481 198.342C92.688 193.456 96.3041 191.943 99.3179 192.965C102.985 194.209 107.605 199.003 112.884 207.374L112.943 207.464C115.258 210.813 118.472 209.53 120.104 205.973C121.123 203.754 122.091 200.043 123.066 194.734L123.262 193.65C123.428 192.633 123.351 191.822 122.501 183.619L122.2 180.68C122.092 179.596 122.001 178.618 121.919 177.674L121.88 177.204C121.546 173.208 121.424 170.024 121.549 167.522C121.677 164.979 122.085 163.355 122.445 163.002L123.048 162.422C128.284 157.465 131.252 156.969 136.609 158.654L137.692 159.006Z" fill="#00160A"/>
<path fill-rule="evenodd" clip-rule="evenodd" d="M153.552 98.2227C154.44 98.2227 155.34 98.2538 156.254 98.3152C161.403 98.6607 166.046 99.7328 173.61 102.049L178.142 103.447C186.026 105.855 188.648 106.42 192.161 106.42C219.398 106.42 233.44 115.66 234.356 130.843C235.059 142.489 226.923 156.345 217.772 161.092C216.528 161.738 214.998 161.253 214.353 160.009C213.707 158.766 214.192 157.235 215.436 156.59C222.833 152.752 229.873 140.763 229.293 131.148C228.573 119.217 217.239 111.645 192.902 111.495L191.717 111.49C187.698 111.447 184.761 110.782 176.324 108.196L172.16 106.91C164.932 104.696 160.578 103.689 155.914 103.376C155.112 103.322 154.325 103.295 153.552 103.295C121.221 103.295 89.3723 130.843 84.989 156.59C83.9232 162.851 90.7503 197.715 89.3723 197.966C87.9943 198.218 86.6735 197.304 86.4221 195.926L86.1254 194.273C83.1856 177.608 80.0148 162.558 81.8272 154.671C89.1651 122.736 118.818 98.2227 153.552 98.2227Z" fill="#00160A"/>
<path fill-rule="evenodd" clip-rule="evenodd" d="M189.492 171.965C191.015 171.965 191.742 175.368 191.476 176.242C190.322 180.031 193.21 201.633 195.349 207.214L195.45 207.472C198.555 215.198 194.037 220.195 183.804 221.588C182.416 221.777 181.138 220.805 180.949 219.417C180.89 218.984 181.27 217.836 182.225 217.92C189.253 218.533 194.353 212.505 192.849 208.545L192.657 208.053C190.202 201.675 187.441 187.75 187.441 174.537C187.441 173.134 188.157 171.965 189.492 171.965Z" fill="#00160A"/>
<path fill-rule="evenodd" clip-rule="evenodd" d="M92.5034 216.692C93.2342 218.466 92.6399 236.215 101.964 245.838C109.374 253.484 117.8 250.978 119.778 248.609C120.745 247.45 122.553 248.478 123.186 249.728C123.818 250.978 123.317 252.503 122.067 253.136C115.689 256.362 107.197 255.165 101.964 250.686C92.8755 242.907 90.8926 225.922 90.8926 219.896C90.8926 217.665 91.8524 215.111 92.5034 216.692Z" fill="#00160A"/>
<path fill-rule="evenodd" clip-rule="evenodd" d="M198.026 194.524C198.911 193.193 200.206 193.036 201.518 193.581C202.796 194.112 204.054 195.481 204.464 196.402C205.07 197.77 205.078 200.008 204.589 202.136C204.09 204.316 203.084 206.345 201.996 207.26C200.961 208.123 200.093 208.472 199.166 207.103C195.627 201.879 197.686 195.037 198.026 194.524Z" fill="#00160A"/>
<path fill-rule="evenodd" clip-rule="evenodd" d="M158.427 199.579C158.043 198.169 158.068 190.875 160.825 190.875C164.924 190.875 165.447 198.466 164.921 199.999C161.957 208.637 158.811 200.99 158.427 199.579Z" fill="#00160A"/>
<path fill-rule="evenodd" clip-rule="evenodd" d="M193.544 121.062C192.74 119.953 195.914 119.611 197.069 120.402C206.743 127.026 211.713 133.359 211.627 139.676C211.542 145.88 206.508 152.81 196.749 160.803C195.665 161.691 194.067 161.532 193.179 160.448C192.292 159.364 205.861 150.649 206.555 139.607C207.248 128.566 195.052 123.144 193.544 121.062Z" fill="#00160A"/>
<path fill-rule="evenodd" clip-rule="evenodd" d="M208.572 118.379C208.159 116.58 210.78 116.692 212.011 117.361C219.818 121.6 223.837 128.172 223.837 136.759C223.837 145.171 218.149 152.498 209.568 160.984C208.572 161.969 206.966 161.96 205.982 160.964C204.997 159.968 219.832 149.576 219.832 134.593C219.832 119.61 209.133 120.822 208.572 118.379Z" fill="#00160A"/>
<ellipse cx="206.022" cy="217.768" rx="9.63768" ry="3.55072" fill="#FFB61D"/>
<path fill-rule="evenodd" clip-rule="evenodd" d="M195.675 174.994C197.968 174.174 201.134 174.679 205.269 176.375C205.972 176.664 206.656 177.041 207.402 177.534L207.92 177.894C208.881 178.578 210.516 179.797 210.835 180.02C211.873 180.749 212.818 181.321 213.838 181.814C214.812 182.285 216.399 182.719 218.566 183.089C219.395 183.23 219.952 184.016 219.811 184.845C219.669 185.673 210.25 184.342 209.087 183.526L206.691 181.773C206.273 181.47 205.914 181.212 205.725 181.088C205.132 180.696 204.615 180.411 204.114 180.206C200.738 178.821 198.29 178.4 196.855 178.824L196.7 178.874C193.704 178.136 194.884 175.277 195.675 174.994Z" fill="#00160A"/>
<path fill-rule="evenodd" clip-rule="evenodd" d="M120.384 250.055C121.3 249.705 122.326 250.164 122.676 251.081C123.768 253.944 124.411 260.242 124.598 261.91C124.781 263.532 124.781 265.12 124.597 266.672C124.482 267.646 123.599 268.342 122.625 268.227C121.652 268.111 120.956 267.229 121.071 266.255C121.222 264.977 121.222 263.661 121.07 262.306C120.922 260.997 120.353 254.954 119.358 252.346C119.009 251.43 119.468 250.404 120.384 250.055Z" fill="#00160A"/>
<path fill-rule="evenodd" clip-rule="evenodd" d="M120.996 266.697C121.918 265.643 125.024 263.891 124.575 266.457C124.126 269.024 117.7 272.009 117.7 276.948C117.7 284.279 120.527 291.297 130.696 294.23C167.122 304.736 179.968 277.986 180.981 278.955C181.993 279.923 182.029 281.528 181.06 282.54C175.339 288.522 170.726 292.51 167.122 294.538C154.451 301.668 140.697 303.081 129.029 299.02C118.357 295.306 110.909 284.749 115.341 274.389C116.06 272.708 117.911 270.224 120.996 266.697Z" fill="#00160A"/>
<path fill-rule="evenodd" clip-rule="evenodd" d="M375.959 3.49986C377.107 2.69802 378.689 2.97905 379.49 4.12756C380.292 5.27607 378.995 6.92836 377.847 7.7302C374.021 10.401 364.805 19.1256 362.918 21.1238L361.104 23.0554C357.543 26.8903 315.123 71.0017 314.104 70.0404C313.17 69.1589 354.561 23.645 357.666 20.3187L357.783 20.1932C360.717 17.0625 363.428 14.2399 366.021 11.626C368.589 9.03832 371.9 6.33344 375.959 3.49986Z" fill="#E7EAEE"/>
<path fill-rule="evenodd" clip-rule="evenodd" d="M375.959 41.037C377.107 40.2351 378.688 40.5162 379.49 41.6647C380.292 42.8132 380.011 44.3943 378.862 45.1961C375.037 47.8669 315.371 108.057 314.104 107.578C312.837 107.098 318.952 99.9468 318.952 99.9468C322.861 95.8568 357.783 58.7448 357.783 58.7448C360.717 55.6141 363.427 52.7915 366.021 50.1776C368.589 47.5899 371.9 43.8705 375.959 41.037Z" fill="#00160A"/>
<path fill-rule="evenodd" clip-rule="evenodd" d="M431.991 12.2646C432.939 11.2337 434.544 11.1666 435.575 12.1148C436.606 13.0631 436.673 14.6675 435.725 15.6985C435.725 15.6985 320.355 146.846 319.305 143.196C318.727 141.188 367.245 82.8947 374.877 75.0368L376.994 72.8967C380.574 69.181 398.293 48.9029 431.991 12.2646Z" fill="#00160A"/>
<path fill-rule="evenodd" clip-rule="evenodd" d="M165.725 172.045C167.816 171.784 171.433 172.141 175.401 173.388C176.737 173.808 177.48 175.232 177.06 176.568C176.64 177.905 175.216 178.648 173.88 178.228C170.515 177.17 167.918 176.628 166.158 176.583L165.725 176.582C165.108 176.596 164.657 176.704 162.909 177.372L160.28 178.399C157.762 179.392 155.908 179.976 153.854 180.314C151.539 180.694 148.045 180.539 143.248 179.887C141.86 179.698 139.487 178.051 141.076 177.032C142.666 176.013 149.387 177.124 152.538 176.568C155.689 176.013 161.671 172.551 165.725 172.045Z" fill="#00160A"/>
<path fill-rule="evenodd" clip-rule="evenodd" d="M57.3344 345.8C68.7558 345.6 73.6229 348.776 72.5721 349.803C72.5721 349.803 60.4395 348.879 57.3344 348.776C54.0522 348.667 39.0275 348.44 38.6138 347.102C38.4566 346.593 38.4674 346.072 38.6147 345.6C38.7687 345.106 41.7215 345.409 46.8277 345.638C49.6909 345.767 53.231 345.872 57.3344 345.8Z" fill="#00160A"/>
<path fill-rule="evenodd" clip-rule="evenodd" d="M75.3915 407.158C75.3915 407.158 74.364 455.579 81.2374 459.526C82.1868 460.071 82.083 462.173 81.0394 463.107C79.9958 464.041 78.3924 463.953 77.4581 462.909C71.1423 455.854 69.4907 435.939 71.9873 406.629C72.1014 405.289 75.5104 405.762 75.3915 407.158Z" fill="#00160A"/>
<path fill-rule="evenodd" clip-rule="evenodd" d="M234.592 434.723L234.455 434.732L226.361 435.48C175.775 440.213 144.161 444.878 119.316 449.481L116.982 449.92C104.995 452.215 95.1526 454.5 89.433 456.806C82.2792 459.689 75.8421 463.128 78.1254 467.417C82.1043 474.89 90.4777 477.819 108.821 479.85L110.777 480.057C124.957 481.504 140.197 481.855 178.832 482.051L192.033 482.127C239.129 482.442 266.364 484.134 301.632 486.296L305.227 486.52C370.173 490.62 422.014 489.963 460.75 485.417L461.92 485.279C493.216 481.517 514.332 475.295 523.516 468.236C528.924 464.08 529.75 459.915 529.899 456.063C530.034 452.6 522.085 447.368 517.545 445.649C504.897 440.861 500.77 439.124 476.454 436.672C428.428 431.83 348.506 430.507 234.592 434.723ZM476.96 440.705L478.554 440.868C501.222 443.239 516.103 446.661 522.968 450.962L523.396 451.239C528.667 454.743 528.002 458.391 520.425 464.214C512.141 470.581 491.78 476.581 461.315 480.242C423.174 484.827 371.897 485.566 307.502 481.579L300.751 481.16C263.574 478.905 235.051 478.297 182.26 478.011L167.688 477.927C136.259 477.707 122.901 477.273 110.005 475.891L108.779 475.755C92.6115 473.906 83.6768 470.528 80.6834 465.232L80.5739 465.033C80.5169 464.926 80.5166 464.927 80.951 464.487C81.8205 463.606 83.6038 462.579 86.2567 461.51L86.9441 461.24C92.6939 459.027 101.782 456.76 114.154 454.468L116.497 454.041C141.196 449.605 178.029 445.095 226.971 440.517L234.842 439.79L241.562 439.545C351.693 435.598 430.18 435.988 476.96 440.705Z" fill="#00160A"/>
<path d="M361.57 391.277C360.643 425.071 357.997 447.581 353.496 455.457C349.687 462.121 336.9 464.383 320.692 463.287L314.856 462.863C306.931 462.27 302.51 461.837 298.249 461.178L297.669 461.087C290.812 459.992 286.288 458.478 283.752 456.019C274.394 446.946 269.433 426.844 268.485 395.531C268.443 394.131 272.155 395.42 273.556 395.377C273.846 395.368 290.59 397.388 313.638 396.314C327.306 395.676 361.57 391.277 361.57 391.277Z" fill="white"/>
<path fill-rule="evenodd" clip-rule="evenodd" d="M271.349 395.146C272.276 428.94 280.242 448.58 284.744 456.456C288.553 463.12 301.34 465.383 317.548 464.286L323.383 463.863C331.309 463.269 302.232 454.609 292.192 443.641C280.931 431.339 271.349 395.146 271.349 395.146Z" fill="#E7EAEE"/>
<path fill-rule="evenodd" clip-rule="evenodd" d="M278.203 405.613C278.393 404.226 280.103 401.851 281.059 403.444C282.015 405.037 282.443 408.902 284.431 413.836L288.649 422.014C289.022 422.94 289.361 423.797 289.68 424.624L289.868 425.117C291.772 430.112 292.939 433.037 293.354 436.362C293.527 437.752 292.541 439.019 291.151 439.193C289.761 439.366 288.494 438.38 288.32 436.99C287.967 434.163 287.913 430.554 286.143 425.909L285.772 424.946C285.518 424.293 285.248 423.614 284.957 422.891L282.028 415.773C281.521 414.527 281.13 413.538 280.785 412.62L280.509 411.873C279.455 408.974 278 407.099 278.203 405.613Z" fill="#00160A"/>
<path fill-rule="evenodd" clip-rule="evenodd" d="M211.428 246.436C209.867 247.622 211.774 249.296 212.384 251.12C212.524 251.536 212.701 251.965 212.935 252.466L213.221 253.061L213.868 254.35L214.136 254.896C214.424 255.495 214.628 255.965 214.791 256.413C215.294 257.797 215.247 258.421 214.774 258.843C212.11 261.22 209.28 262.811 203.857 265.213L200.863 266.524C191.834 270.513 185.811 273.159 182.415 278.559C177.935 285.684 179.13 295.896 182.254 310.768L182.401 311.458C183.001 314.229 181.85 319.291 181.023 326.961L180.962 327.513C180.624 330.578 180.187 334.011 179.589 338.367L177.207 355.273C176.307 361.738 175.637 366.882 175.057 371.918L174.837 373.863C173.093 389.61 172.59 401.994 173.6 412.051C174.477 420.776 179.587 433.258 185.616 439.222C194.476 447.985 203.281 443.834 211.248 425.715C214.809 417.617 217.01 410.015 218.062 402.288C219.468 391.957 218.891 381.424 216.439 367.215L216.185 365.771C214.508 356.561 207.181 322.623 206.306 318.319L206.023 316.948L204.162 308.273C204.042 307.707 203.931 307.171 203.823 306.645L203.477 304.927C201.936 297.096 201.402 291.899 201.982 288.535C202.037 288.218 202.305 287.752 202.853 287.16C203.707 286.238 205.063 285.197 207.058 283.911L207.947 283.351C209.815 282.2 214.263 279.553 214.294 279.534L215.25 278.949C224.641 273.137 229.057 268.581 229.057 262.133C229.057 255.726 226.354 250.829 221.966 247.907C218.317 245.478 213.723 244.692 211.428 246.436ZM216.544 252.42L215.671 250.667L215.574 250.647C216.709 250.842 217.986 251.352 219.154 252.129C222.15 254.124 223.985 257.448 223.985 262.133C223.985 266.14 220.446 269.765 212.543 274.658L211.161 275.496C209.809 276.302 206.11 278.512 204.829 279.317L204.723 279.384C202.176 281 200.405 282.337 199.131 283.714C197.972 284.966 197.227 286.259 196.984 287.672C196.232 292.03 196.889 297.964 198.73 307.054L199.197 309.316L200.904 317.251L201.861 321.843C203.818 331.107 209.856 359.216 211.239 366.928L211.285 367.183C213.787 381.383 214.391 391.653 213.036 401.604C212.049 408.85 209.98 415.997 206.605 423.673C202.961 431.961 199.298 436.603 195.928 438.028C193.409 439.093 190.883 438.3 188.169 435.616C183.061 430.563 178.4 419.178 177.633 411.544C176.666 401.912 177.157 389.834 178.866 374.405L179.082 372.499C179.682 367.29 180.379 361.955 181.335 355.122L183.415 340.399L183.862 337.135C184.306 333.83 184.654 331.062 184.937 328.539L185.116 326.899C185.924 319.22 186.057 314.033 185.383 310.637L185.33 310.386C182.288 296.315 181.966 287.189 185.695 281.259C188.336 277.059 192.647 274.831 200.456 271.353L203.936 269.827C209.793 267.232 212.966 265.444 216.123 262.627C218.456 260.545 218.664 257.803 217.53 254.681C217.272 253.972 216.97 253.289 216.544 252.42Z" fill="#00160A"/>
<path d="M216.543 252.419L215.671 250.666L215.573 250.646C216.709 250.841 217.986 251.351 219.154 252.129C222.15 254.123 223.985 257.447 223.985 262.132C223.985 266.139 220.446 269.764 212.543 274.657L211.161 275.495C209.809 276.301 206.11 278.511 204.829 279.316L204.722 279.383C202.175 280.999 200.405 282.336 199.131 283.713C197.972 284.965 197.227 286.258 196.983 287.671C196.231 292.029 196.889 297.963 198.729 307.053L199.197 309.315L200.904 317.25L201.861 321.842C203.818 331.106 209.856 359.215 211.239 366.927L211.285 367.182C213.787 381.382 214.391 391.652 213.036 401.603C212.049 408.849 209.98 415.996 206.605 423.672C202.96 431.96 199.298 436.603 195.928 438.027C193.409 439.092 190.883 438.299 188.169 435.615C183.061 430.562 178.4 419.177 177.633 411.543C176.665 401.911 177.157 389.833 178.866 374.404L179.082 372.498C179.681 367.289 180.379 361.954 181.335 355.121L183.415 340.398L183.861 337.134C184.306 333.829 184.654 331.061 184.937 328.539L185.116 326.898C185.924 319.219 186.057 314.032 185.382 310.636L185.33 310.385C182.288 296.314 181.966 287.188 185.695 281.258C188.336 277.058 192.647 274.83 200.456 271.352L203.936 269.826C209.793 267.231 212.966 265.443 216.122 262.626C218.456 260.544 218.664 257.802 217.53 254.68C217.272 253.971 216.97 253.288 216.543 252.419Z" fill="white"/>
<path fill-rule="evenodd" clip-rule="evenodd" d="M200.142 286.434C200.836 285.217 202.384 284.792 203.601 285.485C218.243 293.824 226.632 303.862 228.519 315.608C230.336 326.921 218.491 385.792 217.122 385.496C215.753 385.199 214.884 383.849 215.18 382.48L215.821 379.499C222.594 347.696 225.142 326.567 223.511 316.413C221.898 306.377 214.509 297.535 201.091 289.893C199.874 289.2 199.449 287.651 200.142 286.434Z" fill="#00160A"/>
<path fill-rule="evenodd" clip-rule="evenodd" d="M206.168 252.506C207.346 251.748 208.916 252.09 209.673 253.269C210.977 255.299 211.758 256.952 212.002 258.363C212.243 259.754 212.081 261.619 211.571 264.102C211.29 265.474 209.949 266.358 208.577 266.076C207.935 265.944 207.399 265.58 207.041 265.09C206.633 264.532 209.033 263.082 209.033 259.227C209.033 255.373 204.989 253.263 206.168 252.506Z" fill="#00160A"/>
<path fill-rule="evenodd" clip-rule="evenodd" d="M205.242 256.415C205.856 255.902 206.397 257.836 206.277 258.789C206.097 260.233 206.097 265.417 204.057 267.866C203.249 268.837 201.928 269.652 200.668 269.04C200.111 268.77 201.848 266.349 202.903 263.613C203.667 261.632 204.264 259.509 204.668 258.085C204.968 257.029 204.606 256.946 205.242 256.415Z" fill="#00160A"/>
<path fill-rule="evenodd" clip-rule="evenodd" d="M359.097 388.561C360.498 388.596 361.604 389.76 361.569 391.16L361.515 393.246C360.588 427.039 357.997 447.581 353.496 455.457C349.687 462.121 336.9 464.383 320.692 463.287L314.856 462.863C306.931 462.27 302.51 461.837 298.249 461.178L297.669 461.087C290.812 459.992 286.289 458.478 283.752 456.019C274.394 446.946 269.433 426.844 268.486 395.53C268.443 394.13 269.544 392.961 270.944 392.919C272.344 392.876 273.513 393.977 273.556 395.377L273.615 397.168C274.656 426.208 279.332 444.668 287.283 452.377L287.474 452.554C290.404 455.149 297.666 456.433 314.512 457.746L320.496 458.188L321.537 458.258C335.527 459.133 346.699 457.125 349.092 452.94C353.089 445.946 355.646 425.102 356.498 391.033C356.534 389.633 357.697 388.526 359.097 388.561Z" fill="#00160A"/>
<path fill-rule="evenodd" clip-rule="evenodd" d="M267.051 294.452C267.537 293.138 275.632 295.148 277.783 296.408C278.572 296.87 296.625 305.336 301.823 308.593C308.42 312.725 313.058 330.532 311.493 350.519C311.263 353.462 309.488 356.705 306.273 360.401C305.354 361.458 303.752 361.57 302.695 360.65C301.638 359.731 301.527 358.129 302.446 357.072C305.013 354.121 306.309 351.753 306.436 350.123L306.516 349.035C307.73 331.287 304.597 314.675 300.328 312L299.498 311.489C295.462 309.044 292.996 308.24 288.059 307.323C288.059 307.323 280.358 301.116 277.32 299.381C270.584 295.534 266.828 295.056 267.051 294.452Z" fill="#00160A"/>
<path fill-rule="evenodd" clip-rule="evenodd" d="M335.246 273.493C336.24 274.48 315.224 292.509 314.104 293.52C310.666 296.621 308.535 303.66 309.408 312.781L309.458 313.282C309.636 314.988 310.238 321.875 310.263 322.841L310.329 324.259C310.36 324.756 310.406 325.28 310.499 326.181L310.993 330.728C311.821 338.258 312.04 343.531 311.493 350.519C311.263 353.462 309.488 356.705 306.273 360.401C305.354 361.458 303.752 361.57 302.695 360.65C301.638 359.731 308.213 350.806 308.341 349.175C308.838 342.822 305.416 326.343 305.416 326.343C305.271 324.899 305.252 324.431 305.201 323.229C305.135 321.688 305.282 320.479 305.728 318.285L306.078 316.595C306.437 314.8 306.537 313.892 306.456 312.945L306.442 312.795C305.839 307.029 306.178 302.358 307.334 298.597C308.372 295.214 310.071 292.567 312.339 290.522C313.334 289.625 314.346 288.917 315.554 288.208L316.984 287.393C317.161 287.289 317.275 287.216 317.347 287.163L317.556 287.005C319.538 285.467 334.252 272.506 335.246 273.493Z" fill="#00160A"/>
<path fill-rule="evenodd" clip-rule="evenodd" d="M358.767 311.657C359.11 313.015 325.283 324.339 320.785 328.194C314.626 333.473 311.335 341.14 312.277 347.988L312.334 348.367C312.948 352.173 311.368 356.16 305.991 360.678C304.919 361.579 303.319 361.441 302.418 360.368C301.517 359.296 301.656 357.696 302.728 356.795C306.854 353.328 308.582 350.672 308.341 349.175C306.924 340.394 310.945 330.817 318.499 324.343C323.973 319.651 358.424 310.299 358.767 311.657Z" fill="#00160A"/>
<path fill-rule="evenodd" clip-rule="evenodd" d="M255.237 287.606C266.422 285.109 276.129 285.109 284.341 287.66C293.15 290.395 297.752 296.6 297.752 305.758C297.752 306.248 297.612 306.706 297.372 307.094L297.259 307.259L297.343 307.387C297.482 307.611 297.587 307.861 297.651 308.129L297.684 308.293C297.92 309.674 296.992 310.984 295.611 311.22L294.307 311.438C280.985 313.619 272.266 313.59 267.743 311.092C263.147 308.553 258.506 301.936 253.49 291.151C252.807 289.683 253.657 287.959 255.237 287.606ZM282.837 292.504C276.395 290.503 268.752 290.271 259.9 291.843L259.484 291.918L259.575 292.1C263.492 299.957 267.044 304.792 270.011 306.546L270.195 306.652C273.179 308.3 280.288 308.417 291.19 306.791L292.803 306.542L292.763 306.406C292.722 306.251 292.695 306.09 292.685 305.924L292.679 305.758C292.679 298.828 289.53 294.582 282.837 292.504Z" fill="#00160A"/>
<path fill-rule="evenodd" clip-rule="evenodd" d="M342.792 261.174C344.082 261.197 345.15 262.184 345.273 263.468C346.166 272.8 344.998 279.889 341.603 284.714C337.94 289.919 330.859 291.562 320.691 290.047C319.361 289.849 318.427 288.652 318.537 287.33L318.547 287.244L318.419 287.209C317.852 287.03 317.347 286.653 317.018 286.112L316.933 285.961C313.425 279.214 315.061 272.943 321.503 267.934C327.336 263.398 334.269 261.142 342.209 261.168L342.792 261.174ZM340.424 266.671L340.402 266.28L340.392 266.28C334.331 266.57 329.095 268.455 324.616 271.938C320.044 275.494 319.096 279.126 321.433 283.621C321.649 284.035 321.739 284.481 321.717 284.916L321.704 285.067L321.906 285.097C329.952 286.225 334.993 285.064 337.323 281.975L337.455 281.795C339.741 278.547 340.769 273.51 340.424 266.671Z" fill="#00160A"/>
<path d="M128.884 378.626C131.897 378.727 133.029 382.101 131.274 385.491C130.059 387.838 127.09 390.306 124.022 391.757C122.271 392.585 120.241 392.694 117.982 392.125C117.167 391.92 116.673 391.092 116.879 390.277C117.084 389.463 117.911 388.968 118.726 389.174C120.34 389.58 119.084 387.342 118.992 386.507C118.9 385.672 119.502 384.92 120.337 384.827C121.868 384.658 122.668 383.866 123.445 383.334C123.663 383.185 123.947 382.888 124.346 382.389L124.798 381.804L124.954 381.597C126.67 379.317 127.342 378.625 128.727 378.623L128.884 378.626Z" fill="white"/>
<path fill-rule="evenodd" clip-rule="evenodd" d="M128.884 378.626C131.897 378.727 133.029 382.101 131.274 385.491C130.059 387.838 127.09 390.306 124.022 391.757C122.271 392.585 120.241 392.694 117.982 392.125C117.167 391.92 116.673 391.092 116.879 390.277C117.084 389.463 117.911 388.968 118.726 389.174C120.34 389.58 121.655 389.51 122.721 389.006C125.237 387.815 127.706 385.764 128.571 384.092C129.07 383.129 129.177 382.375 129.025 381.924C128.993 381.826 128.958 381.763 128.918 381.724L128.878 381.693L128.825 381.733C128.781 381.768 128.732 381.811 128.677 381.862L128.592 381.945C128.337 382.199 128.106 382.479 127.655 383.071L127.047 383.875C126.302 384.849 125.782 385.423 125.164 385.846C123.928 386.691 122.662 387.632 120.672 387.852C119.837 387.945 119.084 387.342 118.992 386.507C118.9 385.672 119.502 384.92 120.337 384.827C121.868 384.658 122.668 383.866 123.445 383.334C123.663 383.185 123.947 382.888 124.346 382.389L124.798 381.804L124.954 381.597C126.67 379.317 127.342 378.625 128.727 378.623L128.884 378.626Z" fill="#00160A"/>
<path fill-rule="evenodd" clip-rule="evenodd" d="M129.974 385.408C131.824 385.47 132.503 387.092 132.354 388.991C132.243 390.408 131.671 391.924 130.803 392.891C129.705 394.115 128.172 395.167 126.096 396.252L125.673 396.469C124.923 396.849 124.405 397.094 123.034 397.729C121.352 398.507 119.111 398.786 116.293 398.614C115.454 398.563 114.816 397.841 114.867 397.002C114.918 396.163 115.64 395.525 116.479 395.576C118.838 395.72 120.603 395.501 121.756 394.967L123.186 394.3C123.603 394.102 123.92 393.945 124.296 393.755C126.28 392.748 127.677 391.819 128.538 390.859C128.892 390.465 129.202 389.688 129.299 388.953L129.32 388.754L129.321 388.712L129.203 388.783C128.91 389.073 125.217 391.294 124.818 391.374C119.622 392.407 120.569 391.994 118.579 392.214C117.743 392.307 116.991 391.705 116.899 390.869C116.807 390.034 117.409 389.282 118.244 389.189C118.794 389.129 119.829 390.11 120.975 390.019C121.954 389.942 124.38 388.695 124.38 388.695L125.425 387.823C125.684 387.608 125.908 387.425 126.124 387.254L126.637 386.857C127.961 385.861 128.939 385.373 129.974 385.408Z" fill="#00160A"/>
<path fill-rule="evenodd" clip-rule="evenodd" d="M124.653 400.227C126.716 399.475 128.41 401.322 129.204 403.087C130.065 405.002 129.008 406.69 127.009 407.926C125.654 408.764 123.813 409.402 122.439 409.557C120.503 409.775 118.201 409.128 115.484 407.682C114.742 407.287 114.461 406.365 114.856 405.624C115.25 404.882 116.172 404.6 116.914 404.995C119.138 406.179 120.883 406.67 122.098 406.533C123.024 406.428 124.435 405.939 125.408 405.337C125.893 405.038 127.961 403.087 125.695 403.087C124.84 403.087 123.864 402.613 123.744 402.178C123.625 401.743 123.864 400.515 124.653 400.227Z" fill="#00160A"/>
<path fill-rule="evenodd" clip-rule="evenodd" d="M153.63 368.078C153.96 367.911 154.457 368.201 154.499 368.552L154.5 368.627L154.382 369.824L157.894 368.077C158.076 367.979 158.368 368.042 158.588 368.215L158.667 368.285C158.867 368.485 158.902 368.722 158.759 368.85L158.697 368.892L154.036 371.114C153.659 371.278 153.135 370.988 153.122 370.639L153.127 370.563L152.955 369.824L149.384 371.113C149.016 371.265 148.563 371.033 148.538 370.707L148.539 370.63L148.463 369.718L144.088 371.115C143.677 371.27 143.258 371.009 143.322 370.671L143.343 370.597L143.403 369.718L139.894 370.961C139.489 371.119 139.102 370.901 139.16 370.577L139.181 370.501L139.381 369.595L136.147 370.516C135.765 370.649 135.438 370.472 135.481 370.181L135.499 370.106L135.847 369.099L133.255 369.718C132.974 369.784 132.751 369.685 132.719 369.494L132.717 369.418C132.736 369.205 132.951 368.981 133.215 368.882L133.316 368.851L136.567 368.051C136.892 367.968 137.139 368.145 137.106 368.41L137.09 368.485L136.81 369.387L140.303 368.075C140.667 367.931 141.005 368.15 140.961 368.468L140.943 368.543L140.546 369.752L144.427 368.082C144.796 367.913 145.199 368.174 145.158 368.518L145.141 368.593L144.726 369.882L149.03 368.075C149.358 367.928 149.771 368.16 149.813 368.484L149.815 368.561L149.722 369.904L153.63 368.078Z" fill="#FFB61D"/>
<ellipse cx="160.421" cy="214.726" rx="10.4907" ry="2.94753" transform="rotate(8.98977 160.421 214.726)" fill="#FFB61D"/>
<path fill-rule="evenodd" clip-rule="evenodd" d="M77.2757 282.203L79.1064 286.051L83.2141 287.186L80.12 290.116L80.3101 294.373L76.5671 292.336L72.5771 293.833L73.3579 289.643L70.7017 286.311L74.9272 285.759L77.2757 282.203Z" fill="#00160A"/>
<path fill-rule="evenodd" clip-rule="evenodd" d="M106.921 275.098L108.244 278.038L111.232 278.895L108.972 281.146L109.099 284.403L106.379 282.854L103.47 284.009L104.049 280.801L102.124 278.258L105.202 277.825L106.921 275.098Z" fill="#00160A"/>
<path fill-rule="evenodd" clip-rule="evenodd" d="M127.21 335.967L128.533 338.907L131.521 339.764L129.261 342.015L129.388 345.272L126.668 343.723L123.759 344.878L124.338 341.671L122.413 339.127L125.491 338.694L127.21 335.967Z" fill="#00160A"/>
<path fill-rule="evenodd" clip-rule="evenodd" d="M215.471 315.678L216.794 318.618L219.782 319.475L217.521 321.726L217.649 324.983L214.929 323.434L212.02 324.589L212.599 321.381L210.674 318.838L213.752 318.405L215.471 315.678Z" fill="#00160A"/>
<path fill-rule="evenodd" clip-rule="evenodd" d="M84.6019 413.068L85.9249 416.008L88.9128 416.866L86.6523 419.116L86.7796 422.373L84.0596 420.824L81.1505 421.98L81.7299 418.772L79.8046 416.229L82.8827 415.796L84.6019 413.068Z" fill="#00160A"/>
<path fill-rule="evenodd" clip-rule="evenodd" d="M83.6579 439.448L85.2749 443.041L88.9267 444.089L86.1639 446.84L86.3195 450.821L82.995 448.927L79.4394 450.339L80.1476 446.419L77.7945 443.311L81.5566 442.781L83.6579 439.448Z" fill="#00160A"/>
<path fill-rule="evenodd" clip-rule="evenodd" d="M114.093 424.231L115.71 427.824L119.362 428.872L116.599 431.623L116.755 435.604L113.431 433.71L109.875 435.123L110.583 431.202L108.23 428.094L111.992 427.564L114.093 424.231Z" fill="#00160A"/>
<path fill-rule="evenodd" clip-rule="evenodd" d="M154.673 412.057L156.29 415.65L159.941 416.699L157.179 419.449L157.334 423.43L154.01 421.537L150.454 422.949L151.162 419.028L148.809 415.92L152.571 415.39L154.673 412.057Z" fill="#00160A"/>
<path fill-rule="evenodd" clip-rule="evenodd" d="M94.5218 326.84L96.3525 330.688L100.46 331.823L97.3661 334.753L97.5562 339.01L93.8132 336.973L89.8231 338.469L90.6039 334.28L87.9478 330.948L92.1733 330.396L94.5218 326.84Z" fill="#00160A"/>
<path fill-rule="evenodd" clip-rule="evenodd" d="M99.5941 298.436L101.425 302.284L105.532 303.418L102.438 306.349L102.628 310.606L98.8855 308.569L94.8954 310.065L95.6762 305.876L93.02 302.543L97.2456 301.991L99.5941 298.436Z" fill="#00160A"/>
<path fill-rule="evenodd" clip-rule="evenodd" d="M145.246 315.682L147.077 319.53L151.185 320.664L148.091 323.595L148.281 327.852L144.538 325.815L140.548 327.311L141.329 323.122L138.672 319.79L142.898 319.238L145.246 315.682Z" fill="#00160A"/>
<path fill-rule="evenodd" clip-rule="evenodd" d="M171.623 302.492L173.454 306.34L177.562 307.475L174.468 310.405L174.658 314.663L170.915 312.625L166.925 314.122L167.706 309.932L165.049 306.6L169.275 306.048L171.623 302.492Z" fill="#00160A"/>
<path fill-rule="evenodd" clip-rule="evenodd" d="M163.507 343.072L165.338 346.92L169.445 348.055L166.351 350.985L166.542 355.243L162.799 353.205L158.808 354.702L159.589 350.513L156.933 347.18L161.159 346.628L163.507 343.072Z" fill="#00160A"/>
<path fill-rule="evenodd" clip-rule="evenodd" d="M96.5511 356.262L98.3818 360.11L102.489 361.245L99.3954 364.175L99.5855 368.432L95.8425 366.395L91.8524 367.891L92.6332 363.702L89.9771 360.37L94.2026 359.818L96.5511 356.262Z" fill="#00160A"/>
<path fill-rule="evenodd" clip-rule="evenodd" d="M70.4343 311.622L72.0732 314.9L75.7301 315.876L72.9859 318.361L73.1667 321.982L69.8317 320.239L66.2866 321.501L66.9696 317.94L64.5979 315.098L68.355 314.64L70.4343 311.622Z" fill="#00160A"/>
<path fill-rule="evenodd" clip-rule="evenodd" d="M52.1735 332.924L53.8125 336.203L57.4694 337.179L54.7251 339.663L54.9059 343.285L51.5709 341.542L48.0258 342.804L48.7089 339.243L46.3371 336.401L50.0943 335.943L52.1735 332.924Z" fill="#00160A"/>
<path fill-rule="evenodd" clip-rule="evenodd" d="M185.224 279.736C185.274 281.135 184.088 282.307 182.688 282.272C175.691 282.095 174.578 270.063 175.249 270.014C176.178 269.947 177.766 275.662 180.89 277.744C183.272 279.331 185.088 275.879 185.224 279.736Z" fill="#00160A"/>
<path fill-rule="evenodd" clip-rule="evenodd" d="M338.753 304.665C355.249 299.163 369.445 298.958 381.257 304.163C383.433 305.122 383.212 308.279 380.924 308.925L380.053 309.176C376.656 310.182 374.286 311.172 373.01 312.071L372.753 312.261L372.65 312.341C371.687 313.093 370.659 314.074 369.308 315.506L365.225 319.935C365.035 320.139 364.87 320.315 364.741 320.451C359.254 326.215 354.487 329.584 348.332 331.054C339.905 333.067 330.96 332.089 321.561 328.173C320.807 327.858 320.285 327.222 320.087 326.49L320.083 326.47L319.949 326.412C319.041 325.972 318.456 325.015 318.524 323.967L318.54 323.801C319.674 315.091 326.577 308.727 338.753 304.665ZM371.95 306.451C362.896 304.477 352.378 305.468 340.358 309.477C330.521 312.759 325.134 317.352 323.79 323.223L323.715 323.573L324.101 323.732C332.133 326.972 339.629 327.792 346.642 326.239L347.154 326.121C352.01 324.961 355.956 322.239 360.639 317.399L361.285 316.722C362.388 315.547 364.986 312.7 365.306 312.358C366.97 310.576 368.242 309.347 369.528 308.343L369.807 308.129C370.458 307.639 371.25 307.165 372.185 306.703L372.465 306.566L371.95 306.451Z" fill="#00160A"/>
<path fill-rule="evenodd" clip-rule="evenodd" d="M375.959 0.456892C377.107 -0.344949 378.689 -0.0639179 379.49 1.08459C380.292 2.2331 378.995 3.88539 377.847 4.68723C374.021 7.35803 364.805 16.0826 362.918 18.0808L361.104 20.0124C357.543 23.8473 315.123 67.9588 314.104 66.9975C313.17 66.1159 354.561 20.602 357.666 17.2758L357.783 17.1503C360.717 14.0195 363.428 11.1969 366.021 8.58305C368.589 5.99535 371.9 3.29047 375.959 0.456892Z" fill="#00160A"/>
</svg>
