<svg xmlns="http://www.w3.org/2000/svg" viewBox="0 0 1920 1080"><defs><style>.cls-1{fill:#26824b;}.cls-2{fill:#2a9e59;}.cls-3{fill:#7f2000;}.cls-4{fill:#8f3417;}.cls-5{fill:#8d361b;}.cls-6{fill:#2bc16b;}.cls-7{fill:#2fea7f;}</style></defs><title>background</title><g id="ground"><path class="cls-1" d="M1920,946v134H501.74S645.56,996.36,1147,944c249-26,501-14,773,41" transform="translate(0 0)"/><path class="cls-2" d="M0,946v134H1425.26S1281.44,996.36,780,944C531,918,272,929,0,984" transform="translate(0 0)"/></g><g id="right_Tree" data-name="right Tree"><rect class="cls-3" x="1502" width="132" height="1080"/><rect class="cls-4" x="1502" width="66" height="1080"/><path class="cls-4" d="M1502,81.13a205.09,205.09,0,0,1-73.44-.55C1373.28,70.26,1328.14,39.45,1303,0h-75c30.73,67.1,101,121.45,189.88,138.05a290.9,290.9,0,0,0,84.11,3.47Z" transform="translate(0 0)"/><path class="cls-4" d="M1415.13,364,1502,381V315h-86.87A19.12,19.12,0,0,0,1396,334.13v7.74C1396,352.44,1405,362,1415.13,364Z" transform="translate(0 0)"/><path class="cls-4" d="M1804,384h0a27,27,0,0,0-54,1c0,.34,0,.67,0,1h0c3.39,53.92-40.37,103.69-103.66,117.71-27.56,6.1-54.71,4.11-78.22-4.23a.09.09,0,0,0-.12.08v54.9a.1.1,0,0,0,.07.09,210.19,210.19,0,0,0,86.69-1.18C1744.92,533.41,1807.12,460.5,1804,384Z" transform="translate(0 0)"/></g><g id="left_Tree" data-name="left Tree"><rect class="cls-5" x="250.97" width="84.77" height="1080"/><rect class="cls-3" x="250.97" width="42.39" height="1080"/><path class="cls-3" d="M216.18,672.17,272,683.09V640.71H216.18A12.28,12.28,0,0,0,203.89,653v5C203.89,664.75,209.67,670.89,216.18,672.17Z" transform="translate(0 0)"/><path class="cls-5" d="M421.81,538l-91.69,18V486.31h91.69A20.19,20.19,0,0,1,442,506.5v8.17C442,525.82,432.5,535.91,421.81,538Z" transform="translate(0 0)"/><path class="cls-5" d="M394.36,276.22l-67.75,13.25V238h67.75a14.92,14.92,0,0,1,14.92,14.92v6C409.28,267.2,402.26,274.66,394.36,276.22Z" transform="translate(0 0)"/><path class="cls-3" d="M251,114.83c-22.2,2.85-47-.1-71.23-9.72C128.42,84.73,95.86,41,97.93,0h-31C65,55.05,106.62,112.44,172.59,138.62A185.49,185.49,0,0,0,251,151.85Z" transform="translate(0 0)"/></g><g id="bushes"><path class="cls-6" d="M1920,812s-114-31-177,71c0,0-134-14-186,116,0,0-69,11-76,81h439Z" transform="translate(0 0)"/><path class="cls-7" d="M1713,1080s8-88-90-93c0,0-10-45-67-34-7.32-7.52-20-24.71-45-31-7.48-1.88-22.35-6.28-38.85-2.9-31.5,6.47-51,36.15-55.15,42.9,0,0-69-20-101,43,0,0-97-22-87,75Z" transform="translate(0 0)"/><path class="cls-6" d="M0,819s82-26,121,51c0,0,93-94,196,18,0,0,164.58-36.31,196.34,71.59,9.13,31-22.61,65.25-35.34,120.41H0Z" transform="translate(0 0)"/><path class="cls-7" d="M632,1080s4-76-89-78c0-2-4-55-58-38,0,0-23-46-77-38,0,0-54,5-69,53,0,0-128-28-110,101Z" transform="translate(0 0)"/></g></svg>