<svg width="666" height="405" viewBox="0 0 666 405" fill="none" xmlns="http://www.w3.org/2000/svg">
<path fill-rule="evenodd" clip-rule="evenodd" d="M31.5123 49.2666C61.8456 99.7222 152.356 161.036 170.185 162.391C226.582 166.675 306.871 176.153 378.58 178.697L380.751 178.772C406.086 179.623 440.475 179.708 483.919 179.025C492.49 171.348 500.487 165.887 507.912 162.642L508.497 162.391C512.471 160.709 522.715 150.006 548.517 139.018C555.616 135.994 576.607 142.751 591.283 137.371L591.999 137.103C603.855 132.576 623.404 120.827 650.647 101.857C650.482 101.415 650.313 100.973 650.14 100.532C650.783 101.609 651.417 102.691 652.043 103.777C652.667 104.861 700.972 220.208 612.395 309.542C551.995 370.458 391.434 427.85 251.966 395.042C-102.765 318.389 16.6809 24.5966 31.5123 49.2666Z" fill="#2ECC71"/>
<path fill-rule="evenodd" clip-rule="evenodd" d="M627.126 226.926C629.107 223.298 630.703 219.554 634.181 217.183C634.599 216.898 635.436 216.539 635.598 216.7C636.045 217.143 636.485 217.842 636.49 218.443C636.535 224.054 632.884 228.242 630.694 232.981C629.538 235.481 627.889 237.755 626.44 240.117C626.151 240.588 625.793 241.031 625.403 241.424C625.04 241.792 624.28 242.399 624.23 242.351C623.62 241.757 622.847 241.132 622.644 240.373C622.44 239.614 622.733 238.666 622.975 237.851C623.841 234.936 624.735 232.028 625.715 229.151C625.977 228.382 626.582 227.729 627.126 226.926Z" fill="white"/>
<path fill-rule="evenodd" clip-rule="evenodd" d="M626.545 217.815C626.264 219.646 626.259 221.425 625.854 223.106C625.246 225.627 624.493 228.132 623.553 230.548C622.461 233.358 621.181 236.104 619.828 238.801C618.936 240.577 617.828 242.255 616.697 243.895C616.299 244.472 615.541 244.798 614.953 245.248C613.701 246.206 613.388 244.68 613.395 244.338C613.46 241.24 613.299 238.146 614.233 235.072C614.914 232.826 614.858 230.366 615.25 228.021C615.515 226.441 616.021 224.904 616.362 223.335C616.874 220.983 617.307 218.613 617.824 216.262C618.704 212.256 619.634 208.29 623.6 205.975C624.394 205.512 624.762 205.515 625.562 206.035C627.364 207.208 628.124 208.562 627.649 210.755C627.155 213.042 626.965 215.394 626.545 217.815Z" fill="white"/>
<path fill-rule="evenodd" clip-rule="evenodd" d="M535.974 291.836C532.524 285.866 529.066 279.834 523.476 275.597C521.166 273.846 518.312 272.556 515.505 271.791C512.931 271.09 510.173 271.295 507.358 271.799C503.915 272.414 500.594 273.163 497.424 274.57C492.911 276.573 489.101 279.593 485.971 283.349C481.409 288.822 477.684 294.59 480.485 302.318C481.537 305.219 485.24 307.518 488.355 307.016C490.236 306.712 492.21 306.945 494.14 307.011C495.773 307.066 497.409 307.387 499.031 307.31C501.836 307.177 504.625 306.705 507.429 306.601C510.933 306.471 514.446 306.569 517.955 306.569C519.204 306.569 520.484 306.746 521.694 306.53C523.809 306.154 526.006 305.818 527.946 304.963C532.733 302.852 537.949 298.606 535.974 291.836Z" fill="white"/>
<path fill-rule="evenodd" clip-rule="evenodd" d="M234.15 302.278C234.15 302.278 242.403 303.038 252.918 298.889C263.433 294.74 266.054 287.203 266.054 287.203C266.054 287.203 263.796 276.39 261.663 273.853C259.42 271.185 255.211 271.044 252.918 272.127C250.772 273.141 246.364 274.034 243.397 278.703C241.835 281.161 242.753 285.813 240.196 293.029C239.243 295.72 234.15 302.278 234.15 302.278Z" fill="white"/>
<path fill-rule="evenodd" clip-rule="evenodd" d="M120.588 295.485C120.588 295.485 144.895 304.016 158.111 306.652C171.326 309.288 195.633 310.455 195.633 310.455C195.633 310.455 215.3 279.963 222.556 260.338C229.812 240.712 235.227 203.361 235.227 203.361C235.227 203.361 215.09 210.016 207.958 220.278C200.827 230.54 206.76 249.539 195.633 260.338C182.478 273.104 162.194 260.046 144.453 268.355C126.711 276.664 120.588 295.485 120.588 295.485Z" fill="white"/>
<path fill-rule="evenodd" clip-rule="evenodd" d="M205.305 375.725C231.892 378.081 328.113 344.811 349.382 321.887C356.038 314.713 362.124 300.446 355.876 293.444C337 272.29 254.994 244.521 271.233 207.033C276.657 194.511 310.276 185.598 310.276 185.598C310.276 185.598 316.179 182.66 316.989 181.244C317.798 179.828 314.443 178.304 314.443 178.304L349.382 178.887C349.382 178.887 348.928 187.569 344.367 191.043C331.756 200.647 316.989 200.647 314.443 214.49C310.889 233.824 346.282 260.963 365.234 271.366C413.322 297.762 427.916 322.636 595.964 305.644C573.667 319.592 514.958 354.845 427.493 373.074C284.625 402.849 183.509 373.793 205.305 375.725Z" fill="white"/>
<path fill-rule="evenodd" clip-rule="evenodd" d="M443.238 50.1923C458.996 64.505 503.744 132.562 511.879 149.59C512.309 150.489 514.05 156.873 514.05 156.873C514.05 156.873 496.456 160.38 486.531 164.579C476.606 168.778 458.989 179.481 458.989 179.481C458.989 179.481 408.282 179.976 375.146 178.863C312.145 176.746 236.428 175.566 191.55 164.579C181.802 162.193 155.122 143.912 147.453 132.44C139.282 120.217 153.448 103.322 169.506 87.4958C214.333 43.3171 321.242 -60.6134 443.238 50.1923Z" fill="#FFB61D"/>
<path d="M535.617 64.2754C533.18 65.6204 529.009 64.2737 526.72 65.468C522.095 67.8799 517.479 63.2251 512.643 64.9556C509.555 66.0604 506.525 67.1156 503.312 67.468C501.059 67.715 498.862 69.175 496.626 69.2411C493.525 69.3326 490.975 70.9278 488.546 72.9819C486.283 74.8949 484.244 77.2497 482.029 79.2678C481.233 79.9932 480.244 80.5501 479.29 80.7462C477.873 81.0374 474.407 80.9226 472.964 81.0109C470.432 81.1657 467.901 81.4721 465.37 81.4753C462.836 81.4786 427.368 91.5955 423.302 94.2517C423.007 94.4445 422.68 94.5554 422.368 94.7043C422.536 94.4071 422.672 94.0662 422.876 93.8194C424.823 91.4597 426.557 89.9288 428.792 88.1889C431.749 85.8872 435.035 84.2026 438.303 82.7082C440.878 81.5305 443.633 80.9955 446.321 80.2606C448.71 79.6077 451.104 78.9314 453.522 78.5217C456.416 78.0312 459.334 77.6422 462.249 77.5297C464.645 77.4372 467.073 78.1492 469.449 77.9014C472.939 77.5375 478.43 76.8386 481.849 75.8584C483.123 75.4933 484.531 74.2446 485.286 72.8551C486.786 70.0962 488.876 68.366 491.064 67.2065C493.059 66.1495 495.426 66.2919 497.625 65.8704C499.672 65.4782 501.717 65.0642 503.756 64.6136C505.502 64.2277 507.293 63.993 508.968 63.3008C511.191 62.3824 513.302 61.0149 515.499 59.9773C516.657 59.4305 517.96 59.3717 519.085 58.7492C522.024 57.1239 566.667 46.1564 571.157 48.0436C575.647 49.9308 568.755 54.9844 566.667 54.7762C564.546 54.5646 562.381 54.9719 560.242 55.2117C557.823 55.4829 555.379 55.6553 553.005 56.2664C550.697 56.8609 548.439 57.8588 546.207 58.8588C543.931 59.8781 541.708 61.1009 539.471 62.2638C538.242 62.9032 537.03 63.6029 535.617 64.2754Z" fill="white"/>
<path d="M419.69 91.7404C418.688 88.2349 421.569 86.6212 423.334 84.1639C427.25 78.71 432.777 75.2371 438.786 72.4983C441.392 71.3103 444.025 70.1304 446.747 69.2632C450.018 68.2212 453.396 67.5176 456.727 66.6641C457.192 66.5448 457.647 66.33 458.118 66.2926C459.382 66.1921 460.599 65.1492 460.79 65.0249C461.537 64.5396 462.348 63.796 462.604 62.9814C463.208 61.0594 463.407 59.0142 463.95 57.0688C464.939 53.5244 467.692 51.5188 470.767 50.0286C474.543 48.1991 478.418 46.5657 482.301 44.9694C487.186 42.9606 492.131 41.0974 497.034 39.1301C501.605 37.2964 506.067 35.1358 510.748 33.6616C513.037 32.9405 515.714 33.449 518.216 33.4186C518.308 33.4175 518.402 33.6026 518.496 33.7009C518.331 33.8326 518.187 34.024 517.999 34.0873C512.989 35.7785 507.944 37.3738 502.97 39.165C499.538 40.4007 496.219 41.9456 492.817 43.2684C491.395 43.8213 489.834 44.0273 488.432 44.6177C485.495 45.8541 482.64 47.2827 479.716 48.5522C477.566 49.4861 475.303 50.1741 473.193 51.1853C470.335 52.5549 467.335 53.9373 466.396 57.367C466.046 58.6443 466.54 60.1973 466.055 61.3821C465.38 63.034 464.405 64.7434 463.1 65.9205C460.413 68.3443 456.979 69.3796 453.482 70.173C451.352 70.6562 449.292 71.4757 447.15 71.863C442.832 72.6438 438.866 74.3379 435.062 76.3873C429.809 79.2167 424.669 82.2845 421.813 87.5413C421.039 88.9668 420.715 90.636 420.166 92.1865C420.107 92.3528 419.918 92.4729 419.789 92.6145C419.788 92.3555 419.788 92.0964 419.69 91.7404Z" fill="white"/>
<path d="M416.425 89.8019C416.206 88.8074 415.959 87.9058 415.988 87.013C416.047 85.1707 416.08 83.2995 416.428 81.4993C417.749 74.6754 422.628 70.3922 427.512 66.0611C431.618 62.4194 435.854 58.8536 438.356 53.7528C439.331 51.7653 439.2 49.8131 439.147 47.6723C439.021 42.5878 436.233 39.0301 432.751 36.0948C429.18 33.0839 425.125 30.6278 421.186 28.0762C416.263 24.8871 412.075 21.0825 409.403 15.7378C407.803 12.5384 408.598 6.18394 411.241 3.73873C411.88 3.14697 412.894 2.68252 413.744 2.6682C414.719 2.65177 415.193 3.52681 414.963 4.56816C414.915 4.78376 414.808 5.10717 414.653 5.1597C412.556 5.87006 410.515 11.2398 411.949 13.2746C412.986 14.746 413.36 16.7594 414.563 18.0237C416.938 20.5198 419.627 22.7317 422.288 24.9386C426.74 28.6316 431.4 32.0837 435.728 35.9136C438.967 38.7791 441.288 42.5245 442.21 46.7326C442.676 48.8586 442.259 51.3673 441.245 53.546C439.182 57.9751 435.965 61.3938 432.272 64.5531C427.903 68.2912 423.07 71.7106 420.289 76.9303C419.041 79.273 418.197 81.9569 417.792 84.5821C417.477 86.6261 418.14 88.8173 418.326 90.9468C418.352 91.2472 418.134 91.5688 418.03 91.8807C417.786 91.6948 417.478 91.5531 417.311 91.3134C417.004 90.8723 416.781 90.3735 416.425 89.8019Z" fill="white"/>
<path fill-rule="evenodd" clip-rule="evenodd" d="M372.391 125.664V178.413L430.43 180.304H447.238V127.827H452.366L430.084 112.495C430.084 112.495 430.084 106.527 429.604 102.017C428.462 99.6713 425.019 99.2748 422.788 98.8512C420.557 98.4277 417.249 97.9074 417.249 99.6713C417.249 101.435 417.249 106.527 417.249 106.527L402.142 104.204L372.391 125.664Z" fill="white"/>
<path fill-rule="evenodd" clip-rule="evenodd" d="M420.286 179.974L430.43 180.304L427.43 122.767L421.184 118.182L420.286 179.974Z" fill="#E7EAEE"/>
<path fill-rule="evenodd" clip-rule="evenodd" d="M381.146 215.391C381.579 214.402 382.565 213.25 382.33 212.459C381.847 210.832 381.046 208.992 379.787 207.956C374.253 203.402 368.365 199.467 361.104 197.992C357.261 197.211 353.782 197.668 350.416 199.5C347.916 200.86 347.707 202.938 349.862 204.653C351.024 205.577 352.189 206.5 353.377 207.39C358.43 211.176 364.032 213.848 370.151 215.361C372.464 215.933 374.851 216.336 377.225 216.484C378.444 216.561 379.709 215.908 381.146 215.391Z" fill="white"/>
<path fill-rule="evenodd" clip-rule="evenodd" d="M398.224 106.779C392.99 106.646 361.98 130.117 361.288 129.721C360.596 129.325 390.826 106.491 395.213 103.443C397.488 101.862 399.848 101.946 402.237 103.633C405.566 105.983 426.181 119.082 428.957 120.388C432.148 121.89 451.156 126.274 450.168 127.484C449.607 127.804 446.799 128.055 445.946 127.941C445.701 127.909 445.211 128.129 445.183 128.293C444.328 133.384 445.762 174.556 445.961 176.629C445.998 177.013 446.39 177.47 446.744 177.7C448.188 178.637 449.779 178.532 451.43 178.596L451.705 178.608C454.612 178.759 457.243 178.15 459.699 176.876C462.906 175.214 465.971 173.278 469.078 171.429C472.348 169.484 475.577 167.472 478.857 165.547C483.395 162.884 488.345 161.124 493.259 159.353C496.237 158.28 499.402 157.691 502.514 157.028C505.208 156.454 507.946 156.081 510.665 155.621L510.728 155.615L513.394 155.681C513.006 154.873 512.653 154.045 512.224 153.259C510.732 150.526 509.141 147.843 507.722 145.073C506.05 141.809 504.643 138.407 502.9 135.184C498.983 127.943 494.964 120.756 490.923 113.584C487.082 106.767 483.164 99.9941 479.269 93.2081C478.757 92.3162 478.167 91.4692 477.646 90.5819C477.514 90.3559 477.508 90.0553 477.444 89.789C477.673 89.9614 477.961 90.0909 478.121 90.3128C480.054 92.9973 482.069 95.6297 483.868 98.4026C488.949 106.236 494.036 114.07 498.927 122.023C501.502 126.211 503.682 130.642 506.024 134.973C507.644 137.97 509.273 140.963 510.823 143.995C511.617 145.547 512.247 147.183 512.953 148.78L514.098 151.396C514.672 152.703 515.255 154.005 515.884 155.286C516.019 155.56 516.897 155.741 517.272 155.585C521.49 153.83 525.846 152.309 529.833 150.121C536.18 146.637 542.187 142.536 548.517 139.018C551.429 137.399 554.687 136.217 557.933 135.452C560.161 134.926 562.458 134.535 565.042 135.137C569.232 136.115 573.051 137.939 577.094 139.184C579.836 140.028 582.679 140.125 585.643 139.898C591.33 139.461 595.668 136.134 600.482 133.826C603.671 132.297 606.75 130.54 609.866 128.863C616.799 125.133 623.715 121.374 630.655 117.658C634.839 115.418 639.055 113.237 643.257 111.03C643.682 110.807 644.089 110.531 644.537 110.378L644.993 110.222C645.398 110.089 645.828 109.98 645.973 110.124L646.128 110.281C646.856 111.047 647.241 111.863 645.768 112.601C642.498 114.237 639.277 115.97 636.049 117.689C631.856 119.922 627.683 122.192 623.488 124.422C619.456 126.566 615.4 128.664 611.368 130.808C607.121 133.067 602.895 135.367 598.65 137.629C595.952 139.066 593.369 140.999 590.486 141.727C587.865 142.39 585.219 143.656 582.178 142.707L581.862 142.601C578.121 141.253 574.058 140.824 570.253 139.622C567.225 138.666 564.152 138.012 561.072 138.256C557.518 138.538 553.903 139.109 550.517 140.191C545.07 141.931 540.465 145.307 535.933 148.748L534.6 149.758C530.741 152.666 526.787 155.443 522.016 156.788C520.786 157.135 519.567 157.532 518.369 157.974C518.277 158.008 504.88 158.407 490.44 163.412C476.731 168.164 461.939 177.533 461.977 177.629C462.981 180.147 527.82 175.635 529.362 175.772C531.266 175.941 533.175 176.053 535.083 176.162C535.792 176.203 536.507 176.134 537.215 176.176C539.059 176.285 540.9 176.441 542.744 176.55C543.452 176.592 544.167 176.523 544.876 176.563C546.784 176.673 548.69 176.828 550.598 176.938C551.307 176.979 552.022 176.909 552.73 176.951C554.574 177.06 556.415 177.214 558.259 177.326C558.902 177.365 559.552 177.301 560.196 177.338C562.106 177.448 564.013 177.595 565.923 177.706C566.566 177.743 567.214 177.688 567.857 177.725C569.83 177.84 571.8 177.989 573.773 178.102C574.417 178.139 575.067 178.076 575.711 178.114C577.62 178.225 579.527 178.373 581.436 178.485C582.079 178.522 582.728 178.464 583.372 178.501C585.344 178.615 587.315 178.764 589.288 178.877C589.932 178.914 590.58 178.883 591.226 178.883C592.864 178.883 594.503 178.843 596.139 178.901C596.929 178.929 597.708 179.197 598.5 179.26C600.534 179.422 602.572 179.537 604.609 179.654C605.188 179.687 605.773 179.63 606.353 179.664C608.326 179.779 610.297 179.926 612.269 180.041C612.704 180.067 613.141 180.057 613.577 180.05L614.014 180.046C615.587 180.046 617.165 179.964 618.732 180.064C621.882 180.264 625.023 180.603 628.172 180.81C630.98 180.995 633.796 181.072 636.607 181.212C638.967 181.329 641.326 181.478 643.686 181.595L647.06 181.767C648.747 181.852 650.434 181.929 652.122 181.973C655.281 182.057 658.442 182.045 661.601 182.099C661.786 182.102 662.114 182.304 662.126 182.436C662.213 183.382 662.235 184.335 662.278 185.285C661.776 185.219 661.276 185.118 660.772 185.093C657.939 184.951 655.1 184.886 652.271 184.681C649.894 184.509 647.534 184.076 645.156 183.953C642.663 183.823 640.158 183.946 637.658 183.906C637.128 183.898 636.609 183.603 636.073 183.547L632.612 183.17C631.074 183.007 629.534 182.862 627.991 182.789C625.239 182.66 622.475 182.804 619.718 182.738C618.683 182.713 617.659 182.389 616.622 182.287C615.8 182.206 614.964 182.285 614.137 182.238C613.237 182.187 612.341 182.066 611.442 181.986C608.49 181.725 605.542 181.359 602.584 181.239C599.378 181.109 596.163 181.256 592.953 181.187C591.662 181.159 590.376 180.873 589.087 180.716C588.222 180.611 587.357 180.506 586.488 180.438C584.647 180.295 582.804 180.164 580.96 180.053C580.317 180.014 579.667 180.076 579.023 180.041C576.921 179.926 574.821 179.738 572.718 179.68C571.661 179.65 570.595 179.93 569.536 179.911C567.801 179.88 566.07 179.694 564.335 179.622C563.203 179.575 562.066 179.666 560.936 179.602C558.942 179.49 556.953 179.275 554.958 179.167C553.745 179.102 552.525 179.182 551.309 179.152C550.396 179.129 549.483 178.976 548.572 178.992C547.999 179.003 547.43 179.219 546.86 179.344C547.182 179.618 547.501 179.897 547.828 180.165C551.352 183.045 554.848 185.96 558.41 188.792C562.433 191.991 566.538 195.085 570.564 198.279C574.078 201.066 577.528 203.936 581.015 206.757C582.171 207.691 583.356 208.589 584.53 209.501C585.246 210.057 585.149 210.353 584.386 210.651L584.272 210.694C581.689 211.627 579.18 212.8 576.551 213.564C574.216 214.243 571.753 214.474 569.357 214.95C567.233 215.371 565.136 215.941 563.001 216.286C561.65 216.505 560.25 216.405 558.876 216.502C557.612 216.591 556.346 216.702 555.094 216.892C553.199 217.18 551.326 217.631 549.425 217.848C547.803 218.034 546.153 217.956 544.519 218.054C543.126 218.137 541.73 218.25 540.349 218.444C538.326 218.73 536.324 219.191 534.295 219.406C532.542 219.593 530.76 219.477 528.999 219.612C527.124 219.757 525.264 220.087 523.39 220.248C520.898 220.463 518.398 220.575 515.904 220.77C515.241 220.822 514.593 221.096 513.931 221.132C510.969 221.293 508.004 221.383 505.042 221.546C504.057 221.599 503.084 221.845 502.099 221.911C499.677 222.072 497.253 222.243 494.827 222.297C487.557 222.459 480.286 222.62 473.015 222.672C469.968 222.693 466.912 222.253 463.872 222.365C461.22 222.462 458.642 222.379 456.005 221.997C453.556 221.642 451.008 222.044 448.519 221.883C446.484 221.752 444.476 221.252 442.448 220.97C440.034 220.635 437.608 220.38 435.196 220.03C434.89 219.985 434.357 219.468 434.401 219.353L434.802 218.331C436.083 215.102 437.493 211.951 439.778 209.225C442.594 205.866 445.937 203.216 449.701 201.062L450.217 200.772C451.599 200.005 452.964 199.192 454.402 198.547L456.561 197.571C458.245 196.816 459.942 196.092 461.694 195.56C464.513 194.705 467.455 194.26 470.338 193.612C471.97 193.246 473.578 192.757 475.221 192.455C477.66 192.006 480.126 191.711 482.568 191.278C484.401 190.953 486.227 190.565 488.034 190.115C490.43 189.519 492.823 188.898 495.184 188.176C500.117 186.666 504.953 184.918 509.146 181.78C509.366 181.615 509.625 181.502 509.866 181.365C509.553 181.184 509.259 180.941 508.922 180.84C508.626 180.752 508.282 180.822 507.959 180.822L503.952 180.826C503.284 180.826 502.617 180.824 501.949 180.82L469.557 180.621C458.76 180.556 447.963 180.497 437.165 180.455C432.761 180.438 428.354 180.807 423.95 180.794C417.928 180.776 411.907 180.578 405.887 180.429C401.74 180.326 397.594 180.114 393.446 180.072C391.369 180.052 389.287 180.43 387.21 180.409C382.545 180.361 377.882 180.192 373.218 180.041C370.169 179.942 367.122 179.7 364.073 179.687C361.672 179.676 359.27 180.007 356.867 180.018C354.918 180.028 352.967 179.705 351.019 179.726C350.613 179.73 349.775 180.791 349.883 181.03C351.177 183.912 349.595 186.219 348.201 188.3C345.451 192.408 341.507 195.012 336.72 196.445C333.96 197.27 331.282 198.375 328.593 199.433L327.584 199.827C322.411 201.827 318.273 204.942 316.752 210.579C315.982 213.43 315.517 216.262 315.95 219.35C316.906 226.163 320.252 231.598 324.681 236.523L325.007 236.882C327.423 239.526 329.777 242.257 332.433 244.645C337.852 249.518 343.318 254.357 349.022 258.888C354.598 263.317 360.36 267.544 366.288 271.488C371.397 274.887 376.821 277.824 382.173 280.848C385.614 282.793 389.13 284.623 392.698 286.323C395.695 287.751 398.833 288.882 401.879 290.21C404.572 291.384 407.176 292.777 409.909 293.842C413.687 295.314 417.527 296.64 421.384 297.896C424.867 299.029 428.386 300.071 431.931 300.992C434.964 301.78 438.066 302.298 441.121 303.009C445.064 303.928 448.977 304.982 452.928 305.861C455.927 306.528 458.959 307.056 461.989 307.565C464.723 308.024 467.472 308.408 470.222 308.763C472.609 309.071 475.003 309.337 477.401 309.535C479.713 309.726 482.038 309.758 484.35 309.95C486.726 310.147 489.089 310.502 491.465 310.69C492.591 310.78 493.734 310.606 494.87 310.612C497.397 310.625 499.926 310.638 502.452 310.726C504.017 310.78 505.575 311.064 507.139 311.082C511.532 311.133 515.927 311.1 520.321 311.1C522.476 311.1 524.637 311.2 526.784 311.073C529.139 310.933 531.534 310.156 533.818 310.433C536.601 310.771 539.204 310.363 541.883 309.967C543.107 309.786 544.388 310.034 545.627 309.918C549.199 309.583 552.757 309.081 556.332 308.797C559.438 308.551 562.564 308.577 565.673 308.36C567.278 308.248 568.859 307.818 570.462 307.624C572.061 307.43 573.679 307.404 575.278 307.208C576.963 307.002 578.65 306.756 580.308 306.397C583.601 305.685 586.903 304.983 590.148 304.087C592.523 303.432 594.813 302.468 597.147 301.659C597.292 301.608 597.574 301.644 597.636 301.74C597.716 301.866 597.716 302.166 597.621 302.264C596.221 303.696 594.879 305.205 593.343 306.476C592.882 306.857 592.16 306.967 591.461 307.04L590.847 307.102C588.851 307.321 586.826 307.33 584.848 307.642C582.84 307.959 580.89 308.648 578.883 308.968C576.847 309.293 574.769 309.353 572.712 309.554C571.707 309.652 570.703 309.785 569.705 309.941C567.299 310.315 564.905 310.778 562.49 311.082C559.826 311.418 557.143 311.598 554.472 311.882C552.915 312.047 551.37 312.337 549.81 312.473C547.197 312.702 544.575 312.837 541.96 313.049C541.232 313.108 540.52 313.347 539.792 313.417L536.907 313.701C534.983 313.888 533.057 314.064 531.129 314.179C529.175 314.296 527.208 314.159 525.248 314.21C521.488 314.309 517.729 314.567 513.971 314.561C509.672 314.554 505.371 314.391 501.077 314.182C497.797 314.022 494.529 313.615 491.248 313.449C488.884 313.33 486.503 313.525 484.139 313.395C482.213 313.289 480.305 312.869 478.381 312.662C476.652 312.477 474.91 312.409 473.176 312.256C472.106 312.162 471.032 312.055 469.977 311.862C468.707 311.629 467.457 311.285 466.194 311.014C465.043 310.767 463.889 310.526 462.728 310.33C460.607 309.973 458.485 309.617 456.355 309.325C454.627 309.088 452.871 309.034 451.156 308.735C449.719 308.483 448.324 307.99 446.909 307.611L440.196 305.808C439.076 305.51 437.956 305.213 436.835 304.92C433.72 304.106 430.556 303.457 427.485 302.504C422.953 301.098 418.484 299.487 413.987 297.964C410.472 296.773 406.919 295.682 403.451 294.366L401.94 293.789C399.42 292.818 396.911 291.788 394.561 290.492L386.569 286.098C379.911 282.431 373.278 278.716 366.835 274.701C360.029 270.46 353.704 265.437 347.241 260.659C340.1 255.379 333.861 249.083 327.754 242.685L326.818 241.697C322.468 237.067 318.41 232.169 315.695 226.343L315.409 225.715C314.433 223.517 313.121 221.203 313.065 218.916C312.939 213.794 313.891 208.863 317.723 204.852C320.76 201.674 324.442 199.58 328.218 197.605L330.689 196.325C335.116 194.028 339.583 191.795 343.889 189.289C345.419 188.4 346.756 186.947 347.771 185.47C348.883 183.853 347.921 181.683 345.963 181.251C342.599 180.509 339.197 179.836 335.775 179.478C331.055 178.983 326.302 178.791 321.56 178.525C321.149 178.502 320.504 178.776 320.322 179.107C317.798 183.69 313.842 186.536 309.024 188.146C305.29 189.394 301.404 190.181 297.629 191.316C294.807 192.164 292.101 193.427 289.256 194.17C285.443 195.165 282.116 197.114 279.173 199.504L278.332 200.198C274.711 203.234 271.475 206.693 270.57 211.732C269.896 215.487 270.085 219.043 271.208 222.792C272.837 228.23 276.19 232.346 279.878 236.334C281.719 238.325 283.677 240.21 285.626 242.099C291.649 247.934 298.163 253.153 304.979 258.052C313.012 263.826 321.495 268.759 330.277 273.284L332.345 274.341C337.41 276.918 342.502 279.49 346.944 283.162C350.507 286.108 353.744 289.343 355.876 293.444L356.578 294.798C357.689 296.974 358.736 299.288 358.799 301.548L358.834 302.854C358.88 304.907 358.845 307.058 358.212 309.225C356.003 316.784 351.086 322.318 345.585 327.413C339.947 332.634 333.648 337.031 326.905 340.761C324.158 342.281 321.525 344.026 318.707 345.396C316.011 346.707 313.129 347.632 310.354 348.784C307.173 350.104 304.078 351.658 300.838 352.804C296.245 354.429 291.549 355.761 286.905 357.245C283.938 358.192 281.011 359.275 278.021 360.139C274.352 361.198 270.626 362.056 266.944 363.068C264.534 363.731 262.178 364.596 259.759 365.22C256.727 366.001 253.646 366.592 250.602 367.331C247.672 368.041 244.778 368.909 241.838 369.574C238.119 370.415 234.373 371.141 230.632 371.878C227.297 372.534 223.954 373.152 220.61 373.76C217.638 374.3 214.66 374.801 211.685 375.325C210.884 375.466 210.082 375.753 209.29 375.722C208.952 375.709 208.668 375.019 208.307 374.695C207.796 374.238 207.237 373.836 206.698 373.409C207.443 373.319 208.198 373.278 208.93 373.127C211.368 372.624 213.789 372.038 216.232 371.565C219.096 371.01 221.989 370.597 224.847 370.016C226.916 369.595 228.937 368.94 231.003 368.499C233.708 367.921 236.45 367.515 239.148 366.911C241.121 366.47 243.038 365.785 245 365.289C246.435 364.926 247.922 364.766 249.352 364.389C251.734 363.761 254.075 362.974 256.461 362.361C258.848 361.749 261.285 361.332 263.67 360.712C266.17 360.062 268.619 359.219 271.116 358.56C273.981 357.804 276.893 357.225 279.748 356.439C281.433 355.975 283.026 355.185 284.7 354.673C287.575 353.794 290.523 353.137 293.366 352.171C297.496 350.767 301.566 349.187 305.65 347.652L308.429 346.609C310.28 345.91 312.126 345.199 313.949 344.432C322.857 340.688 331.306 336.127 338.814 329.98L340.596 328.519C342.968 326.565 345.317 324.575 347.489 322.415C350.627 319.294 353.347 315.75 354.877 311.543C355.775 309.077 356.561 306.429 356.628 303.844C356.691 301.425 355.996 299.004 355.054 296.572C353.695 293.066 351.681 290.209 348.89 288.054C345.102 285.128 340.997 282.584 336.888 280.108C327.696 274.568 318.209 269.489 309.244 263.61C303.215 259.657 297.707 254.891 292.114 250.292L291.064 249.432C287.395 246.437 283.778 243.333 280.462 239.959C275.882 235.297 271.539 230.443 269.04 224.165C267.803 221.057 267.398 218.05 267.535 214.78C267.838 207.548 271.948 202.666 277.076 198.211C281.953 193.973 287.713 191.608 293.748 189.759C297.469 188.619 301.262 187.718 304.999 186.624C308.222 185.68 311.45 184.722 314.59 183.54C315.563 183.173 316.65 182.192 316.989 181.244C317.695 179.266 316.588 178.311 314.443 178.304C312.674 178.299 310.91 177.88 309.137 177.732C306.953 177.551 304.754 177.537 302.577 177.31C300.604 177.105 298.66 176.619 296.687 176.427C294.683 176.232 292.658 176.257 290.643 176.158C290.29 176.14 289.947 175.932 289.592 175.905C287.228 175.72 284.856 175.616 282.497 175.377C280.39 175.164 278.304 174.746 276.197 174.54C274.263 174.352 272.313 174.329 270.37 174.229C270.122 174.216 269.875 174.177 269.627 174.153C267.159 173.92 264.685 173.733 262.224 173.441C260.128 173.192 258.055 172.738 255.956 172.529C254.078 172.341 252.18 172.368 250.291 172.286C249.988 172.273 249.69 172.165 249.386 172.139C246.908 171.926 244.425 171.758 241.951 171.505C239.962 171.302 237.988 170.949 235.999 170.755C234.011 170.561 232.011 170.501 230.019 170.34C229.549 170.301 229.097 170.012 228.627 169.979C226.312 169.819 223.985 169.788 221.679 169.553C219.646 169.346 217.644 168.839 215.612 168.634C213.733 168.444 211.83 168.498 209.94 168.399C209.536 168.377 209.147 168.068 208.742 168.041C206.362 167.882 203.978 167.784 201.598 167.63C200.881 167.583 200.174 167.39 199.457 167.345C199.308 167.336 199.137 167.683 198.976 167.865L199.318 167.978C199.375 167.996 199.433 168.012 199.491 168.025C201.487 168.462 203.501 168.833 205.477 169.347C207.824 169.957 210.177 170.582 212.462 171.387C220.533 174.233 228.141 177.965 233.605 184.795C235.673 187.378 237.005 190.588 238.444 193.62C239.199 195.21 239.761 197.014 239.874 198.756C240.05 201.477 239.779 204.227 239.681 206.964C239.618 208.714 239.619 210.474 239.419 212.21C239.225 213.888 238.831 215.545 238.488 217.204L237.546 221.778C237.072 224.064 236.589 226.347 236.064 228.622C235.651 230.41 234.934 232.127 234.478 233.907C234.012 235.728 233.753 237.6 233.303 239.425C232.783 241.533 232.128 243.607 231.58 245.709C230.979 248.014 230.485 250.348 229.847 252.643L229.471 253.987C229.088 255.331 228.679 256.67 228.166 257.961L227.901 258.603C227.535 259.455 227.675 259.49 228.265 259.53L228.456 259.542C231.979 259.794 235.526 259.9 239.011 260.421C241.599 260.809 244.106 261.745 246.645 262.453C248.672 263.018 250.694 263.605 252.717 264.186C252.889 264.235 253.053 264.31 253.221 264.373C253.058 264.439 252.895 264.562 252.731 264.563C251.136 264.578 249.526 264.71 247.949 264.541C245.361 264.263 242.768 263.907 240.229 263.35C238.41 262.952 236.697 262.087 234.891 261.6C234.029 261.367 233.046 261.422 232.143 261.538L230.865 261.701C229.373 261.894 227.88 262.112 226.445 262.517C224.084 263.183 222.935 265.163 221.888 267.133L221.541 267.787C218.552 273.403 215.677 279.08 212.72 284.714C209.399 291.041 206.036 297.347 202.696 303.665L202.427 304.19C201.238 306.57 200.311 309.15 197.762 310.513C197.225 310.8 196.456 310.657 195.794 310.712C195.856 310.214 195.773 309.634 196.001 309.23C198.433 304.933 200.92 300.667 203.38 296.386C205.627 292.472 207.955 288.599 210.076 284.617C213.314 278.537 216.545 272.445 219.511 266.231C221.791 261.455 223.708 256.502 225.697 251.591L226.947 248.512C228.404 244.918 229.838 241.314 231.076 237.645C232.504 233.413 233.552 229.049 234.701 224.726C235.385 222.154 236.163 219.576 236.503 216.949L236.732 215.185C237.224 211.357 237.672 207.501 237.601 203.67C237.539 200.328 236.871 196.837 235.686 193.71C233.13 186.971 228.4 181.849 222.241 178.124C218.185 175.672 213.947 173.63 209.241 172.627C206.61 172.066 204.091 170.98 201.461 170.406C199.247 169.923 196.948 169.654 194.682 169.622C191.485 169.576 188.284 169.872 185.084 169.953C182.714 170.014 180.338 169.875 177.974 169.999C176.562 170.073 175.169 170.482 173.768 170.741C171.665 171.129 169.533 171.405 167.464 171.927C163.165 173.013 158.797 173.949 154.639 175.449C143.948 179.304 133.92 184.55 124.601 191.05C118.288 195.453 112.394 200.415 107.189 206.112C101.592 212.237 96.7826 218.936 93.5129 226.61C92.2421 229.593 91.2325 232.701 90.3 235.81C89.6389 238.015 89.0281 240.302 88.8981 242.581C88.7349 245.441 89.1073 248.329 89.2065 251.207C89.257 252.671 89.1147 254.148 89.2446 255.602C89.367 256.973 89.6288 258.353 90.0157 259.674C90.564 261.547 91.2626 263.378 91.933 265.214C95.6267 275.33 101.949 283.2 111.727 287.998C113.941 289.084 116.337 289.881 118.73 290.491C120.344 290.902 121.805 290.436 122.769 288.65C126.566 281.613 131.548 275.554 138.31 271.166C141.742 268.938 145.356 266.987 148.92 264.969C151.891 263.287 155.135 262.418 158.487 261.831C160.545 261.471 162.536 260.584 164.596 260.416C166.925 260.227 169.299 260.579 171.653 260.693L172.234 260.695C175.822 260.823 179.418 261.165 182.994 261.02C186.251 260.887 189.396 260.271 192.551 258.939C197.102 257.017 199.405 253.758 200.566 249.353L201.293 246.484C201.72 244.785 202.123 243.082 202.382 241.358C202.662 239.486 202.279 237.518 202.532 235.639C202.885 233.012 203.392 230.381 204.138 227.841C204.703 225.92 205.65 224.114 206.435 222.254L206.69 221.632C208.3 217.572 211.075 214.291 214.104 211.324C217.685 207.815 221.771 204.9 226.647 203.296C228.556 202.668 230.405 201.857 232.305 201.199C232.592 201.099 233.011 201.379 233.369 201.483L232.949 201.76C232.878 201.806 232.807 201.85 232.735 201.892L231.45 202.641C224.819 206.516 218.296 210.551 213.186 216.443L212.675 217.035C210.724 219.31 208.886 221.679 208.141 224.75C207.633 226.845 206.475 228.805 206.127 230.912C205.665 233.702 205.724 236.577 205.522 239.413C205.48 240.012 205.232 240.593 205.155 241.193C204.857 243.51 204.927 245.937 204.243 248.13C202.783 252.814 200.341 256.993 195.895 259.494C193.491 260.845 190.964 262.179 188.322 262.847C185.961 263.445 183.41 263.364 180.921 263.383L180.389 263.388C175.586 263.46 170.781 263.37 165.977 263.418C159.727 263.48 153.567 264.389 147.9 267.044C141.29 270.141 135.401 274.299 130.773 280.136C127.764 283.932 125.038 287.846 123.588 292.485C122.981 294.43 121.362 294.044 120.367 293.866L119.343 293.677C116.947 293.222 114.52 292.641 112.381 291.574C108.95 289.862 105.591 287.828 102.616 285.419C97.4407 281.229 93.172 276.122 90.5919 269.926C88.9203 265.911 87.5314 261.7 86.6879 257.444C86.1031 254.494 86.5936 251.347 86.4906 248.283L86.4615 247.672C86.2755 244.678 86.7734 241.822 87.4877 238.971L87.6241 238.436C88.5686 234.795 89.1469 231.012 90.5168 227.54C91.7788 224.342 93.6874 221.392 95.4433 218.396L95.817 217.753C99.4213 211.495 104.023 205.996 109.201 201.016C115.903 194.571 123.352 189.064 131.352 184.319L134.612 182.378C136.789 181.089 138.981 179.825 141.236 178.691C143.789 177.406 146.486 176.4 149.161 175.365L150.052 175.019C152.371 174.111 154.712 173.243 157.086 172.492C160.37 171.454 163.683 170.5 167.007 169.592C169.34 168.955 171.69 168.327 174.071 167.929C176.967 167.445 179.909 167.248 182.821 166.851C185.2 166.526 187.564 166.091 189.933 165.695C190.095 165.668 190.243 165.561 190.398 165.491C190.228 165.431 190.055 165.311 189.89 165.322C188.263 165.436 186.633 165.708 185.011 165.67C182.303 165.605 179.598 165.354 176.894 165.163C176.343 165.125 175.799 164.94 175.25 164.936C172.256 164.913 169.26 164.969 166.266 164.908C164.509 164.872 162.756 164.591 160.998 164.554C158.069 164.492 155.137 164.582 152.208 164.52C150.451 164.483 148.698 164.204 146.94 164.166C144.649 164.116 142.356 164.135 140.063 164.145L138.344 164.149C135.479 164.149 132.609 164.249 129.749 164.119C127.329 164.009 124.926 163.527 122.506 163.412C120.954 163.338 119.382 163.764 117.823 163.733C115.043 163.678 112.267 163.406 109.487 163.306C107.84 163.246 106.184 163.419 104.538 163.35C101.768 163.235 99.0014 163.017 96.2346 162.826C95.6826 162.788 95.136 162.612 94.5862 162.609C91.2038 162.588 87.8206 162.641 84.4391 162.581C82.6816 162.55 80.9287 162.264 79.1709 162.228C76.1775 162.166 73.1818 162.211 70.1871 162.211L64.0684 162.211C63.0486 162.212 62.0288 162.215 61.009 162.22C60.7212 162.221 60.434 162.347 60.1465 162.416L60.6816 162.685C60.7703 162.731 60.8582 162.779 60.9446 162.828C67.1402 166.397 72.762 170.703 77.5853 175.995C80.8134 179.538 83.7635 183.299 85.5294 187.821C86.3562 189.938 87.1749 192.085 87.6815 194.291C87.9883 195.627 87.5586 197.114 87.6971 198.51C87.8801 200.355 87.5399 202.079 86.8783 203.749C84.8384 208.899 81.3738 212.808 76.6699 215.75C73.4893 217.739 70.1573 219.299 66.4954 219.97C63.636 220.495 60.7132 220.772 57.8066 220.912C55.2132 221.036 52.5876 220.977 50.0059 220.711C47.8003 220.484 45.6462 219.794 43.452 219.407C41.1044 218.993 38.7279 218.742 36.3805 218.327C34.8769 218.061 33.4149 217.564 31.9133 217.282C28.7597 216.689 25.5829 216.217 22.4347 215.598C20.8891 215.294 19.3914 214.754 17.862 214.359L17.0861 214.158C16.567 214.026 16.0443 213.905 15.5193 213.842L15.1251 213.805C13.8466 213.726 13.0878 212.631 13.6295 211.411C13.6553 211.353 14.0057 211.408 14.1925 211.457C15.7842 211.877 17.3695 212.322 18.9635 212.733L22.8523 213.736C24.1494 214.067 25.4482 214.391 26.7509 214.698C29.9779 215.459 33.2098 216.206 36.4589 216.864C38.4123 217.259 40.383 217.579 42.3571 217.864L45.09 218.247C46.8978 218.499 48.7111 218.731 50.5259 218.777C53.01 218.838 55.5013 218.523 57.9918 218.444C59.9082 218.383 61.8343 218.526 63.7442 218.399C65.0279 218.313 66.3484 218.071 67.5514 217.625C70.434 216.558 73.301 215.425 76.0929 214.142C79.4925 212.58 81.9922 209.819 84.3478 207.054C85.1741 206.084 85.196 204.295 85.2257 202.873C85.2331 202.517 83.8872 201.978 83.0992 201.786C79.6618 200.945 76.1763 200.293 72.756 199.392C70.0387 198.676 67.4039 197.652 64.7071 196.851C62.7127 196.258 60.6633 195.852 58.6637 195.274C55.6596 194.407 53.8737 191.873 54.1071 188.951C54.1105 188.909 53.9751 188.85 53.9828 188.816C54.4348 186.853 53.5249 186.388 51.1345 186.854C49.0109 187.267 46.8001 187.223 44.6315 187.422C43.5046 187.525 42.3722 187.651 41.2659 187.881C38.5943 188.437 35.9563 189.409 33.2682 189.559C30.3804 189.721 27.453 189.042 25.1156 187.069C22.7013 185.031 20.3715 182.892 18.0262 180.773C16.2788 179.195 14.5624 177.582 12.84 175.976C12.5717 175.726 12.3451 175.431 12.0993 175.157C12.5784 175.148 13.2148 174.934 13.5112 175.162C15.5222 176.708 17.6909 178.141 19.3696 180.006L20.6105 181.386C22.6887 183.672 24.8677 185.816 27.9036 186.67C30.3131 187.348 32.9636 187.426 35.4927 187.346C37.8863 187.27 40.2822 186.73 42.6391 186.219C44.125 185.896 45.6076 185.45 47.0176 184.871L47.5428 184.648C50.2352 183.464 53.2983 183.671 55.3979 185.691L56.1145 186.417C56.8095 187.135 57.4972 187.983 57.2818 189.172L57.2401 189.363C57.1616 189.67 57.1981 190.035 57.0441 190.29L56.6562 190.942C56.0065 192.073 56.1431 192.24 57.5845 192.693L58.0566 192.839C61.0413 193.753 64.0092 194.732 67.0241 195.534C70.3219 196.41 73.6836 197.046 76.9824 197.919C79.3137 198.536 81.5907 199.362 83.8838 200.119C84.8291 200.431 86.0203 199.326 86.0972 197.897C86.1723 196.499 86.3719 195.032 86.0517 193.708C85.5965 191.827 84.9802 189.884 83.9714 188.253C79.6825 181.318 74.7131 174.878 68.6312 169.419C64.8609 166.035 53.5065 159.767 44.6012 157.896C35.6959 156.025 21.6929 157.081 18.9635 158.67C16.2342 160.258 12.1358 162.087 10.3151 162.57C10.1579 162.612 9.79648 162.416 9.75042 162.264C9.23128 160.546 10.4984 159.74 11.6482 159.145C14.3618 157.741 17.1422 156.453 19.9513 155.249C23.6539 153.661 27.6848 153.456 31.5993 153.014C33.726 152.774 35.9865 153.601 38.1712 154.025C40.3284 154.445 42.4941 154.867 44.6012 155.478C45.7374 155.807 46.7625 156.526 47.8312 157.081C52.0758 159.288 56.166 159.191 60.2513 156.543C61.5429 155.706 63.2206 155.491 64.6194 154.788C70.7388 151.713 76.826 148.573 82.9145 145.437C88.8455 142.382 94.7632 139.301 100.688 136.234C101.441 135.844 102.22 135.499 102.944 135.06C103.063 134.988 103.07 134.394 102.935 134.288C100.116 132.071 97.2996 129.848 94.4198 127.712C88.6439 123.426 82.7449 119.302 77.0658 114.894C73.9671 112.488 71.0464 109.797 68.3401 106.954C62.3806 100.694 56.7229 94.1445 50.7247 87.9228C45.4684 82.4705 39.9675 77.2482 34.4194 72.0913C33.8127 71.5275 31.7246 71.5863 31.1009 72.1769C28.0963 75.0224 25.3562 78.1475 22.5286 81.1791C22.2319 81.4972 22.0003 81.8775 21.6929 82.1831C21.5144 82.3606 21.2451 82.4466 21.0166 82.5738C21.0026 82.3211 20.9348 82.0576 20.9832 81.8175C21.3554 79.9717 21.3918 77.9407 22.239 76.3414C23.0802 74.7531 29.2515 68.3186 32.3721 68.3186C35.4927 68.3186 63.2916 97.3954 63.2916 97.3954C67.5106 101.986 71.766 106.543 76.21 110.906C83.0772 117.647 90.4204 123.894 98.4056 129.325C102.149 131.87 106.333 133.088 110.819 132.676C112.961 132.48 115.007 131.389 117.152 131.04C119.211 130.705 121.342 130.82 123.441 130.712C126.097 130.576 128.594 131.306 131.141 131.925C134.215 132.673 137.137 133.734 140.001 135.054C147.243 138.395 153.437 143.345 159.966 147.797C165.171 151.347 170.469 154.795 175.948 157.896C178.993 159.62 182.426 160.763 185.806 161.755C188.686 162.601 191.741 162.846 194.714 163.381C195.627 163.545 196.52 163.825 197.433 163.988L200.521 164.541C202.066 164.814 203.612 165.076 205.164 165.298C208.292 165.746 211.434 166.1 214.573 166.472C217.967 166.875 221.363 167.257 224.759 167.637C227.151 167.905 229.545 168.153 231.938 168.415C234.266 168.67 236.589 169.01 238.924 169.17C241.968 169.379 245.027 169.385 248.071 169.602C249.87 169.729 251.644 170.168 253.442 170.334C255.687 170.541 257.946 170.594 260.197 170.755C260.667 170.788 261.119 171.084 261.589 171.114C264.098 171.274 266.621 171.285 269.118 171.547C271.388 171.785 273.619 172.429 275.891 172.617C278.243 172.812 280.623 172.652 282.991 172.697C283.456 172.706 283.913 173.028 284.382 173.053C287.344 173.211 290.309 173.311 293.271 173.469C293.74 173.495 294.191 173.779 294.663 173.832C297.16 174.113 299.656 174.465 302.163 174.589C304.786 174.719 307.42 174.595 310.049 174.636C310.643 174.645 311.228 174.936 311.828 174.996C314.649 175.277 317.469 175.636 320.297 175.751C323.503 175.882 326.718 175.755 329.928 175.799C330.781 175.811 331.627 176.09 332.483 176.16L336.566 176.498C338.609 176.663 340.652 176.816 342.697 176.923C344.846 177.036 347.006 176.9 349.16 176.955C352.813 177.047 356.463 177.233 360.116 177.322C362.463 177.379 364.816 177.394 367.159 177.276C367.586 177.254 368.309 176.506 368.32 176.078C368.358 174.714 369.266 131.239 369.176 129.933C369.16 129.694 369.385 129.439 369.499 129.192C369.643 129.408 369.896 129.615 369.916 129.842C370.075 131.704 370.968 173.542 370.972 176.923C370.973 177.06 371.693 177.327 372.067 177.31C373.696 177.233 423.115 177.541 425.43 177.384C426.35 177.322 427.055 177.053 426.949 175.836C426.752 173.569 426.923 122.767 426.923 122.767C426.923 122.767 405.088 106.954 398.224 106.779ZM524.966 178.962C522.56 179.272 520.26 180.517 517.859 180.72C514.765 180.982 512.274 182.572 509.604 183.719C505.359 185.543 501.312 187.824 497.083 189.689C495.23 190.506 493.128 190.746 491.155 191.303C490.276 191.551 488.083 192.066 487.968 192.085L485.361 192.517C484.058 192.737 482.757 192.968 481.466 193.242C478.246 193.926 475.039 194.672 471.838 195.439C469.193 196.073 466.57 196.8 463.926 197.432L462.336 197.798C457.552 198.854 453.089 200.702 449.001 203.34C444.331 206.354 440.235 209.996 437.767 215.149C436.848 217.067 437.336 218.182 439.249 218.434C439.819 218.508 440.385 218.61 440.953 218.69C442.196 218.865 443.435 219.089 444.684 219.195C446.738 219.369 448.8 219.458 450.857 219.597C452.614 219.716 454.367 219.913 456.125 219.967C458.213 220.032 460.305 219.943 462.393 219.991C466.863 220.093 471.331 220.305 475.802 220.344C478.137 220.364 480.474 220.037 482.813 220C486.646 219.937 490.482 220.033 494.315 219.968C496.39 219.933 498.465 219.857 500.539 219.77L504.688 219.59C507.048 219.488 509.411 219.385 511.765 219.194C514.205 218.996 516.637 218.703 519.07 218.422C519.605 218.36 520.122 218.09 520.655 218.058C523.358 217.898 526.064 217.801 528.767 217.642C529.236 217.614 529.692 217.299 530.158 217.286C532.008 217.236 533.874 217.4 535.705 217.207C537.592 217.008 539.429 216.339 541.316 216.141C543.959 215.862 546.633 215.886 549.285 215.67C551.044 215.527 552.786 215.186 554.537 214.944C555.783 214.772 557.042 214.677 558.274 214.437C559.575 214.184 560.833 213.702 562.138 213.492C565.104 213.015 568.086 212.637 571.063 212.23C573.091 211.953 575.136 211.769 577.148 211.405C578.517 211.157 579.847 210.685 581.177 210.26C581.278 210.227 581.367 209.635 581.255 209.535C579.946 208.366 578.619 207.215 577.254 206.112C571.981 201.851 566.682 197.622 561.413 193.356C557.149 189.904 553.059 186.215 548.619 183.01C545.299 180.613 542.439 181.054 540.776 183.573L540.324 184.251C538.657 186.717 536.864 188.979 534.2 190.471C533.953 190.609 533.8 190.916 533.603 191.144C533.917 191.322 534.254 191.683 534.541 191.647C535.811 191.486 537.059 191.102 538.329 191.025C538.975 190.986 539.666 191.392 540.291 191.693C540.366 191.729 540.266 192.461 540.056 192.708C535.929 197.563 530.499 200.353 524.561 202.245C522.102 203.029 519.531 203.455 517.04 204.145C515.098 204.683 513.227 205.486 511.275 205.975C509.069 206.527 506.812 206.883 504.569 207.279C503.052 207.547 501.515 207.696 500.001 207.973C498.047 208.332 496.113 208.799 494.159 209.153C492.931 209.376 491.685 209.527 490.44 209.62C488.306 209.781 486.168 209.942 484.03 209.974C481.218 210.016 478.404 209.944 475.592 209.892C475.163 209.884 474.738 209.721 474.311 209.629C474.888 209.462 475.455 209.225 476.043 209.142C476.995 209.007 477.963 208.995 478.92 208.892C480.284 208.746 481.641 208.537 483.006 208.407C484.501 208.264 486.015 208.267 487.498 208.052C489.76 207.723 491.996 207.208 494.258 206.87C496.24 206.574 498.256 206.496 500.231 206.168C501.903 205.891 503.526 205.328 505.192 205.01C507.218 204.622 509.294 204.475 511.299 204.01C513.605 203.475 515.883 202.783 518.125 202.018C520.764 201.118 523.348 200.061 525.96 199.082C528.842 198.001 531.738 196.96 534.602 195.836C535.215 195.595 535.717 195.068 536.27 194.674C535.464 194.321 534.671 193.929 533.842 193.645C533.629 193.572 533.307 193.878 533.021 193.95C531.867 194.24 530.717 194.651 529.545 194.737C528.506 194.813 527.318 194.587 527.385 193.115C527.411 192.53 527.669 191.577 528.049 191.444C533.315 189.602 536.986 185.88 540.051 181.44C540.247 181.155 540.04 180.163 539.842 180.104C538.607 179.738 537.331 179.425 536.05 179.324C534.397 179.193 532.726 179.324 531.065 179.259C529.027 179.179 526.953 178.706 524.966 178.962ZM428.957 122.767L429.052 124.203C429.25 127.415 430.064 171.388 430.3 174.037C430.345 174.539 431.161 175.484 431.615 175.548C433.162 175.768 443.214 178.102 443.214 174.037C443.085 168.021 443.365 127.013 443.16 126.957C441.235 126.439 429.406 122.861 428.957 122.767ZM115.937 133.445C111.682 134.664 107.459 136.101 103.391 137.84C98.7231 139.836 94.2039 142.194 89.6826 144.516C84.4025 147.228 79.1943 150.079 73.9453 152.852C72.4099 153.663 70.8595 154.451 69.2846 155.181C66.7204 156.371 64.1284 157.501 61.5542 158.67C61.3175 158.777 61.1243 158.981 60.911 159.139C61.1528 159.259 61.3852 159.453 61.638 159.485L63.8544 159.767C65.3323 159.953 66.8115 160.128 68.2951 160.243C69.1273 160.307 69.9881 159.92 70.8313 159.94C73.261 159.996 75.6889 160.144 78.1164 160.277C78.9896 160.325 79.8589 160.439 80.7311 160.51C82.9825 160.693 85.2319 160.928 87.4871 161.032C90.2577 161.16 93.0334 161.177 96.0007 161.435C98.4672 161.306 100.938 161.016 103.399 161.088C106.527 161.179 109.643 161.657 112.771 161.787C114.519 161.859 116.286 161.405 118.035 161.466C122.971 161.637 127.899 162.089 132.834 162.169C137.106 162.239 141.383 161.869 145.658 161.84C154.445 161.782 163.231 161.8 172.018 161.841C174.032 161.85 176.045 162.095 178.06 162.193C178.295 162.204 178.541 161.97 178.781 161.85C178.623 161.712 178.482 161.547 178.305 161.439C172.787 158.074 167.261 154.722 161.746 151.352C157.057 148.488 152.458 145.465 147.699 142.73L146.106 141.83C141.037 139.013 136.601 134.953 130.702 133.718C128.397 133.235 126.084 132.478 123.766 132.443C121.155 132.403 118.446 132.727 115.937 133.445Z" fill="#00160A"/>
<path fill-rule="evenodd" clip-rule="evenodd" d="M157.941 109.576C160.916 105.437 163.631 101.266 166.711 97.3835C171.643 91.1669 176.775 85.1068 181.907 79.0517C184.408 76.1008 187.054 73.2688 189.713 70.4577C193.418 66.5416 197.008 62.4895 200.986 58.8664C207.397 53.0258 214.053 47.4515 220.663 41.8315C228.141 35.4724 236.359 30.1414 244.775 25.1506C249.351 22.4377 254.199 20.1678 259.003 17.8632C262.454 16.2078 266.021 14.7893 269.564 13.3322C273.044 11.9009 276.52 10.4414 280.072 9.20679C282.871 8.23367 285.762 7.49951 288.649 6.81251C291.706 6.08515 294.8 5.5056 297.889 4.92432C300.359 4.45944 302.841 4.0421 305.33 3.68966C307.707 3.35301 310.096 3.07546 312.488 2.86801C314.777 2.66949 317.077 2.47566 319.371 2.49261C323.002 2.51944 326.631 2.83093 330.26 2.81726C332.895 2.80734 335.481 2.803 338.13 3.10006C340.769 3.39582 343.426 3.70733 346.076 3.93078C348.744 4.15584 351.33 4.5589 353.94 5.12615C356.319 5.64338 358.85 5.47953 361.218 6.03182C364.601 6.82121 367.886 8.0267 371.232 8.98579C374.705 9.98097 378.243 10.7646 381.672 11.888C384.045 12.6658 386.256 13.9279 388.587 14.855C391.067 15.8416 393.683 16.517 396.094 17.6404C399.018 19.0027 401.797 20.6766 404.624 22.2426C412.029 26.3439 419.191 30.8193 425.837 36.0823C427.937 37.7455 430 39.4556 432.072 41.154C432.37 41.3985 432.724 41.6521 432.876 41.9825C433.142 42.5623 433.272 43.2047 433.459 43.8209C432.964 43.5432 432.408 43.3376 431.984 42.9769C425.573 37.5255 418.495 33.0227 411.357 28.6287C408.047 26.5913 404.53 24.8861 401.075 23.0918C399.24 22.139 397.374 21.2265 395.458 20.4556C391.275 18.7725 387.056 17.1766 382.841 15.5739C379.77 14.4061 376.711 13.1915 373.592 12.1669C370.13 11.03 366.63 9.98792 363.1 9.08612C360.02 8.29906 356.891 7.66477 353.752 7.15425C351.767 6.83142 349.711 6.96777 347.714 6.69651C346.085 6.47523 344.515 5.7753 342.886 5.61339C340.923 5.41819 338.924 5.59641 336.942 5.54938C336.347 5.53525 335.758 5.2032 335.164 5.19689C331.782 5.16092 328.399 5.21791 325.017 5.16183C323.518 5.13697 322.02 4.79479 320.526 4.8247C318.786 4.85951 317.055 5.18856 315.315 5.30841C313.37 5.44236 311.414 5.43529 309.471 5.58361C308.036 5.69308 306.603 5.90222 305.186 6.1586C303.139 6.5291 301.113 7.02299 299.064 7.38733C297.516 7.66266 295.93 7.73483 294.391 8.04737C292.499 8.4316 290.626 8.92584 288.768 9.4562C286.481 10.1094 284.223 10.8663 281.942 11.5457C279.964 12.135 277.91 12.5198 275.999 13.2721C269.85 15.692 263.666 18.0509 257.655 20.7836C248.92 24.7548 240.642 29.6045 232.754 35.0654C227.797 38.4972 223.009 42.1772 218.212 45.834C208.602 53.1599 200.119 61.7243 191.771 70.4014C187.506 74.8342 183.606 79.6282 179.688 84.3803C175.703 89.2143 171.809 94.1304 168.039 99.134C164.276 104.128 160.623 109.211 157.097 114.374C153.985 118.929 151.118 123.652 148.126 128.289C147.99 128.5 147.681 128.599 147.453 128.749C147.492 128.529 147.48 128.281 147.579 128.092C149.58 124.266 151.539 120.419 153.622 116.639C154.932 114.263 156.43 111.991 157.941 109.576Z" fill="#00160A"/>
<path fill-rule="evenodd" clip-rule="evenodd" d="M531.617 60.625C529.18 61.659 526.975 62.7887 524.685 63.7068C520.061 65.5609 515.479 67.5051 510.643 68.8353C507.555 69.6846 504.525 70.4958 501.312 70.7667C499.059 70.9566 496.862 72.079 494.626 72.1297C491.525 72.2001 488.975 73.4264 486.546 75.0055C484.283 76.4761 482.244 78.2863 480.029 79.8377C479.233 80.3953 478.244 80.8234 477.29 80.9742C475.873 81.1981 474.407 81.1098 472.964 81.1777C470.432 81.2967 467.901 81.5322 465.37 81.5347C462.836 81.5372 460.303 81.3125 457.769 81.1919C457.384 81.1736 456.993 81.1382 456.613 81.1817C454.477 81.4259 452.312 81.5433 450.217 81.9878C447.592 82.5448 445.017 83.3501 442.435 84.0969C440.111 84.7689 437.701 85.2747 435.515 86.2651C431.374 88.1414 427.368 90.3145 423.302 92.3565C423.007 92.5046 422.68 92.5899 422.368 92.7043C422.536 92.4759 422.672 92.2138 422.876 92.0241C424.823 90.2101 426.557 88.0332 428.792 86.6957C431.749 84.9263 435.035 83.6312 438.303 82.4825C440.878 81.5771 443.633 81.1658 446.321 80.6009C448.71 80.099 451.104 79.5791 453.522 79.2641C456.416 78.8871 459.334 78.5881 462.249 78.5015C464.645 78.4305 467.073 78.9778 469.449 78.7873C472.939 78.5075 476.43 77.9703 479.849 77.2167C481.123 76.9361 482.531 75.9762 483.286 74.908C484.786 72.7871 486.876 71.457 489.064 70.5657C491.059 69.7531 493.426 69.8626 495.625 69.5386C497.672 69.2371 499.717 68.9188 501.756 68.5724C503.502 68.2758 505.293 68.0954 506.968 67.5632C509.191 66.8572 511.302 65.806 513.499 65.0083C514.657 64.588 515.96 64.5428 517.085 64.0642C520.024 62.8148 522.88 61.3728 525.807 60.0975C528.227 59.0436 530.694 58.0971 533.155 57.1403C537.034 55.6321 540.876 54.0013 544.83 52.7231C547.194 51.959 549.747 51.7927 552.206 51.3111C553.949 50.9698 555.663 50.3315 557.414 50.2235C559.414 50.1002 561.446 50.3699 563.456 50.5594C565.03 50.7078 566.592 50.9879 568.157 51.222C568.958 51.3417 568.882 51.7453 568.303 52.0257C566.533 52.8828 564.755 53.4827 562.667 53.3226C560.546 53.16 558.381 53.4731 556.242 53.6574C553.823 53.8659 551.379 53.9984 549.005 54.4682C546.697 54.9252 544.439 55.6923 542.207 56.4611C539.931 57.2447 537.708 58.1846 535.471 59.0787C534.242 59.5702 533.03 60.1081 531.617 60.625Z" fill="#00160A"/>
<path fill-rule="evenodd" clip-rule="evenodd" d="M532.877 284.249C533.841 285.989 535.184 287.563 535.432 289.295C535.648 290.806 536.284 292.669 534.786 294.236C533.255 295.839 532.026 297.729 530.638 299.471C528.034 302.739 524.484 303.914 520.456 304.137C517.308 304.312 514.17 304.677 511.023 304.884C508.217 305.069 505.404 305.159 502.594 305.282C499.526 305.417 496.458 305.619 493.389 305.644C491.378 305.66 489.357 305.243 487.352 305.319C483.324 305.472 479.709 304.383 477.156 301.306C474.812 298.481 473.866 295.288 474.731 291.247C476.322 283.811 480.688 278.42 486.039 273.585C487.687 272.096 489.683 270.933 491.659 269.884C494.195 268.538 496.772 266.872 499.512 266.407C503.267 265.769 506.951 264.825 511.062 265.549C517.634 266.705 522.422 270.015 526.316 275.02C528.604 277.961 530.634 281.102 532.877 284.249ZM532.974 287.836C529.524 281.866 526.066 275.834 520.476 271.597C518.166 269.846 515.312 268.556 512.505 267.791C509.931 267.09 507.173 267.295 504.358 267.799C500.915 268.414 497.594 269.163 494.424 270.57C489.911 272.573 486.101 275.593 482.971 279.349C478.409 284.822 474.684 290.59 477.485 298.318C478.537 301.22 482.24 303.518 485.355 303.016C487.236 302.712 489.21 302.945 491.14 303.011C492.773 303.067 494.409 303.387 496.031 303.31C498.836 303.177 501.625 302.705 504.43 302.601C507.934 302.471 511.446 302.57 514.955 302.57C516.204 302.57 517.484 302.746 518.694 302.53C520.809 302.154 523.006 301.818 524.946 300.963C529.733 298.852 534.949 294.606 532.974 287.836Z" fill="#00160A"/>
<path fill-rule="evenodd" clip-rule="evenodd" d="M235.487 296.075C237.364 293.81 239.354 291.779 240.871 289.441C242.792 286.478 242.958 283.113 242.541 279.594C242.176 276.515 243.336 273.743 245.439 271.352C247.793 268.675 250.9 267.254 254.047 265.921C256.879 264.721 259.728 265.65 262.341 266.662C263.538 267.126 264.525 268.607 265.201 269.848C267.043 273.234 267.984 276.98 269.254 280.599C270.253 283.447 269.43 285.716 268.114 287.69C266.836 289.606 264.789 291.13 262.82 292.433C260.382 294.046 257.777 295.514 255.059 296.567C252.148 297.694 249.027 298.283 245.988 299.072C244.795 299.381 243.588 299.669 242.369 299.832C241.459 299.953 240.519 299.82 239.595 299.862C236.687 299.993 233.781 300.201 230.871 300.288C228.579 300.355 226.282 300.288 223.988 300.279C221.54 300.268 219.09 300.2 216.644 300.259C214.178 300.318 211.716 300.506 209.251 300.627C208.736 300.652 208.216 300.601 207.703 300.642C207.383 300.667 207.072 300.799 206.757 300.883C207.016 300.541 207.207 300.012 207.547 299.886C209.61 299.122 211.713 298.478 213.964 298.691C214.028 298.697 214.094 298.697 214.158 298.692C216.865 298.474 219.572 298.238 222.281 298.046C223.485 297.961 224.696 297.953 225.904 297.934C227.219 297.913 228.535 297.899 229.849 297.924C230.799 297.943 231.842 298.304 232.674 298.019C233.673 297.677 234.493 296.811 235.487 296.075ZM245.277 276.592C245.255 277.991 245.269 279.392 245.201 280.789C245.105 282.775 245.393 284.926 244.725 286.71C243.341 290.406 241.084 293.663 238.228 296.459C237.799 296.878 237.521 297.452 237.173 297.954C237.857 298.071 238.544 298.291 239.225 298.278C240.036 298.262 240.858 298.107 241.648 297.905C244.061 297.29 246.541 296.83 248.849 295.935C253.476 294.142 258.055 292.207 262.556 290.119C264.958 289.005 266.674 287.032 266.755 284.211C266.803 282.54 266.52 280.857 266.259 279.175C265.81 276.274 264.482 273.878 263.311 271.342C262.462 269.503 260.803 268.349 259.061 268.179C257.011 267.98 254.778 268.373 252.798 269.034C249.216 270.229 246.632 272.668 245.277 276.592Z" fill="#00160A"/>
<path fill-rule="evenodd" clip-rule="evenodd" d="M418.69 91.7405C417.688 88.235 419.569 85.6213 421.334 83.164C425.249 77.7101 430.777 74.2372 436.785 71.4984C439.391 70.3104 442.025 69.1306 444.747 68.2633C448.018 67.2213 451.396 66.5177 454.726 65.6643C455.192 65.5449 455.647 65.3301 456.118 65.2927C457.382 65.1922 456.83 64.7077 456.352 64.27C453.451 61.6137 450.541 58.9661 447.631 56.3199C446.319 55.127 444.98 53.9637 443.693 52.7444C443.3 52.3723 442.944 51.8965 442.751 51.3985C442.567 50.9249 442.618 50.3602 442.566 49.8355C443.052 50.0192 443.655 50.0779 444.008 50.4056C448.397 54.4795 452.745 58.5965 457.115 62.6905C457.66 63.2006 458.598 64.1493 458.79 64.025C459.537 63.5397 460.348 62.7961 460.604 61.9816C461.207 60.0595 461.407 58.0143 461.95 56.069C462.939 52.5246 465.692 50.5189 468.767 49.0288C472.543 47.1992 476.418 45.5658 480.3 43.9696C485.186 41.9607 490.131 40.0975 495.034 38.1302C499.604 36.2965 504.067 34.1359 508.747 32.6617C511.037 31.9406 513.714 32.4491 516.216 32.4187C516.308 32.4176 516.402 32.6027 516.495 32.701C516.331 32.8327 516.187 33.0241 515.999 33.0875C510.988 34.7786 505.944 36.3739 500.969 38.1651C497.538 39.4008 494.219 40.9457 490.817 42.2685C489.395 42.8214 487.834 43.0274 486.431 43.6179C483.495 44.8543 480.64 46.2828 477.716 47.5524C475.566 48.4863 473.303 49.1742 471.193 50.1854C468.334 51.555 465.335 52.9374 464.396 56.3671C464.046 57.6444 464.54 59.1975 464.055 60.3822C463.38 62.0342 462.405 63.7435 461.1 64.9206C458.413 67.3444 454.979 68.3797 451.481 69.1732C449.352 69.6563 447.292 70.4759 445.15 70.8632C440.832 71.6439 436.866 73.338 433.062 75.3875C427.809 78.2168 423.668 82.2846 420.813 87.5414C420.039 88.9669 419.715 90.6361 419.165 92.1866C419.106 92.3529 418.917 92.4731 418.789 92.6147C418.788 92.3556 418.788 92.0965 418.69 91.7405Z" fill="#00160A"/>
<path fill-rule="evenodd" clip-rule="evenodd" d="M369.545 220.758C366.604 220.629 363.857 220.386 361.11 220.402C358.29 220.419 355.546 220.159 352.751 219.712C350.454 219.345 348.202 219.214 346.081 218.095C344.992 217.521 344.599 216.978 344.67 215.681C344.774 213.744 344.343 211.784 344.368 209.836C344.432 204.896 345.648 200.325 349.462 196.879C351.251 195.262 353.58 194.697 355.824 193.842C359.344 192.502 362.396 194.035 365.449 194.6C368.498 195.165 371.281 197.275 374.127 198.806C376.364 200.009 378.759 201.089 380.639 202.733C382.301 204.185 383.535 206.238 384.606 208.217C385.427 209.734 386.086 211.545 386.1 213.231C386.112 214.676 385.354 216.301 384.495 217.541C383.028 219.66 380.711 220.206 378.207 219.986C377.951 219.963 377.688 219.961 377.432 219.986C374.868 220.239 372.303 220.5 369.545 220.758ZM382.146 213.391C382.579 212.403 383.565 211.25 383.33 210.459C382.847 208.832 382.046 206.992 380.787 205.956C375.253 201.402 369.365 197.467 362.103 195.992C358.261 195.211 354.782 195.668 351.415 197.501C348.916 198.861 348.707 200.939 350.862 202.653C352.024 203.577 353.188 204.5 354.377 205.39C359.43 209.176 365.032 211.848 371.151 213.361C373.464 213.933 375.851 214.336 378.225 214.484C379.444 214.561 380.709 213.908 382.146 213.391ZM380.983 217.656C381.523 217.162 382.062 216.668 382.602 216.173C381.895 216.189 381.186 216.185 380.481 216.232C380.255 216.248 380.031 216.496 379.82 216.477C377.233 216.241 374.626 216.109 372.07 215.677C369.923 215.313 367.733 214.828 365.748 213.968C363.125 212.832 360.639 211.351 358.175 209.883C354.894 207.928 351.518 206.061 349.344 202.716C349.088 202.323 348.61 202.075 348.235 201.759C347.972 202.191 347.575 202.591 347.468 203.058C347.025 204.996 346.624 206.946 346.297 208.906C346.083 210.195 345.905 211.51 345.92 212.812C345.945 215.056 347.534 217.165 349.146 217.263C351.612 217.413 354.164 217.174 356.527 217.74C359.94 218.559 363.341 218.393 366.754 218.405C369.154 218.414 371.554 218.151 373.956 218.051C376.233 217.956 378.512 217.915 380.983 217.656Z" fill="#00160A"/>
<path fill-rule="evenodd" clip-rule="evenodd" d="M414.425 89.8019C414.206 88.8074 413.959 87.9058 413.988 87.013C414.047 85.1707 414.08 83.2995 414.428 81.4993C415.749 74.6754 420.628 70.3922 425.512 66.0611C429.618 62.4194 433.854 58.8536 436.356 53.7528C437.331 51.7653 437.2 49.8131 437.147 47.6723C437.021 42.5878 434.233 39.0301 430.751 36.0948C427.18 33.0839 423.125 30.6278 419.186 28.0762C414.263 24.8871 410.075 21.0825 407.403 15.7378C405.803 12.5384 406.598 6.18394 409.241 3.73873C409.88 3.14697 410.894 2.68252 411.744 2.6682C412.719 2.65177 413.193 3.52681 412.963 4.56816C412.915 4.78376 412.808 5.10717 412.653 5.1597C410.556 5.87006 408.515 11.2398 409.949 13.2746C410.986 14.746 411.36 16.7594 412.563 18.0237C414.938 20.5198 417.627 22.7317 420.288 24.9386C424.74 28.6316 429.4 32.0837 433.728 35.9136C436.967 38.7791 439.288 42.5245 440.21 46.7326C440.676 48.8586 440.259 51.3673 439.245 53.546C437.182 57.9751 433.965 61.3938 430.272 64.5531C425.903 68.2912 421.07 71.7106 418.289 76.9303C417.041 79.273 416.197 81.9569 415.792 84.5821C415.477 86.6261 416.14 88.8173 416.326 90.9468C416.352 91.2472 416.134 91.5688 416.03 91.8807C415.786 91.6948 415.478 91.5531 415.311 91.3134C415.004 90.8723 414.781 90.3735 414.425 89.8019Z" fill="#00160A"/>
<path fill-rule="evenodd" clip-rule="evenodd" d="M625.545 215.815C625.264 217.646 625.259 219.425 624.854 221.106C624.246 223.627 623.493 226.132 622.553 228.548C621.461 231.358 620.181 234.104 618.828 236.801C617.936 238.577 616.828 240.255 615.697 241.895C615.299 242.472 614.541 242.798 613.953 243.248C612.701 244.206 612.388 242.68 612.395 242.338C612.46 239.24 612.299 236.146 613.233 233.072C613.914 230.826 613.858 228.366 614.25 226.021C614.515 224.441 615.021 222.904 615.362 221.335C615.874 218.983 616.307 216.613 616.824 214.262C617.704 210.256 618.634 206.29 622.6 203.975C623.394 203.512 623.762 203.515 624.562 204.035C626.364 205.208 627.124 206.562 626.649 208.755C626.155 211.042 625.965 213.394 625.545 215.815ZM624.673 212.422C624.763 210.652 624.917 208.881 624.901 207.112C624.897 206.618 624.499 205.95 624.079 205.695C623.761 205.502 622.925 205.667 622.662 205.97C621.824 206.933 620.962 207.952 620.442 209.099C618.847 212.62 617.933 216.299 617.579 220.2C617.289 223.391 616.266 226.514 615.57 229.668C615.37 230.575 615.14 231.477 614.986 232.393C614.578 234.832 614.197 237.276 613.821 239.721C613.745 240.219 613.737 240.728 613.697 241.233C614.254 240.883 615.091 240.663 615.322 240.163C617.084 236.36 618.833 232.543 620.372 228.647C621.461 225.89 622.308 223.026 623.082 220.16C623.451 218.795 623.292 217.295 623.568 215.894C623.776 214.834 624.293 213.835 624.673 212.422Z" fill="#00160A"/>
<path fill-rule="evenodd" clip-rule="evenodd" d="M154.742 304.508C153.341 304.25 152.142 303.941 150.925 303.744C149.035 303.44 147.11 303.322 145.243 302.923C142.98 302.44 140.745 301.803 138.53 301.128C136.527 300.518 134.565 299.772 132.592 299.064C132.522 299.039 132.467 298.682 132.52 298.646C132.958 298.341 133.4 297.887 133.884 297.828C137.87 297.344 141.238 299.645 144.964 300.383C148.067 300.997 151.101 301.967 154.212 302.523C156.312 302.898 158.496 302.794 160.637 302.972C161.629 303.055 162.609 303.292 163.592 303.473C166.154 303.943 168.701 304.522 171.279 304.865C173.404 305.147 175.58 305.04 177.705 305.321C179.329 305.536 180.919 306.054 182.507 306.499C185.592 307.363 188.665 308.269 191.741 309.165C191.933 309.22 192.109 309.33 192.292 309.415C192.117 309.459 191.937 309.555 191.767 309.541C189.918 309.384 188.063 309.267 186.225 309.027C184.056 308.744 181.905 308.333 179.741 308.014C178.591 307.844 177.43 307.744 176.273 307.623C173.731 307.357 171.176 307.184 168.651 306.808C166.45 306.48 164.299 305.82 162.098 305.5C159.869 305.175 157.605 305.094 155.359 304.881C155.207 304.867 155.076 304.637 154.742 304.508Z" fill="#00160A"/>
<path fill-rule="evenodd" clip-rule="evenodd" d="M398.639 116.264C401.932 115.095 409.003 120.487 406.706 126.015C404.053 132.399 395.826 131.183 393.643 128.423C389.544 123.242 392.375 118.488 398.639 116.264ZM394.813 121.22C390.687 125.168 397.605 129.781 400.675 128.75C408.813 126.014 403.664 112.751 394.813 121.22Z" fill="#00160A"/>
<path fill-rule="evenodd" clip-rule="evenodd" d="M626.127 224.926C628.108 221.298 629.703 217.554 633.181 215.183C633.599 214.898 634.437 214.54 634.598 214.7C635.045 215.143 635.485 215.842 635.49 216.443C635.536 222.054 631.885 226.242 629.694 230.981C628.538 233.481 626.889 235.755 625.44 238.117C625.151 238.589 624.793 239.031 624.404 239.425C624.04 239.792 623.28 240.399 623.23 240.351C622.62 239.757 621.848 239.132 621.644 238.373C621.44 237.614 621.734 236.666 621.976 235.851C622.841 232.936 623.735 230.028 624.715 227.151C624.977 226.382 625.582 225.729 626.127 224.926ZM624.091 232.778C623.832 234.199 623.567 235.619 623.319 237.042C623.257 237.394 623.253 237.756 623.223 238.113C623.577 237.806 624.055 237.566 624.266 237.18C626.995 232.184 629.742 227.195 632.351 222.136C633.068 220.747 633.37 219.137 633.793 217.609C633.85 217.404 633.545 216.929 633.323 216.862C633.075 216.787 632.564 216.948 632.452 217.158C629.706 222.288 626.999 227.438 624.091 232.778Z" fill="#00160A"/>
<path fill-rule="evenodd" clip-rule="evenodd" d="M413.322 98.451C413.322 92.6146 425.955 97.2978 427.025 98.9891C427.293 99.4124 427.843 115.49 426.903 113.228C425.9 110.699 426.594 100.5 425.496 99.7985C421.944 98.0437 417.648 97.1373 415.959 97.7346C413.041 98.4183 416.148 110.776 414.308 108.683C414.201 108.318 414.103 107.949 413.984 107.588C413.851 107.181 413.322 101.28 413.322 98.451Z" fill="#00160A"/>
<path fill-rule="evenodd" clip-rule="evenodd" d="M468.029 76.522C467.167 76.3707 466.246 76.4458 465.873 76.0298C464.092 74.0423 462.455 71.9251 460.778 69.8446C460.511 69.5137 460.304 69.1349 460.07 68.7782C460.867 68.6635 461.963 68.1651 462.403 68.5083C463.576 69.4216 464.577 70.6196 465.44 71.8491C466.479 73.3288 467.305 74.9577 468.029 76.522Z" fill="#00160A"/>
<path fill-rule="evenodd" clip-rule="evenodd" d="M420.726 99.5614C420.77 99.0647 421.998 100.169 422.029 100.566C422.205 102.789 423.063 112.594 422.265 111.561C421.814 110.606 421.4 107.955 421.202 106.908C421.003 105.86 420.726 102.838 420.726 99.5614Z" fill="#00160A"/>
<path fill-rule="evenodd" clip-rule="evenodd" d="M439.863 145.58C439.836 147.829 439.914 150.078 439.863 152.327C439.832 153.656 436.265 154.184 434.697 153.391C433.124 152.596 433.615 146.498 433.527 145.58C433.251 142.697 433.139 139.79 432.698 136.934C432.407 135.053 432.216 132.789 433.111 132.499C436.365 131.447 439.257 135.5 439.114 135.642C439.488 138.558 439.866 145.26 439.863 145.58ZM435.072 139.141C435.201 139.668 435.366 148.854 435.592 152.13C435.63 152.674 437.73 152.674 438.185 151.722C438.622 149.096 437.711 139.713 437.73 136.582C437.733 136.08 437.1 135.364 436.582 135.108C434.873 134.265 434.567 134.502 434.697 136.396C434.751 137.186 434.942 137.967 435.072 139.141Z" fill="#00160A"/>
<path fill-rule="evenodd" clip-rule="evenodd" d="M325.626 192.374C326.141 192.175 326.72 192.432 326.919 192.947C327.118 193.462 326.862 194.041 326.347 194.24C303.447 203.086 303.447 220.403 326.74 247.102C347.568 270.976 386.515 293.062 443.572 313.307C444.093 313.491 444.365 314.063 444.18 314.584C443.996 315.104 443.424 315.376 442.904 315.192C385.552 294.842 346.332 272.602 325.233 248.417C301.152 220.814 301.152 201.829 325.626 192.374Z" fill="#E7EAEE"/>
<path d="M364.289 309.215C364.469 308.693 365.039 308.417 365.56 308.597C366.082 308.778 366.359 309.347 366.179 309.869C361.734 322.721 353.618 333.431 341.852 341.98C330.126 350.501 310.752 358.213 283.707 365.151C283.172 365.288 282.627 364.965 282.49 364.43C282.352 363.895 282.675 363.351 283.21 363.213L285.09 362.726C310.93 355.973 329.466 348.508 340.676 340.362C352.117 332.049 359.98 321.673 364.289 309.215Z" fill="#2ECC71"/>
<path fill-rule="evenodd" clip-rule="evenodd" d="M365.4 320.162C365.525 319.624 366.063 319.29 366.601 319.415C367.139 319.541 367.473 320.079 367.347 320.616C363.337 337.806 354.801 350.107 341.754 357.447C328.865 364.699 314.974 369.631 300.086 372.243C299.542 372.338 299.023 371.975 298.928 371.431C298.833 370.887 299.196 370.368 299.74 370.273C314.407 367.7 328.083 362.844 340.774 355.704C353.306 348.653 361.511 336.829 365.4 320.162Z" fill="#E7EAEE"/>
<path fill-rule="evenodd" clip-rule="evenodd" d="M427.985 319.155C428.114 318.618 428.654 318.287 429.191 318.417C448.944 323.173 466.43 325.828 481.647 326.385L482.788 326.423C497.988 326.882 519.944 325.668 548.643 322.779C549.192 322.724 549.683 323.124 549.738 323.674C549.793 324.223 549.393 324.714 548.843 324.769L544.523 325.196C517.138 327.855 496.159 328.918 481.574 328.384C466.213 327.822 448.598 325.147 428.723 320.361C428.186 320.232 427.856 319.692 427.985 319.155Z" fill="#E7EAEE"/>
<path fill-rule="evenodd" clip-rule="evenodd" d="M281.841 201.551C282.293 201.233 282.916 201.342 283.234 201.794C283.551 202.246 283.442 202.87 282.991 203.187C277.433 207.093 274.517 211.042 274.148 215.006C273.775 219.019 276.018 224.551 280.941 231.533C281.259 231.985 281.152 232.609 280.7 232.927C280.249 233.245 279.625 233.137 279.307 232.686C274.134 225.35 271.729 219.418 272.157 214.821C272.589 210.176 275.849 205.762 281.841 201.551Z" fill="#00160A"/>
<path fill-rule="evenodd" clip-rule="evenodd" d="M283.994 206.14C284.313 205.915 284.755 205.992 284.979 206.312C285.204 206.632 285.127 207.073 284.807 207.298C280.875 210.061 278.812 212.855 278.551 215.659C278.287 218.498 279.874 222.412 283.357 227.352C283.583 227.671 283.506 228.113 283.187 228.338C282.868 228.563 282.426 228.487 282.201 228.168C278.541 222.977 276.84 218.781 277.142 215.528C277.448 212.242 279.754 209.119 283.994 206.14Z" fill="#00160A"/>
</svg>
