<svg width="197" height="197" viewBox="0 0 197 197" fill="none" xmlns="http://www.w3.org/2000/svg">
<path d="M195.196 32.5858L178.532 15.9178C176.223 13.6092 173.091 12.3125 169.824 12.3125H110.813V6.15625C110.813 2.75492 108.058 0 104.657 0H92.344C88.9427 0 86.1878 2.75492 86.1878 6.15625V12.3125H21.5471C16.449 12.3125 12.3128 16.4487 12.3128 21.5469V52.3281C12.3128 57.4263 16.449 61.5625 21.5471 61.5625H169.824C173.091 61.5625 176.219 60.2658 178.532 57.9572L195.196 41.293C197.6 38.8844 197.6 34.9906 195.196 32.5858ZM86.1878 190.844C86.1878 194.245 88.9427 197 92.344 197H104.657C108.058 197 110.813 194.245 110.813 190.844V147.75H86.1878V190.844ZM175.453 86.1875H110.813V73.875H86.1878V86.1875H27.1763C23.9096 86.1875 20.7815 87.4842 18.469 89.7928L1.80481 106.461C-0.599976 108.866 -0.599976 112.763 1.80481 115.168L18.469 131.832C20.7776 134.141 23.9096 135.438 27.1763 135.438H175.453C180.552 135.438 184.688 131.301 184.688 126.203V95.4219C184.688 90.3237 180.552 86.1875 175.453 86.1875Z" fill="white"/>
</svg>
