<svg width="575" height="588" viewBox="0 0 575 588" fill="none" xmlns="http://www.w3.org/2000/svg">
<path fill-rule="evenodd" clip-rule="evenodd" d="M574.229 322.661C591.571 186.205 312.562 -10.1873 111.762 14.0488C-89.0371 38.2849 102.497 196.076 21.2291 369.036C-35.1495 489.025 10.6085 593.021 282.53 586.732C478.716 582.194 560.438 453.662 574.229 322.661Z" fill="#20BF6B"/>
<path fill-rule="evenodd" clip-rule="evenodd" d="M132.92 39.1014C131.475 39.6026 131.964 81.8842 132.084 89.3223C132.353 106.079 131.456 412.502 131.489 429.3C131.498 434.231 131.825 435.319 132.92 434.931C136.611 433.621 423.89 433.983 431.055 432.661C431.405 432.596 433.018 386.309 433.024 385.014C433.094 370.786 434.066 66.9446 434.069 52.7097C434.071 46.6775 433.237 43.2717 431.936 42.3756C430.409 41.3234 428.849 40.8445 427.299 40.6392C422.014 39.9389 139.044 36.9772 132.92 39.1014Z" fill="white"/>
<path fill-rule="evenodd" clip-rule="evenodd" d="M96.9986 8.8283C100.361 8.70962 103.723 8.55529 107.085 8.43097C114.48 8.15758 191.875 7.90171 199.269 7.62079C202.096 7.51338 204.92 7.32512 207.748 7.23018C212.517 7.07005 217.287 6.96833 222.056 6.81648C225.553 6.70513 229.049 6.54298 232.545 6.42138C236.711 6.2765 240.878 6.16219 245.044 6.01305C248.273 5.89744 251.5 5.72008 254.729 5.62116C259.9 5.46275 265.073 5.35777 270.244 5.20894C274.277 5.09287 278.309 4.93842 282.341 4.81205C286.842 4.67098 291.344 4.54237 295.846 4.40833C300.347 4.2743 304.848 4.13716 309.35 4.00709C314.12 3.86927 318.889 3.74012 323.659 3.60358C328.25 3.47213 332.842 3.32951 337.433 3.20378C342.605 3.06218 347.777 2.93465 352.948 2.79975C358.053 2.6666 363.157 2.52914 368.262 2.3986C373.635 2.26121 379.007 2.13108 384.38 1.99538C389.619 1.86305 394.859 1.77463 400.095 1.5784C404.092 1.42862 408.083 1.12514 412.079 0.93092C412.671 0.902167 413.274 1.18662 413.87 1.17835C422.125 1.06384 430.379 0.936171 438.633 0.785289C444.811 0.672369 450.987 0.516303 457.164 0.388723C463.944 0.248691 470.724 0.0731863 477.504 0.00423939C481.022 -0.0315312 483.335 1.55593 484.164 4.87533C484.578 6.52918 484.361 8.34817 484.373 10.0928C484.405 14.5774 484.457 19.0627 484.399 23.5465C484.364 26.3394 484.142 29.1299 484.01 31.9218C483.985 32.453 483.979 32.9855 483.979 33.5174C483.977 39.3707 484.023 45.2245 483.967 51.0772C483.869 61.3423 483.718 71.607 483.572 81.8716C483.452 90.3941 483.306 98.9164 483.173 107.439C483.038 116.095 482.906 124.752 482.771 133.408C482.638 141.93 482.522 150.453 482.362 158.975C482.267 164.013 482.067 169.05 481.979 174.088C481.917 177.595 482.004 181.104 481.959 184.611C481.848 193.268 481.718 201.924 481.557 210.58C481.465 215.552 481.261 220.521 481.175 225.493C481.113 229.066 481.213 232.643 481.15 236.216C481.065 241.121 480.856 246.023 480.773 250.928C480.71 254.702 480.812 258.48 480.747 262.255C480.67 266.757 480.451 271.257 480.372 275.76C480.307 279.4 480.396 283.043 480.351 286.685C480.24 295.542 480.098 304.4 479.954 313.257C479.831 320.841 479.702 328.426 479.55 336.01C479.439 341.517 479.247 347.023 479.165 352.53C479.101 356.774 479.204 361.02 479.138 365.264C479.069 369.633 478.834 373.999 478.764 378.367C478.698 382.544 478.802 386.724 478.735 390.9C478.671 394.867 478.426 398.831 478.363 402.797C478.296 407.041 478.39 411.287 478.339 415.531C478.234 424.322 478.086 433.113 477.944 441.903C477.819 449.621 477.822 457.345 477.502 465.056C477.195 472.471 478.904 479.348 482.591 485.678C486.347 492.127 490.372 498.422 494.364 504.73C498.31 510.966 501.773 517.458 503.608 524.616C504.917 529.726 505.109 535.031 503.639 540.204C503.136 541.973 500.074 554.175 502.68 557.345C506.025 561.415 510.255 563.241 515.464 563.36C520.542 563.476 525.363 562.24 530.229 561.114C536.146 559.744 542.086 558.755 548.044 560.917C551.008 561.992 553.681 563.512 555.434 566.255C555.701 566.673 556.349 567.375 554.933 567.383C551.503 567.401 548.075 567.613 544.645 567.747C537.787 568.016 530.929 568.291 524.07 568.549C520.105 568.698 516.139 568.826 512.174 568.952C507.739 569.093 503.305 569.23 498.87 569.354C493.699 569.497 488.527 569.637 483.355 569.755C476.911 569.902 470.466 570.038 464.021 570.157C456.102 570.304 448.182 570.445 440.263 570.558C429.73 570.709 419.197 570.815 408.664 570.97C401.482 571.076 394.3 571.236 387.118 571.363C385.889 571.385 384.66 571.357 383.43 571.368C368.609 571.5 353.787 571.635 338.965 571.767C337.669 571.778 336.372 571.759 335.076 571.77C319.919 571.902 304.762 572.038 289.606 572.169C288.242 572.181 286.879 572.16 285.516 572.172C270.493 572.304 255.47 572.439 240.447 572.571C239.151 572.583 237.855 572.563 236.558 572.574C221.402 572.706 206.245 572.841 191.088 572.973C189.859 572.984 70.6293 572.965 69.4001 572.976C67.4555 572.996 59.1539 558.052 70.4797 524.616C74.2524 513.478 96.9986 483.867 96.9986 483.867C96.9986 483.867 93.9014 8.93761 96.9986 8.8283Z" fill="white"/>
<path fill-rule="evenodd" clip-rule="evenodd" d="M126.342 430.933C126.345 432.816 126.31 434.83 125.238 436.378C124.167 437.926 121.643 438.59 120.408 437.169C120.257 330.018 120.107 222.867 119.956 115.716C119.93 97.3883 119.905 79.0423 121.176 60.7588C125.653 69.4474 125.768 79.6478 125.784 89.4224C125.97 203.259 126.156 317.096 126.342 430.933Z" fill="#00160A"/>
<path fill-rule="evenodd" clip-rule="evenodd" d="M400.94 285.557C401.636 287.119 399.24 288.138 397.531 288.176C374.251 288.694 350.962 288.805 327.679 288.511C327.486 248.136 328.504 207.755 330.73 167.44C362.148 167.204 393.566 166.967 424.984 166.73C425.776 167.565 424.212 168.589 423.065 168.68C393.368 171.036 363.526 171.576 333.763 170.294C331.605 208.518 330.506 246.802 330.465 285.086C353.955 284.569 377.46 284.726 400.94 285.557Z" fill="#00160A"/>
<path fill-rule="evenodd" clip-rule="evenodd" d="M209.067 88.0559C209.356 88.4156 209.382 88.9139 209.395 89.3757C210.05 113.128 210.705 136.88 211.361 160.633C248.703 159.106 286.059 157.893 323.422 156.994C322.922 135.759 322.422 114.523 321.921 93.288C321.915 93.0292 321.91 92.7637 321.996 92.5195C322.326 91.583 323.804 91.6146 324.456 92.3636C325.108 93.1127 325.161 94.1946 325.182 95.1875C325.633 116.929 326.085 138.671 326.537 160.412C287.272 161.655 248.008 162.898 208.744 164.141C207.948 139.754 207.151 115.367 206.354 90.9798C206.325 90.094 206.314 89.1422 206.809 88.4064C207.303 87.6706 208.511 87.3656 209.067 88.0559L209.067 88.0559Z" fill="#00160A"/>
<path fill-rule="evenodd" clip-rule="evenodd" d="M166.571 175.866C161.672 176.078 155.999 175.905 152.954 172.061C169.74 172.357 186.547 171.444 203.203 169.329C203.794 169.254 204.03 170.066 204.037 170.662C204.522 208.932 205.006 247.202 205.49 285.473C205.501 286.306 205.433 287.292 204.725 287.732C204.347 287.967 203.876 287.978 203.43 287.981C188.572 288.083 173.712 287.832 158.867 287.227C157.167 287.158 154.791 285.868 155.778 284.482C171.227 284.214 186.681 284.166 202.132 284.34C202.373 247.427 201.857 210.509 200.583 173.618C189.265 174.627 177.924 175.377 166.571 175.866Z" fill="#00160A"/>
<path fill-rule="evenodd" clip-rule="evenodd" d="M154.309 292.317C171.574 291.685 188.872 291.949 206.11 293.108C205.008 325.532 205.917 357.986 206.827 390.416C207.102 400.229 207.377 410.042 207.652 419.855C207.142 420.629 205.852 420.426 205.27 419.704C204.688 418.983 204.615 417.989 204.568 417.063C202.516 376.777 202.032 336.411 203.117 296.088C187.796 295.754 172.474 295.419 157.153 295.085C156.294 295.067 155.378 295.03 154.677 294.532C153.977 294.035 153.673 292.894 154.309 292.317L154.309 292.317Z" fill="#00160A"/>
<path fill-rule="evenodd" clip-rule="evenodd" d="M211.049 287.51C210.934 250.466 210.256 213.424 209.015 176.401C208.948 174.41 208.88 172.42 208.812 170.429C208.8 170.091 208.803 169.715 209.035 169.47C209.259 169.232 209.62 169.202 209.947 169.187C248.385 167.43 286.877 166.826 325.351 167.377C326.799 207.753 325.923 248.212 322.728 288.488C285.515 286.988 248.236 285.488 211.049 287.51M214.184 283.767C249.366 281.807 284.638 283.357 319.839 284.908C323.092 247.006 323.936 208.899 322.364 170.891C285.568 170.526 248.763 171.179 212.003 172.849C212.987 209.816 213.715 246.79 214.184 283.767L214.184 283.767Z" fill="#00160A"/>
<path fill-rule="evenodd" clip-rule="evenodd" d="M148.043 163.276C165.686 162.469 183.328 161.662 200.97 160.856C199.768 137.672 198.565 114.488 197.363 91.3037C197.334 90.7461 197.324 90.1276 197.688 89.704C198.257 89.0408 199.426 89.3183 199.951 90.0169C200.477 90.7156 200.539 91.6467 200.582 92.5198C201.752 116.418 202.922 140.316 204.091 164.214C191.895 165.02 179.699 165.826 167.503 166.632C160.785 167.076 153.414 167.337 148.043 163.276V163.276Z" fill="#00160A"/>
<path fill-rule="evenodd" clip-rule="evenodd" d="M319.505 417.894C318.358 418.354 317.667 416.613 317.658 415.377C317.341 375.35 317.797 335.317 319.024 295.308C283.906 295.529 248.787 295.75 213.669 295.971C214.276 337.097 214.883 378.222 215.49 419.348C215.498 419.883 215.478 420.487 215.086 420.851C214.011 421.853 212.76 419.792 212.722 418.323C211.653 376.807 211.024 335.279 210.837 293.75C247.745 293.472 284.654 293.194 321.562 292.916C321.15 333.925 320.738 374.935 320.326 415.945C320.318 416.695 320.202 417.615 319.505 417.894V417.894Z" fill="#00160A"/>
<path fill-rule="evenodd" clip-rule="evenodd" d="M417.869 158.695C388.814 159.262 359.758 159.828 330.703 160.395C331.558 137.274 331.39 114.115 330.201 91.0088C330.17 90.403 330.167 89.717 330.6 89.2923C331.771 88.1438 333.229 90.4052 333.313 92.0433C334.421 113.657 334.663 135.316 334.038 156.949C363.943 155.6 393.893 155.243 423.822 155.88C423.2 158.161 420.232 158.649 417.869 158.695V158.695Z" fill="#00160A"/>
<path fill-rule="evenodd" clip-rule="evenodd" d="M401.11 291.616C402.971 291.585 405.635 292.689 404.822 294.362C379.92 294.184 355.015 294.597 330.133 295.601C327.556 333.946 326.912 372.42 328.205 410.83C328.293 413.454 328.363 416.211 327.161 418.545C326.446 419.427 325.343 417.863 325.305 416.729C323.906 375.646 324.656 334.49 327.549 293.486C352.064 292.648 376.585 292.024 401.11 291.616Z" fill="#00160A"/>
<path fill-rule="evenodd" clip-rule="evenodd" d="M388.865 112.597C389.424 113.491 389.244 114.694 388.697 115.596C388.15 116.497 387.297 117.162 386.462 117.807C378.943 123.612 371.424 129.418 363.904 135.224C363.234 135.741 362.465 136.288 361.625 136.181C360.785 136.075 360.157 134.88 360.823 134.357C368.79 128.109 376.757 121.86 384.724 115.612C386.069 114.558 387.416 113.501 388.865 112.597Z" fill="#E7EAEE"/>
<path fill-rule="evenodd" clip-rule="evenodd" d="M374.739 335.997C374.982 336.689 374.433 337.386 373.926 337.916C368.676 343.396 363.427 348.876 358.177 354.357C357.538 355.024 356.797 355.738 355.874 355.758C354.95 355.778 354.084 354.585 354.723 353.918C360.284 348.116 365.845 342.313 371.407 336.511C371.877 336.021 372.377 335.511 373.026 335.313C373.676 335.114 374.514 335.355 374.739 335.997V335.997Z" fill="#E7EAEE"/>
<path fill-rule="evenodd" clip-rule="evenodd" d="M365.085 323.686C360.624 327.6 356.163 331.513 351.702 335.426C352.779 335.137 353.393 336.938 352.593 337.715C351.793 338.491 350.486 338.359 349.434 337.99C349.127 337.882 348.816 337.753 348.586 337.523C347.696 336.634 348.568 335.152 349.44 334.246C353.816 329.697 358.526 325.469 363.519 321.607C364.232 321.055 365.318 320.528 365.936 321.185C366.614 321.906 365.829 323.034 365.085 323.686Z" fill="#E7EAEE"/>
<path fill-rule="evenodd" clip-rule="evenodd" d="M162.227 356.123C161.639 355.199 162.686 354.122 163.594 353.508C168.728 350.037 173.366 345.832 177.323 341.061C177.864 340.409 178.445 339.711 179.259 339.478C180.074 339.245 181.147 339.765 181.124 340.612C181.111 341.067 180.801 341.453 180.504 341.798C175.976 347.056 170.832 351.784 165.212 355.855C164.3 356.516 162.831 357.074 162.227 356.123V356.123Z" fill="#E7EAEE"/>
<path fill-rule="evenodd" clip-rule="evenodd" d="M157.73 396.035C156.934 396.112 156.403 395.092 156.632 394.326C156.86 393.559 157.545 393.034 158.187 392.556C167.604 385.547 176.114 377.321 183.439 368.147C184.019 367.42 185.327 368.129 185.425 369.054C185.523 369.98 184.898 370.81 184.302 371.524C176.76 380.565 168.105 388.676 158.594 395.616C158.332 395.807 158.053 396.004 157.73 396.035V396.035Z" fill="#E7EAEE"/>
<path fill-rule="evenodd" clip-rule="evenodd" d="M343.62 117.766C342.799 116.719 343.908 115.278 344.931 114.428C347.555 112.247 350.179 110.066 352.803 107.886C353.73 107.115 355.395 106.482 355.887 107.582C356.229 108.348 355.526 109.15 354.889 109.695C352.286 111.923 349.683 114.151 347.081 116.378C346.094 117.223 344.868 118.125 343.62 117.766L343.62 117.766Z" fill="#E7EAEE"/>
<path fill-rule="evenodd" clip-rule="evenodd" d="M165.771 337.167C167.806 334.729 169.977 332.405 172.269 330.208C172.847 329.654 173.614 329.066 174.368 329.335C174.667 329.442 174.914 329.685 175.026 329.982C175.312 330.742 174.717 331.526 174.164 332.12C172.324 334.099 170.484 336.078 168.643 338.057C168.135 338.604 167.581 339.178 166.852 339.344C166.124 339.509 165.209 339.041 165.209 338.294C165.21 337.865 165.496 337.496 165.771 337.167Z" fill="#E7EAEE"/>
<path fill-rule="evenodd" clip-rule="evenodd" d="M358.879 381.399C358.574 381.564 358.22 381.721 357.892 381.61C357.082 381.334 357.498 380.109 358.045 379.452C363.47 372.932 368.913 366.393 375.114 360.608C378.036 357.882 381.118 355.332 384.197 352.785C387.537 350.021 390.878 347.257 394.218 344.493C394.678 344.112 395.239 343.707 395.817 343.857C397.121 344.197 396.343 346.193 395.34 347.093C386.457 355.06 376.214 361.663 368.788 371.002C365.785 374.78 363.124 379.103 358.879 381.399Z" fill="#E7EAEE"/>
<path fill-rule="evenodd" clip-rule="evenodd" d="M165.932 64.5862C151.249 72.2476 130.897 65.7361 123.388 50.9747C134.829 54.1897 144.555 65.6942 156.142 63.0571C165.011 61.0388 170.242 51.3553 178.826 48.3497C188.065 45.1148 197.818 50.4276 206.85 54.203C215.881 57.9785 228.213 59.4159 233.765 51.3536C238.615 44.3099 249.471 47.2206 257.266 50.7397C265.06 54.2587 276.174 56.7237 280.543 49.3719C284.476 42.7531 294.262 42.9821 301.423 45.8126C308.583 48.6432 315.515 53.2914 323.195 52.7533C336.221 51.8407 347.572 36.2852 359.465 41.6751C363.129 43.3356 365.753 46.7677 369.4 48.4649C381.716 54.1967 398.511 38.1178 408.45 47.3794C413.859 52.4206 422.539 49.4807 429.269 46.4173C435.999 43.3539 444.943 40.8093 449.941 46.2587C445.722 56.0784 445.29 67.0466 444.92 77.7279C440.874 194.495 436.828 311.263 432.781 428.03C430.054 427.595 429.454 423.982 429.516 421.22C431.13 349.493 432.744 277.766 434.358 206.039C435.502 155.215 436.645 104.391 437.889 53.5694C432.728 49.8104 426.619 57.4138 420.301 58.3385C414.498 59.188 409.604 54.2072 404.012 52.4379C391.491 48.4763 376.561 60.8045 365.63 53.5247C362.689 51.5667 360.596 48.3974 357.379 46.9401C352.134 44.5649 346.029 47.5717 341.59 51.2383C337.151 54.9049 333.036 59.4706 327.445 60.8462C314.972 63.9154 303.63 49.6632 290.89 51.3061C283.731 52.2292 278.286 57.916 272.08 61.6019C265.874 65.2879 256.263 66.147 252.827 59.7995C248.995 52.7203 236.97 52.5845 232.979 59.5753C228.713 67.0488 217.512 66.1471 209.755 62.421C201.998 58.695 194.293 53.0099 185.762 54.1407C178.295 55.1305 172.611 61.1016 165.932 64.5862V64.5862Z" fill="#00160A"/>
<path fill-rule="evenodd" clip-rule="evenodd" d="M352.085 123.406C352.171 123.212 352.328 123.06 352.482 122.914C357.93 117.733 363.378 112.551 368.826 107.369C369.117 107.092 369.455 106.796 369.857 106.809C370.425 106.827 370.791 107.491 370.71 108.053C370.63 108.615 370.247 109.08 369.876 109.51C365.386 114.713 360.439 119.52 355.11 123.859C354.56 124.306 353.948 124.771 353.239 124.776C352.53 124.781 351.8 124.056 352.085 123.406V123.406Z" fill="#E7EAEE"/>
<path fill-rule="evenodd" clip-rule="evenodd" d="M266.705 192.258C259.604 199.553 252.443 206.839 246.327 214.977C240.902 222.195 236.244 230.141 229.427 236.063C229.118 236.331 228.728 236.613 228.336 236.497C227.582 236.272 227.892 235.135 228.349 234.496C239.544 218.821 251.734 203.857 264.821 189.723C265.795 188.672 266.984 187.538 268.412 187.655C269.248 189.202 267.932 190.997 266.705 192.258Z" fill="#E7EAEE"/>
<path fill-rule="evenodd" clip-rule="evenodd" d="M220.812 201.721C220.156 201.122 220.7 200.049 221.258 199.358C225.524 194.078 229.79 188.798 234.056 183.519C234.504 182.964 234.99 182.382 235.666 182.156C236.343 181.929 237.249 182.242 237.384 182.942C237.483 183.463 237.141 183.956 236.817 184.376C232.447 190.032 227.897 195.548 223.174 200.913C222.558 201.613 221.501 202.351 220.812 201.721H220.812Z" fill="#E7EAEE"/>
<path fill-rule="evenodd" clip-rule="evenodd" d="M271.567 210.631C272.133 211.525 271.174 212.582 270.337 213.228C259.143 221.86 252.355 235.135 241.521 244.213C241.056 244.603 240.458 245.009 239.889 244.796C238.763 244.375 239.533 242.677 240.408 241.853C250.549 232.307 257.773 219.877 268.524 211.023C269.423 210.283 270.944 209.648 271.567 210.631V210.631Z" fill="#E7EAEE"/>
<path fill-rule="evenodd" clip-rule="evenodd" d="M92.4186 15.3316C108.923 156.272 90.3774 299.256 102.342 440.654C221.24 436.6 340.254 435.962 459.188 438.741C463.962 438.852 465.588 432.472 465.666 427.698C467.967 287.147 470.268 146.597 472.569 6.04641C369.588 8.67679 266.606 11.3072 163.624 13.9376C142.296 14.4823 120.797 15.0152 99.7859 11.3085C222.993 6.05981 346.263 2.29445 469.561 0.0134658C472.198 -0.0353292 475.113 0.0141586 477.074 1.77868C479.304 3.78547 479.42 7.18258 479.372 10.1825C476.95 162.179 474.527 314.175 472.104 466.172C471.872 480.751 476.111 482.682 489.506 505.544C502.901 528.405 495.887 560.827 495.887 560.827C495.887 560.827 502.901 562.667 506.876 563.311C514.676 564.575 522.419 561.381 530.223 560.143C538.028 558.905 547.641 560.667 550.792 567.912C485.386 571.06 419.885 571.595 354.405 572.129C243.937 573.03 133.468 573.932 23 574.833C37.0817 569.575 52.1158 566.879 67.1473 566.916C58.9932 548.83 61.9101 526.262 74.3945 510.843C82.1451 501.271 93.8712 492.711 93.6154 480.397C90.3954 325.399 89.9964 170.344 92.4186 15.3316ZM353.169 526.537C315.702 525.686 278.433 534.947 241.02 532.767C225.687 531.873 210.504 529.063 195.159 528.405C182.29 527.854 169.41 528.821 156.565 529.788C128.792 531.878 101.019 533.968 73.2459 536.058C71.9252 536.158 70.4188 536.36 69.6808 537.459C69.1116 538.308 69.1983 539.419 69.307 540.435C70.0881 547.735 70.8692 555.035 71.6503 562.335C71.8213 563.933 72.1 565.725 73.4032 566.665C74.388 567.376 75.695 567.392 76.9093 567.381C87.3456 567.282 97.7819 567.183 108.218 567.085C234.365 565.894 360.512 564.703 486.659 563.512C487.941 563.5 489.352 563.439 490.292 562.568C491.227 561.7 491.398 560.307 491.511 559.037C492.303 550.139 493.095 541.242 493.886 532.345C462.776 534.202 431.521 533.617 400.502 530.597C384.736 529.062 369.005 526.897 353.169 526.537ZM215.031 522.946C258.248 530.068 302.3 519.995 346.1 519.831C393.348 519.654 440.691 531.021 487.509 524.659C488.92 524.468 490.526 524.129 491.212 522.882C491.984 521.476 491.149 519.76 490.328 518.382C485.705 510.616 481.081 502.85 476.458 495.084C473.718 490.481 469.927 485.277 464.576 485.518C345.364 490.889 225.716 483.974 106.726 493.015C105.387 493.191 104.097 491.789 104.383 490.47C93.9079 503.485 82.5741 515.809 70.4797 527.335C118.594 531.993 167.335 515.086 215.031 522.946ZM335.574 443.472C323.201 443.712 310.865 444.832 298.518 445.679C256.653 448.553 214.637 448.3 172.68 447.518C148.538 447.069 124.399 446.445 100.26 445.822C98.8284 453.593 97.4052 461.671 99.4368 469.307C101.468 476.943 108.021 483.991 115.922 483.865C232.095 482.016 348.269 480.167 464.442 478.318C464.753 470.489 465.064 462.661 465.374 454.832C465.441 453.147 465.414 451.225 464.161 450.096C463.187 449.218 461.765 449.106 460.456 449.038C431.183 447.527 401.911 446.016 372.639 444.506C360.293 443.868 347.934 443.231 335.574 443.472Z" fill="#00160A"/>
</svg>
