<svg width="638" height="445" viewBox="0 0 638 445" fill="none" xmlns="http://www.w3.org/2000/svg">
<path fill-rule="evenodd" clip-rule="evenodd" d="M553.155 368.814C695.34 186.175 673.36 48.5752 358.952 4.4162C44.5431 -39.7428 -17.2637 260.742 14.0766 306.028C45.417 351.314 410.97 551.453 553.155 368.814Z" fill="#20BF6B"/>
<path fill-rule="evenodd" clip-rule="evenodd" d="M431.175 149.21C426.898 153.636 422.651 158.106 418.135 162.279C415.029 165.149 411.705 167.918 408.077 170.048C404.734 172.009 400.967 173.591 397.187 174.382C392.887 175.282 398.681 232.01 367.506 252.515C356.629 259.669 314.068 256.536 307.612 251.093C306.471 250.131 309.62 238.456 309.34 233.753C309.232 231.937 308.44 230.079 307.612 228.413C306.89 226.957 305.482 226.736 303.882 227.338C299.888 228.838 295.807 230.112 291.861 231.723C290.364 232.334 289.189 233.695 287.784 234.583C285.015 236.332 282.23 238.067 279.354 239.627C278.701 239.982 277.649 239.604 276.781 239.563C277.224 238.922 277.537 235.903 273.27 238.14C265.001 242.475 258.859 249.092 253.554 256.536C250.189 261.258 247.194 266.246 244.079 271.144C243.915 271.401 238.006 280.135 234.686 279.417C232.573 278.959 233.408 268.14 231.31 269.96C223.229 276.97 206.543 282.925 205.307 282.292C203.199 281.211 203.011 278.361 204.056 276.403C206.249 272.296 208.468 268.045 211.508 264.584C216.599 258.785 222.178 253.383 227.846 248.131C236.186 240.405 244.647 232.795 253.34 225.47C256.951 222.428 261.276 220.227 265.321 217.715C265.747 217.45 266.473 217.67 267.06 217.665C266.929 218.049 266.722 218.612 266.44 219.355C269.617 219.709 270.291 218.34 268.462 215.247C267.053 212.866 265.612 210.488 266.071 207.677C266.621 204.301 269.869 201.765 273.612 201.677C275.537 201.632 277.47 202.149 279.408 202.313C280.276 202.386 281.393 202.54 282.009 202.106C288.098 197.819 293.891 193.074 300.19 189.134C307.968 184.269 315.952 179.637 324.223 175.691C329.65 173.1 335.733 171.872 341.544 170.103C342.707 169.748 344.015 169.855 345.164 169.474C345.942 169.215 346.897 168.617 347.19 167.925C348.568 164.672 351.088 162.91 354.263 161.726C355.116 161.407 356.087 160.62 356.417 159.809C358.734 154.126 360.917 148.389 363.04 142.631C363.136 142.372 362.17 141.306 361.827 141.365C358.839 141.879 356.287 141.644 354.907 138.408C354.795 138.145 354.147 138.074 353.733 137.981C348.325 136.766 346.176 130.584 349.584 126.237C349.969 125.746 350.106 124.497 349.768 124.091C347.298 121.124 347.122 117.523 347.786 114.204C348.227 112.003 350.213 110.023 351.772 108.166C352.788 106.954 353.216 106.262 352.321 104.614C351.225 102.593 349.841 100.684 350.257 97.848C351.094 92.1396 352.161 91.0807 358.392 89.3433C360.098 88.8674 360.682 88.2755 360.945 86.5596C362.232 78.1721 364.197 75.0545 372.735 72.6563C375.626 71.8442 378.37 72.0268 381.195 73.1769C382.084 73.5386 383.642 73.0604 384.541 72.4487C388.073 70.0462 391.629 68.4576 396.073 69.7981C397.127 70.1159 398.695 69.4999 399.762 68.8674C403.895 66.4177 408.13 65.2661 412.794 67.1368C413.505 67.4219 414.137 67.9016 414.844 68.2006C416.256 68.7982 417.672 69.7353 419.128 69.8201C424.002 70.1041 427.86 71.5987 429.607 76.6547C429.787 77.1767 431.037 77.3872 431.825 77.6297C433.711 78.21 435.727 78.4883 437.49 79.3152C440.61 80.7779 441.06 82.383 440.081 85.7446C439.684 87.1049 438.788 88.6789 441.745 88.8335C444.65 88.9854 445.716 91.0085 446.224 94.124C446.411 95.274 447.392 96.7203 448.412 97.2339C452.497 99.2904 453.019 100.107 452.239 104.855C452.138 105.472 452.2 106.136 452.296 106.762C452.613 108.836 453.182 110.893 453.284 112.974C453.451 116.411 453.329 119.862 453.329 123.584C452.097 128.399 443.641 134.467 437.49 140.452C434.405 143.454 432.251 148.096 431.175 149.21Z" fill="white"/>
<path d="M416.5 153C418.985 153 421 151.209 421 149C421 146.791 418.985 145 416.5 145C414.015 145 412 146.791 412 149C412 151.209 414.015 153 416.5 153Z" fill="#FFB61D"/>
<path d="M381.5 142C383.985 142 386 140.433 386 138.5C386 136.567 383.985 135 381.5 135C379.015 135 377 136.567 377 138.5C377 140.433 379.015 142 381.5 142Z" fill="#FFB61D"/>
<path fill-rule="evenodd" clip-rule="evenodd" d="M448.348 221.994C449.025 221.294 449.6 220.16 450.397 219.973C453.032 219.353 455.501 220.343 457.055 222.363C459.039 224.942 460.846 227.788 462.006 230.798C462.296 231.55 461.661 233.047 460.101 235.289C461.795 236.361 462.822 237.041 463.182 237.328C466.958 240.344 470.645 243.478 474.269 246.676C477.135 249.204 479.868 251.882 482.67 254.482C482.958 254.75 483.317 254.942 483.643 255.17C483.87 254.711 484.311 254.241 484.289 253.794C484.189 251.805 483.81 249.823 483.812 247.838C483.815 245.793 484.385 243.736 484.284 241.705C483.826 232.52 483.124 223.347 482.704 214.161C482.484 209.371 484.997 206.154 489.531 204.378C495.082 202.204 500.786 200.868 506.749 200.499C514.182 200.038 521.611 198.909 529.03 199.002C536.481 199.095 543.917 200.348 551.362 201.069C555.449 201.465 559.542 201.81 563.632 202.182C571.721 202.918 579.823 203.543 587.886 204.501C589.331 204.673 590.964 205.964 591.902 207.199C594.697 210.879 595.963 215.091 596.234 219.808C596.531 224.971 597.653 230.082 598.328 235.227C598.63 237.534 598.791 239.865 598.888 242.191C599.288 251.815 599.996 261.446 599.861 271.064C599.791 276.051 598.232 281.023 597.273 285.987C596.745 288.715 594.595 289.768 592.197 290.152C587.928 290.836 583.615 291.249 579.332 291.857C553.614 295.509 527.736 293.471 501.933 294.117C490.91 294.394 480.973 291.467 471.476 286.048C466.664 283.302 462.654 280.129 461.365 274.604C460.756 271.992 460.152 268.992 462.665 266.812C463.324 266.239 464.384 266.067 465.295 265.878C465.613 265.813 466.036 266.253 466.41 266.462C466.219 266.788 466.102 267.207 465.826 267.425C463.818 269.011 464.044 270.362 465.865 272.068C470.713 276.61 476.755 279.039 482.572 281.883C483.108 282.145 483.654 282.395 484.215 282.591C484.574 282.716 485.167 282.914 485.311 282.759C485.608 282.44 485.797 281.908 485.805 281.46C485.813 280.965 485.376 280.429 485.462 279.974C486.221 275.989 483.882 274.519 480.707 272.857C471.661 268.12 462.863 262.908 453.962 257.893C451.801 256.675 449.585 256.006 447.179 257.291C446.813 257.486 446.327 257.522 445.897 257.522C435.196 257.534 424.493 257.671 413.796 257.486C405.735 257.347 397.684 256.683 389.623 256.453C379.187 256.155 362.522 253.478 365.614 253.652C366.164 253.683 366.804 253.82 367.244 253.596C367.639 253.395 367.816 252.765 368.089 252.325C367.683 252.216 367.189 251.899 366.886 252.029C364.35 253.117 364.895 251.983 365.145 250.147C365.853 244.959 366.381 239.84 364.932 234.514C363.796 230.335 364.991 225.871 366.535 221.73C368.083 217.575 369.706 213.447 371.187 209.269C371.46 208.5 371.21 207.546 371.202 206.678C370.561 207.089 369.937 207.529 369.275 207.903C368.522 208.327 367.736 208.692 366.964 209.082C366.97 208.126 366.69 207.05 367.029 206.232C369.183 201.036 371.538 195.923 373.666 190.716C374.087 189.687 373.832 188.372 373.846 187.188C373.858 186.136 373.564 185.016 373.83 184.041C374.898 180.132 377.245 179.053 381.317 180.24C385.255 181.387 386.725 183.414 390.755 180.587C391.411 180.127 392.2 179.677 392.568 179.021C393.418 177.506 394.555 175.892 396.228 176.851C397.532 177.599 398.806 179.471 398.935 180.945C399.13 183.184 400.038 183.427 401.847 183.385C408.822 183.225 414.372 186.675 419.49 190.835C423.486 194.083 427.359 197.528 430.956 201.209C435.633 205.993 449.009 222.216 448.348 221.994Z" fill="white"/>
<path fill-rule="evenodd" clip-rule="evenodd" d="M550.371 231.25L550.826 231.303C551.474 231.379 552.003 230.875 552.008 230.176C552.012 229.478 551.494 228.851 550.85 228.775L550.397 228.722C549.05 228.563 547.803 228.937 546.818 229.687C546.153 227.422 544.279 225.628 542.04 225.363L538.969 225L538.807 229.084C538.683 232.176 540.948 234.965 543.854 235.3L544.624 235.389L544.561 237.943C543.695 237.2 542.639 236.7 541.491 236.568C538.469 236.221 535.89 238.544 535.743 241.747C535.726 242.112 535.741 242.473 535.786 242.828C533.219 243.083 531.169 245.212 531.01 248.016C530.851 250.819 532.684 253.382 535.265 254.211C535.186 254.552 535.137 254.906 535.12 255.271C534.991 258.074 536.88 260.637 539.509 261.466C539.433 261.807 539.387 262.16 539.374 262.526C539.261 265.729 541.822 268.618 545.083 268.966C548.344 269.313 551.019 266.99 551.045 263.787C551.048 263.421 551.018 263.061 550.957 262.706C553.609 262.451 555.601 260.322 555.594 257.518C555.593 257.153 555.56 256.792 555.496 256.437C558.101 256.183 560.036 254.053 560 251.25C559.963 248.446 558.014 245.883 555.471 245.054C555.532 244.713 555.562 244.36 555.561 243.995C555.554 240.791 553.089 237.902 550.067 237.555C548.919 237.423 547.847 237.677 546.952 238.217L547.024 234.399C547.061 232.452 548.562 231.039 550.371 231.25ZM541.002 228.537L541.061 227L541.907 227.088C543.659 227.27 545.046 228.784 544.999 230.463L544.956 232L544.1 231.912C542.328 231.73 540.938 230.216 541.002 228.537ZM552 243.401C551.999 243.774 551.934 244.122 551.811 244.441C550.678 244.616 549.686 245.176 548.967 246C548.268 245.02 547.291 244.244 546.165 243.82C546.05 243.474 545.993 243.112 546.001 242.739C546.033 241.056 547.394 239.835 549.035 240.018C550.676 240.201 552.006 241.718 552 243.401ZM544.933 251.982C543.267 251.804 541.951 250.321 542.001 248.676C542.052 247.032 543.427 245.839 545.068 246.018C546.708 246.196 548.024 247.679 548 249.324C547.976 250.968 546.6 252.161 544.933 251.982ZM542.103 238.018C543.742 238.201 545.042 239.718 544.999 241.401C544.989 241.781 544.919 242.124 544.788 242.441C543.649 242.616 542.643 243.176 541.903 244C541.224 243.02 540.263 242.244 539.145 241.82C539.036 241.473 538.987 241.111 539.003 240.739C539.072 239.056 540.463 237.835 542.103 238.018ZM534.004 247.676C534.09 246.032 535.494 244.839 537.134 245.018C538.773 245.196 540.058 246.679 539.998 248.324C539.938 249.968 538.534 251.161 536.868 250.982C535.203 250.804 533.918 249.321 534.004 247.676ZM537.23 253.559C538.364 253.384 539.365 252.824 540.095 252C540.768 252.979 541.725 253.756 542.841 254.18C542.954 254.527 543.008 254.888 542.999 255.261C542.958 256.944 541.568 258.165 539.902 257.982C538.236 257.799 536.935 256.282 537.003 254.599C537.017 254.227 537.095 253.879 537.23 253.559ZM542.001 262.599C542.012 262.225 542.085 261.878 542.216 261.559C543.348 261.384 544.342 260.824 545.063 260C545.746 260.979 546.711 261.756 547.83 262.18C547.947 262.527 548.005 262.889 548 263.261C547.977 264.944 546.602 266.165 544.935 265.982C543.269 265.799 541.953 264.282 542.001 262.599ZM548.966 259.982C547.299 259.799 545.969 258.282 546.001 256.599C546.008 256.219 546.075 255.876 546.203 255.559C547.333 255.384 548.32 254.824 549.033 254C549.725 254.979 550.697 255.756 551.819 256.18C551.939 256.527 552.001 256.889 552 257.261C551.994 258.944 550.633 260.165 548.966 259.982ZM553.998 252.982C552.331 252.804 550.986 251.321 551 249.676C551.014 248.032 552.361 246.839 554.002 247.018C555.643 247.196 556.988 248.679 557 250.324C557.012 251.968 555.666 253.161 553.998 252.982Z" fill="#FFB61D"/>
<path fill-rule="evenodd" clip-rule="evenodd" d="M78.0946 351.074C72.773 350.341 67.4664 349.472 62.1282 348.894C55.7312 348.201 49.2829 347.949 42.9041 347.136C38.219 346.538 33.4944 345.932 29.4679 342.828C26.0722 340.21 25.4322 336.413 28.4813 333.423C30.0898 331.845 31.8063 330.371 33.5443 328.936C33.9564 328.595 34.651 328.597 35.2156 328.441C35.1421 328.648 70.8296 265.786 105.133 260.933C139.436 256.08 256.075 265.967 254.207 265.788C253.394 265.71 252.636 265.048 251.853 264.655C252.701 264.126 253.553 263.133 254.397 263.139C263.177 263.208 271.955 263.584 280.733 263.581C289.881 263.578 299.028 263.105 308.176 263.108C317.692 263.111 327.215 263.28 336.723 263.673C343.7 263.962 350.662 264.663 357.62 265.3C364.793 265.956 371.95 266.783 379.119 267.489C386.11 268.176 391.922 275.967 389.039 282.308C387.726 285.197 385.551 287.702 383.704 290.338C379.442 296.419 375.078 302.43 370.874 308.551C366.15 315.43 361.178 322.179 357.011 329.387C352.804 336.664 346.795 342.252 341.223 348.273C337.54 352.252 333.427 355.837 329.785 359.851C326.402 363.578 321.999 364.812 317.408 365.394C312.066 366.072 306.653 366.187 301.273 366.578C296.536 366.923 291.79 367.719 287.068 367.589C279.079 367.368 271.102 366.622 263.127 366.004C256.985 365.529 250.849 364.971 244.721 364.344C238.194 363.676 231.681 362.87 225.159 362.153C223.027 361.919 220.888 361.732 218.747 361.602C215.136 361.381 211.523 361.152 207.908 361.053C199.592 360.823 191.273 360.698 182.956 360.473C178.603 360.355 174.252 360.151 169.903 359.923C163.505 359.586 157.102 359.303 150.717 358.796C142.896 358.176 135.095 357.304 127.279 356.626C122.089 356.175 116.877 355.967 111.692 355.474C107.385 355.064 103.102 354.396 98.5322 353.843C91.5351 352.92 84.8144 352 78.0946 351.074Z" fill="white"/>
<path fill-rule="evenodd" clip-rule="evenodd" d="M136.724 83.732C136.54 80.5802 136.175 77.7032 136.205 74.8304C136.289 67.0342 138.912 33.3094 139.158 25.5162C139.179 24.8303 223.989 24.395 224.479 23.9764C224.846 23.6634 225.397 23.4917 225.891 23.4138C232.316 22.4013 238.691 21.9335 245.191 23.308C249.269 24.1704 253.536 24.1394 257.718 24.5066C264.037 25.0614 270.367 25.5207 276.672 26.2081C279.672 26.5352 281.317 29.6229 281.236 33.4002C281.178 36.1173 281.499 38.8494 281.758 41.5645C282.061 44.7384 282.622 47.8923 282.821 51.0705C283.28 58.383 283.526 65.7089 283.988 73.0212C284.16 75.7401 285.108 78.4569 284.973 81.1379C284.729 85.9936 283.948 90.8231 283.37 95.6608C283.034 98.4663 282.4 101.262 282.345 104.07C282.2 111.538 282.363 119.012 282.272 126.482C282.213 131.388 282.149 136.312 281.677 141.189C281.249 145.617 280.155 149.977 279.589 154.398C279.393 155.933 280.078 157.561 280.049 159.141C279.953 164.323 279.569 169.504 279.593 174.684C279.604 177.058 277.559 177.523 276.52 177.633C271.763 178.136 267.274 179.987 262.294 179.602C254.379 178.991 246.407 179.06 238.458 178.969C235.862 178.939 233.249 179.566 230.666 179.441C221.758 179.011 212.859 178.391 203.958 177.821C201.818 177.684 199.685 177.329 197.546 177.295C183.234 177.071 168.916 177.081 154.613 176.625C149.637 176.467 144.631 175.712 140.169 172.801C136.675 170.522 134.873 167.271 134.615 163.516C134.083 155.777 133.927 147.994 134.018 140.234C134.107 132.636 134.634 125.04 135.091 117.45C135.299 113.996 135.985 110.567 136.125 107.114C136.31 102.57 136.103 98.0119 136.194 93.4626C136.257 90.309 136.54 87.1599 136.724 83.732Z" fill="white"/>
<path fill-rule="evenodd" clip-rule="evenodd" d="M308.176 263.108C317.692 263.111 327.215 263.28 336.723 263.673C343.7 263.962 350.662 264.663 357.62 265.3C364.793 265.956 371.95 266.783 379.119 267.489C386.11 268.176 391.922 275.967 389.039 282.308C387.726 285.197 385.551 287.702 383.704 290.338C379.442 296.419 375.078 302.43 370.874 308.551C366.15 315.43 361.178 322.179 357.011 329.387C352.804 336.664 346.795 342.252 341.223 348.273C337.54 352.252 333.427 355.837 329.785 359.851C326.402 363.578 321.999 364.812 317.408 365.394C312.066 366.072 306.653 366.187 301.273 366.578C296.536 366.923 291.79 367.719 287.068 367.589C279.079 367.368 271.102 366.622 263.127 366.004C256.985 365.529 250.849 364.971 244.721 364.344C238.194 363.676 231.681 362.87 225.159 362.153C223.027 361.919 220.888 361.732 218.747 361.602C215.136 361.381 211.523 361.152 207.908 361.053C199.592 360.823 191.273 360.698 182.956 360.473C178.603 360.355 174.252 360.151 169.903 359.923C163.505 359.586 157.102 359.303 150.717 358.796C142.896 358.176 135.095 357.304 127.279 356.626C122.089 356.175 116.877 355.967 111.692 355.474C107.385 355.064 103.102 354.396 98.5322 353.843C91.5351 352.92 84.8144 352.001 78.0946 351.074C72.773 350.341 67.4664 349.472 62.1281 348.894C55.7312 348.201 49.2829 347.949 42.9041 347.136L41.997 347.019C37.6122 346.449 33.2346 345.732 29.4679 342.828C26.0721 340.21 25.4322 336.413 28.4813 333.423C30.0898 331.845 31.8063 330.371 33.5443 328.936C33.9564 328.596 34.651 328.597 35.2156 328.441C35.0341 328.952 34.9845 329.583 34.6479 329.952C33.2973 331.434 31.6733 332.698 30.4905 334.295C28.2333 337.342 28.8151 340.087 32.3897 341.577C35.6139 342.92 39.1011 343.869 42.562 344.361C50.6338 345.509 58.7635 346.245 66.8622 347.212C72.559 347.892 78.2384 348.717 83.9348 349.4C87.6469 349.846 91.3696 350.244 95.099 350.487C97.2852 350.629 98.5742 348.646 97.6662 346.635C93.7445 337.95 84.5158 330.59 73.4016 332.35C67.6551 333.26 63.5402 336.969 60.8539 342.202C60.4319 343.024 59.4799 343.574 58.773 344.25C58.7419 343.124 58.2853 341.77 58.7475 340.909C62.2524 334.383 67.5176 330.235 75.1065 329.483C75.5356 329.44 76.2113 329.447 76.3412 329.202C77.6261 326.781 80.404 325.237 80.2967 321.976C80.1234 316.71 82.4182 312.923 87.2278 310.5C88.5402 309.839 89.6566 308.301 90.3096 306.907C92.6595 301.888 96.1956 298.696 101.948 298.504C103.158 298.464 104.372 298.581 105.585 298.626C104.409 299.343 103.287 300.176 102.045 300.751C100.27 301.573 98.2673 301.976 96.6159 302.978C94.5076 304.256 92.7747 305.963 93.4783 308.932C93.5878 309.395 92.8585 310.272 92.3054 310.635C90.4366 311.861 88.4748 312.945 86.5442 314.076C83.3814 315.93 83.1035 319.24 82.5429 322.32C82.3434 323.416 82.6447 324.38 84.4509 323.476C87.9443 321.729 91.6197 323.551 94.2033 326.806C96.2075 329.332 97.9518 331.888 98.6355 334.954C99.0367 336.753 98.7457 338.761 98.4759 340.634C98.3125 341.768 99.7601 346.328 100.812 346.352C101.694 346.372 102.661 345.785 103.47 345.275C106.8 343.178 110.236 342.122 114.22 343.265C115.557 343.649 117.272 343.906 118.387 342.538C120.76 339.625 123.998 339.332 127.357 339.477C129.005 339.548 129.415 338.584 130.418 337.478C133.077 334.549 131.029 333.599 129.146 332.082C128.127 331.261 127.291 330.129 126.632 328.987C126.352 328.502 126.738 327.632 126.821 326.937C127.267 327.238 127.781 327.473 128.147 327.851C130.894 330.692 133.905 332.971 138.037 333.439C138.764 333.521 139.379 334.6 140.045 335.218C139.239 335.362 138.388 335.745 137.635 335.604C135.468 335.198 131.795 337.55 131.844 339.746C131.863 340.584 132.877 341.847 133.708 342.136C136.459 343.093 138.372 344.833 139.439 347.439C139.771 348.25 139.476 349.318 139.467 350.269C138.815 349.785 137.982 349.428 137.54 348.797C134.36 344.263 130.06 342.016 124.519 342.241C123.852 342.268 123.145 342.49 122.548 342.799C121.869 343.15 121.293 343.7 120.672 344.164C121.282 344.438 122.015 344.579 122.482 345.009C125.051 347.368 127.548 349.806 130.086 352.2C130.89 352.959 131.676 354.188 132.587 354.307C136.928 354.875 141.305 355.199 145.677 355.488C152.161 355.916 158.653 356.231 165.141 356.615C167.741 356.769 170.335 357.062 172.937 357.148C179.962 357.379 186.989 357.514 194.014 357.724C199.104 357.876 204.207 357.906 209.278 358.314C216.273 358.878 223.243 359.754 230.226 360.48C232.268 360.693 234.313 360.889 236.361 361.032C241.926 361.42 247.505 361.648 253.055 362.183C258.234 362.682 263.377 363.55 268.549 364.143C270.565 364.374 272.616 364.295 274.65 364.36C280.385 364.543 286.119 364.787 291.855 364.879C293.712 364.909 295.603 364.672 297.421 364.285C298.009 364.16 298.748 363.219 298.849 362.563C299.805 356.38 303.204 352.214 308.993 349.985C310.608 349.363 311.206 348.876 310.64 346.743C308.924 340.276 301.777 336.564 296.264 336.162C291.52 335.816 286.882 336.301 282.991 339.47C282.069 340.22 281.348 341.211 280.503 342.061C280.085 342.482 279.597 342.832 279.14 343.215C278.901 342.576 278.266 341.662 278.488 341.345C279.631 339.707 280.702 337.72 282.332 336.775C288.036 333.469 294.15 332.107 300.645 334.471C302.029 334.974 302.927 334.882 302.792 333.022C302.578 330.068 303.651 327.563 305.503 325.275C305.862 324.832 305.779 323.608 305.417 323.069C300.906 316.361 294.432 313.144 286.469 312.918C282.861 312.816 279.02 312.161 276.138 315.38C276.047 315.481 275.162 315.158 275.15 314.996C275.088 314.161 274.919 312.737 275.282 312.565C277.354 311.585 279.538 310.336 281.738 310.22C288.763 309.851 295.638 310.816 301.49 315.151C303.45 316.604 305.141 318.542 306.589 320.526C307.804 322.19 308.449 322.703 310.606 321.537C316.603 318.294 323.066 318.133 329.525 320.158C330.195 320.368 330.52 321.679 331.004 322.479C330.212 322.454 329.361 322.609 328.635 322.377C321.909 320.227 315.521 321.58 309.599 324.771C306.783 326.288 305.576 329.481 304.951 332.731C304.526 334.944 304.935 336.215 307.057 337.544C310.173 339.496 312.132 342.719 313.239 346.244C313.804 348.044 314.883 348.586 316.444 348.281C321.987 347.2 326.885 348.849 331.406 351.821C333.22 353.015 334.339 352.711 335.66 351.168C338.652 347.67 341.654 344.168 344.862 340.872C348.961 336.66 352.348 332.005 355.448 326.996C360.208 319.305 365.534 311.963 370.671 304.508C373.35 300.62 376.184 296.837 378.795 292.906C379.01 292.584 378.223 291.064 377.611 290.815C374.925 289.725 372.191 288.588 369.364 288.048C365.034 287.22 360.624 286.747 356.227 286.343C349.087 285.687 341.924 285.274 334.782 284.636C327.424 283.98 320.085 283.123 312.727 282.464C309.127 282.142 305.505 282.03 301.89 281.896C295.972 281.677 290.052 281.509 284.133 281.336C277.476 281.141 270.814 281.054 264.163 280.748C259.88 280.55 255.607 280.086 251.343 279.623C250.738 279.557 250.205 278.821 249.639 278.395C250.227 278.083 250.819 277.493 251.403 277.5C260.828 277.626 270.253 277.799 279.676 278.031C282.37 278.097 285.055 278.463 287.749 278.55C294.866 278.781 302.006 278.657 309.098 279.193C317.042 279.794 324.937 281.01 332.864 281.864C335.909 282.191 338.991 282.157 342.039 282.458C353.19 283.559 364.497 283.529 375.343 286.89C376.554 287.266 378.002 287.659 378.762 288.541C380.186 290.193 381.027 289.44 381.92 288.241C383.434 286.206 384.854 284.102 386.361 282.061C389.339 278.024 384.024 270.325 379.205 270.142C372.482 269.886 365.797 268.736 359.085 268.067C354.451 267.605 349.806 267.132 345.155 266.98C335.642 266.67 326.123 266.555 316.607 266.393C304.6 266.19 292.593 265.936 280.586 265.872C274.944 265.842 269.302 266.301 263.658 266.351C260.508 266.378 257.348 266.089 254.207 265.788C253.394 265.71 252.636 265.048 251.853 264.655C252.701 264.126 253.553 263.133 254.397 263.139C263.177 263.208 271.955 263.584 280.733 263.581C289.881 263.578 299.028 263.106 308.176 263.108ZM301.669 360.762C301.533 365.156 301.973 364.35 305.469 364.33C306.96 364.321 308.446 363.868 309.94 363.826C317.888 363.601 325.17 361.659 330.91 355.772C331.171 355.505 330.879 354.101 330.5 353.91C328.453 352.876 326.365 351.799 324.165 351.214C316.415 349.153 305.058 351.304 301.669 360.762ZM223.43 301.316C225.633 301.914 227.664 303.128 229.851 303.811C230.817 304.113 232.246 304.171 233.013 303.661C237.136 300.919 241.289 301.559 245.607 302.979C246.956 303.422 248.505 303.211 249.92 303.504C251.509 303.832 253.312 304.033 254.548 304.937C256.179 306.132 257.312 307.993 258.738 309.492C259.333 310.119 260.067 310.867 260.847 311.025C268.447 312.568 271.379 318.163 272.856 324.889C274.361 331.745 274.804 338.651 272.908 345.546C272.743 346.147 272.886 346.832 272.886 347.754C272.333 350.844 271.812 353.665 271.211 356.468C270.942 357.721 270.747 359.096 270.072 360.123C269.586 360.863 268.362 361.12 267.467 361.592C267.32 361.239 266.978 360.835 267.055 360.542C268.041 356.808 269.246 353.125 270.073 349.358C270.842 345.855 271.348 342.28 271.735 338.711C271.975 336.492 271.985 334.203 271.73 331.988C271.372 328.876 270.719 325.793 270.108 322.715C269.267 318.48 263.009 313.149 259.253 313.451C257.832 313.565 256.636 313.625 258.089 315.668C259.183 317.206 259.536 319.288 260.112 321.161C260.2 321.447 259.705 321.911 259.479 322.293C259.149 322.014 258.747 321.788 258.502 321.449C256.912 319.255 256.483 316.219 253.638 314.933C249.73 313.167 245.922 311.433 241.371 312.814C238.492 313.689 237.244 315.255 237.456 318.157C237.496 318.707 237.599 319.312 237.424 319.803C237.241 320.319 236.76 320.729 236.409 321.186C236.022 320.765 235.414 320.397 235.298 319.912C235.111 319.127 235.248 318.265 235.248 317.435C235.248 309.93 229.055 303.827 221.552 304.081C220.607 304.113 219.692 304.883 218.755 305.293C218.308 305.489 217.844 305.643 217.388 305.816C217.378 305.187 217.107 304.367 217.403 303.959C218.87 301.939 220.881 300.624 223.43 301.316ZM254.65 335.824C255.185 335.926 255.776 335.917 256.244 336.153C257.394 336.731 258.487 337.422 259.741 338.206C261.791 341.33 263.266 344.182 261.438 347.998C259.865 351.282 259.08 354.951 258.069 358.485C257.918 359.012 258.307 359.833 258.693 360.323C258.948 360.647 259.646 360.621 260.145 360.751C259.546 360.847 258.949 361.016 258.349 361.026C255.521 361.073 254.828 360.199 255.745 357.552C256.777 354.573 258.031 351.669 259.028 348.679C260.502 344.259 259.752 341.965 256.161 339.042C255.663 338.637 255.091 338.208 254.83 337.659C254.581 337.137 254.696 336.443 254.65 335.824ZM205.679 269.2C205.443 269.591 205.295 270.093 204.959 270.357C200.452 273.902 201.177 278.799 201.762 283.491C202.577 290.015 206.298 295.11 210.728 299.671C216.296 305.403 221.906 311.102 227.693 316.61C232.713 321.388 237.944 325.951 243.216 330.453C244.686 331.708 246.626 332.412 248.356 333.36C248.729 333.565 249.247 333.634 249.485 333.934C250.286 334.943 250.99 336.027 251.732 337.082C250.787 336.795 249.852 336.469 248.896 336.226C243.72 334.909 239.744 331.535 235.951 328.139C228.679 321.63 221.465 315.016 214.728 307.966C209.907 302.922 205.699 297.245 201.611 291.567C199.24 288.271 198.945 284.162 199.259 280.109C199.295 279.644 199.171 279.166 199.121 278.694C198.617 278.937 197.904 279.044 197.643 279.446C195.427 282.849 193.506 286.465 191.072 289.698C188.895 292.587 186.19 295.08 183.696 297.728C182.696 298.79 181.333 299.631 180.663 300.861C178.785 304.303 177.233 307.922 175.457 311.422C173.113 316.038 174.927 320.291 176.782 324.351C180.111 331.637 183.646 338.909 188.842 345.05C191.957 348.732 195.948 351.672 199.543 354.948C200.013 355.377 200.468 355.823 200.931 356.261C200.347 356.378 199.756 356.624 199.182 356.586C197.379 356.467 195.581 356.25 193.784 356.044C193.599 356.022 193.323 355.85 193.279 355.694C191.518 349.478 188.076 347.881 181.701 350.771C179.679 351.687 178.075 353.532 176.292 354.967C175.935 355.255 175.677 355.82 175.301 355.897C174.527 356.053 173.704 355.966 172.9 355.979C173.224 355.338 173.446 354.613 173.889 354.069C176.794 350.51 180.398 348.185 185.092 347.721C186.074 347.624 187.574 347.871 186.093 345.782C182.38 340.545 181.42 340.002 175.46 341.963C174.246 342.362 173.067 342.869 171.733 343.326C171.08 343.142 170.553 342.984 170.056 342.759C169.871 342.675 169.756 342.436 169.609 342.267C172.209 341.221 171.271 338.608 171.413 336.94C171.686 333.751 173.491 331.479 174.693 328.831C174.984 328.192 175.065 327.302 174.88 326.627C174.04 323.574 172.742 320.612 172.221 317.515C171.324 312.175 174.22 307.795 176.466 303.267C178.558 299.047 181.743 295.908 185.159 292.739C188.286 289.838 190.545 286.002 193.18 282.573C193.93 281.597 194.658 280.603 195.396 279.618C194.217 279.452 193.035 279.301 191.859 279.115C190.826 278.952 189.799 278.595 188.768 278.59C179.085 278.549 169.395 278.782 159.72 278.505C150.166 278.231 140.62 277.541 131.084 276.849C128.612 276.67 126.175 275.853 123.756 275.203C123.209 275.057 122.803 274.386 122.333 273.957C122.924 273.648 123.546 273.029 124.101 273.085C126.543 273.329 128.956 273.85 131.396 274.125C150.208 276.243 169.099 275.781 187.975 275.823C190.482 275.829 192.996 276.091 195.49 276.377C197.336 276.589 198.232 275.712 199.003 274.184C199.817 272.57 200.813 271.013 201.953 269.613C202.425 269.033 203.455 268.808 204.275 268.652C204.693 268.572 205.208 269.001 205.679 269.2ZM268.101 331.149C268.404 331.729 268.83 332.276 268.993 332.893C270.424 338.323 268.992 343.609 268.123 348.922C267.854 350.565 267.679 352.227 267.321 353.849C267.15 354.622 266.652 355.323 266.302 356.057C265.914 355.269 265.115 354.429 265.209 353.704C265.589 350.778 266.277 347.893 266.777 344.98C266.915 344.175 266.798 343.325 266.798 342.219C266.798 339.086 266.708 336.225 266.858 333.376C266.897 332.614 267.666 331.89 268.101 331.149ZM171.456 343.326L170.979 343.732C167.636 346.574 164.356 349.525 164.347 354.613C164.347 354.911 163.573 355.489 163.197 355.46C159.353 355.162 155.518 354.767 151.68 354.392C151.335 354.359 150.995 354.272 150.652 354.21C151.001 354.088 151.342 353.918 151.702 353.85C154.693 353.284 157.694 352.768 160.676 352.159C161.394 352.012 162.053 351.573 162.739 351.268C162.155 350.897 161.532 350.161 160.996 350.219C158.8 350.46 156.589 350.792 154.463 351.379C152.339 351.966 150.34 353 148.222 353.622C147.434 353.853 146.466 353.471 145.58 353.369C146.136 352.695 146.557 351.688 147.269 351.399C152.286 349.359 157.209 346.791 162.977 348.167C163.494 348.29 164.501 347.387 164.915 346.731C166.425 344.334 168.255 342.722 171.456 343.326ZM263.866 346.76C264.106 347.12 264.585 347.513 264.541 347.834C264.368 349.111 264.03 350.366 263.615 351.767C263.348 352.403 263.294 352.939 263.068 353.387C262.872 353.775 262.481 354.064 262.175 354.396C261.899 353.907 261.31 353.349 261.4 352.94C261.802 351.111 262.365 349.313 262.953 347.531C263.059 347.209 263.552 347.014 263.866 346.76ZM108.118 345.691C105.928 346.329 103.771 347.247 101.795 348.379C100.758 348.974 98.9197 349.631 100.469 351.629C102.693 351.813 104.916 352.004 107.14 352.18C109.726 352.385 112.315 352.553 114.898 352.78C118.709 353.114 122.512 353.543 126.326 353.807C127.434 353.884 128.175 353.716 127.114 352.161C123.526 346.904 114.822 343.739 108.118 345.691ZM169.868 332.467C169.588 332.976 169.411 333.595 169.008 333.974C167.584 335.313 166.031 336.518 164.639 337.887C164.195 338.325 164.16 339.15 163.834 339.74C163.094 341.075 162.666 342.741 160.371 341.858C158.514 341.144 156.33 343.159 156.134 345.668C156.053 346.71 156.05 347.478 154.575 347.062C153.206 343.853 154.056 340.97 156.758 340.055C159.059 339.277 158.64 338.361 157.328 337.083C156.998 336.763 156.57 336.487 156.378 336.096C156.122 335.574 156.052 334.961 155.903 334.387C156.596 334.397 157.494 334.138 157.937 334.476C158.756 335.1 159.276 336.103 159.985 336.89C160.32 337.26 160.835 337.757 161.215 337.715C161.575 337.675 162.012 337.054 162.161 336.604C163.103 333.757 165.569 332.74 168.009 331.777C168.466 331.596 169.24 332.216 169.868 332.467ZM104.206 325.476C104.621 326.42 105.15 327.231 105.132 328.031C105.034 332.56 104.849 337.088 104.574 341.61C104.532 342.302 103.938 343.016 103.461 343.608C103.159 343.982 102.598 344.149 102.154 344.409C102.054 343.914 101.853 343.416 101.869 342.925L102.027 337.752C102.137 334.304 102.266 330.857 102.477 327.415C102.521 326.692 103.514 326.028 104.206 325.476ZM108.137 273.069C108.691 273.207 109.117 273.859 109.602 274.273C109.027 274.597 108.447 275.21 107.876 275.201C100.935 275.098 95.5637 278.382 90.9674 283.129C85.0129 289.278 79.2137 295.578 73.2093 301.952C71.1157 304.414 69.1271 306.711 67.2125 309.068C63.2404 313.958 59.3194 318.89 55.355 323.786C52.2303 327.645 48.9314 331.373 45.9887 335.365C44.5423 337.327 43.7473 339.765 42.6137 341.965C42.3553 342.467 41.9156 342.875 41.5593 343.326C41.1776 342.808 40.5426 342.33 40.4552 341.766C39.8889 338.116 42.3634 335.617 44.3082 333.178C51.9118 323.641 59.6451 314.202 67.5511 304.914C72.8864 298.647 78.4573 292.564 84.1794 286.647C87.9342 282.764 91.863 278.924 96.2463 275.815C99.595 273.441 103.731 271.967 108.137 273.069ZM115.027 325.227C115.248 325.688 115.639 326.14 115.664 326.612C115.894 330.954 116.102 335.299 116.2 339.645C116.215 340.312 115.641 340.992 115.34 341.666C114.719 341.019 114.049 340.411 113.505 339.705C113.327 339.474 113.477 338.99 113.477 338.345C113.477 334.752 113.468 331.436 113.485 328.12C113.488 327.5 113.443 326.802 113.706 326.285C113.94 325.827 114.571 325.572 115.027 325.227ZM176.903 330.645C176.794 330.751 176.648 330.838 176.582 330.966C175.835 332.407 175.1 333.855 174.362 335.854C174.362 336.222 174.441 336.613 174.348 336.956C174.039 338.095 173.667 339.217 173.32 340.346C174.336 340.048 175.34 339.697 176.371 339.466C177.479 339.218 178.607 338.974 179.734 338.927C181.048 338.872 181.415 338.786 180.498 337.439C179.204 335.536 178.233 333.413 177.136 331.378C177.016 331.156 176.979 330.89 176.903 330.645ZM82.2381 326.232C81.1967 326.745 80.544 328.048 79.713 328.988C80.166 329.339 80.5857 329.938 81.0772 330.004C86.6101 330.75 90.6762 333.952 94.6576 338.068C95.1767 338.471 95.6959 338.875 96.215 339.278C96.4339 338.543 96.9376 337.759 96.8215 337.081C96.3579 334.372 95.7274 331.747 93.886 329.485C91.0259 325.973 86.0542 324.355 82.2381 326.232ZM123.682 325.648C123.97 325.951 124.395 326.203 124.525 326.563C125.629 329.608 126.77 332.646 127.68 335.751C127.896 336.491 127.284 337.474 127.053 338.345C126.402 337.728 125.437 337.224 125.165 336.471C124.584 334.858 124.362 333.115 123.855 331.287C123.392 329.902 122.934 328.668 122.804 327.401C122.748 326.852 123.369 326.235 123.682 325.648ZM109.433 229.024C113.466 231.281 115.098 235.851 116.774 240.013C119.525 246.841 119.585 254.059 119.566 261.271C119.56 263.793 119.699 266.324 119.535 268.835C119.267 272.927 118.852 277.012 118.399 281.09C118.218 282.723 117.553 284.318 117.486 285.946C117.287 290.779 115.89 295.932 118.07 300.356C120.357 304.999 123.695 309.192 126.979 313.254C129.59 316.484 128.669 321.919 124.853 323.27C123.061 323.905 120.987 323.945 119.045 323.917C113.124 323.833 107.197 323.721 101.292 323.335C98.8205 323.173 96.193 322.695 94.0225 321.597C92.5874 320.872 91.4609 318.919 90.8922 317.275C90.3515 315.712 91.2123 314.391 92.8173 313.149C95.7717 310.863 98.1618 307.862 100.912 305.293C102.714 303.609 104.639 302.019 106.68 300.639C109.794 298.534 110.195 295.202 110.65 292.037C111.585 285.546 112.336 279.018 112.854 272.481C113.082 269.607 112.673 266.657 112.282 263.778C112.19 263.096 111.041 262.091 110.315 262.033C102.484 261.416 95.3687 262.994 89.1027 268.244C81.1866 274.877 73.846 281.997 67.6776 290.297C67.4104 290.656 66.9108 290.843 66.5195 291.111C66.3048 290.646 65.8362 290.123 65.9267 289.729C66.133 288.83 66.4571 287.875 67.0059 287.15C74.7051 276.964 83.5253 267.915 94.7818 261.686C99.4762 259.089 104.86 258.871 110.211 259.466C110.703 259.521 111.782 258.747 111.742 258.486C110.96 253.312 111.421 247.914 109.058 243.014C108.764 242.403 108.788 241.526 108.345 241.117C104.966 237.992 101.571 234.875 98.0246 231.946C97.1816 231.25 95.756 231.064 94.579 231C89.0157 230.698 83.4796 230.908 78.1177 232.641C76.6617 233.111 75.1536 233.587 73.8656 234.379C70.5406 236.424 67.2122 238.496 64.0886 240.83C56.5995 246.425 51.9932 253.873 50.9868 263.217C50.3213 269.397 50.4012 275.656 49.7487 281.838C49.3292 285.812 51.2677 287.93 53.9935 290.314C55.8994 291.981 57.4535 294.669 57.9979 297.156C59.4897 303.971 56.9963 309.55 51.4544 313.805C50.9033 314.229 50.5434 315.106 50.407 315.831C49.5092 320.605 46.5142 323.837 42.5033 326.077C41.1469 326.834 39.1518 326.882 37.5362 326.648C34.3359 326.185 31.811 327.198 29.7055 329.429C26.2104 333.132 21.6533 334.885 16.9309 335.976C13.0933 336.863 9.66829 335.145 7.35199 332.052C2.8942 326.1 -0.434495 319.622 0.0461874 311.867C0.157657 310.069 0.746166 308.3 1.11517 306.241C2.61221 300.578 6.76008 299.168 11.6659 299.066C16.2152 298.971 20.7768 298.887 25.3137 299.142C26.6902 299.219 29.0726 300.381 29.115 301.149C29.1962 302.623 27.947 304.178 27.2067 305.678C27.1185 305.857 26.702 305.848 26.541 306.021C26.0223 306.581 25.5519 307.185 25.0628 307.772C25.7986 308 26.5265 308.26 27.2736 308.441C27.6222 308.525 28.0445 308.355 28.3707 308.473C29.8511 309.008 31.5113 308.959 32.2088 311.081C32.8683 313.087 31.7847 313.926 30.7724 315.09C30.2429 315.698 29.9179 316.485 29.5005 317.191C30.2535 317.231 31.0206 317.195 31.7556 317.332C32.5935 317.487 33.4027 317.797 34.2244 318.04C33.9657 318.736 33.7525 319.452 33.4385 320.121C32.8651 321.343 32.2321 322.537 31.624 323.743C33.9253 324.165 36.407 325.352 38.4932 324.861C44.0481 323.553 48.5995 317.986 48.2246 312.307C47.9215 307.715 48.8005 302.977 48.0232 298.5C46.6378 290.52 46.8461 282.531 47.2028 274.59C47.5033 267.899 47.2385 260.886 50.4341 254.682L50.8685 253.838C53.9837 247.784 57.1829 241.706 63.5315 238.134C65.8697 236.819 68.1698 235.368 70.2615 233.697C73.9225 230.771 78.2819 229.667 82.6698 228.928C87.9262 228.043 93.2968 227.26 98.5252 229.316C99.2374 229.596 100.013 229.912 100.541 230.432C104.072 233.913 108.276 237.002 110.806 241.115C112.913 244.539 113.593 249.147 113.888 253.302C114.253 258.465 114.554 263.56 115.535 268.684C116.16 271.943 115.45 275.514 115.025 278.906C114.493 283.152 113.171 287.343 113.035 291.585C112.838 297.684 109.636 301.641 105.233 305.15C102.158 307.601 99.1833 310.179 96.2465 312.794C96.1025 312.922 96.6714 314.407 97.0422 314.47C100.003 314.971 103.003 315.236 105.974 315.685C106.664 315.79 107.288 316.327 107.942 316.665C107.257 317.065 106.517 317.879 105.897 317.796C102.351 317.323 98.8349 316.628 95.3041 316.034C94.8731 315.962 94.1356 315.894 94.026 316.093C93.7674 316.561 93.5258 317.45 93.7682 317.709C94.609 318.605 95.5569 319.733 96.6501 319.994C99.2939 320.625 102.035 321.051 104.751 321.136C110.127 321.304 115.512 321.176 120.893 321.19C123.154 321.196 125.132 320.675 126.01 318.319C126.788 316.23 125.272 315.047 124.046 313.759C119.661 309.153 115.713 304.135 114.781 297.711C114.233 293.933 114.824 289.955 115.18 286.092C115.542 282.153 116.583 278.258 116.724 274.321C116.983 267.105 116.932 259.869 116.759 252.647C116.592 245.659 114.722 238.957 110.445 233.476C108.449 230.919 104.842 229.499 101.781 227.921C97.6188 225.777 93.1797 224.232 88.385 224.902C79.6618 226.12 71.2194 228.559 64.3135 234.128C59.9181 237.673 55.9008 242.001 52.7145 246.662C46.9292 255.124 41.8632 264.081 36.5482 272.862C32.4457 279.64 28.4348 286.474 24.3464 293.261C23.8022 294.164 23.124 295.028 22.3492 295.736C21.8749 296.17 21.098 296.273 20.4569 296.524C20.4998 295.764 20.2811 294.847 20.6277 294.268C23.0261 290.266 25.6107 286.376 28.0064 282.372C33.3985 273.361 39.0759 264.494 43.946 255.205C47.6328 248.174 52.4001 241.98 57.698 236.359C64.6256 229.008 73.831 225.46 83.6835 223.077C93.5135 220.7 101.523 224.598 109.433 229.024ZM16.0177 301.286C15.7315 301.29 15.3647 301.62 15.2019 301.897C15.1184 302.039 15.3314 302.53 15.5321 302.639C18.5992 304.308 19.8516 307.207 21.0853 310.263C23.0852 315.217 23.5943 320.089 21.0414 325.337C20.603 325.983 20.1647 326.629 19.7264 327.274C19.5245 326.162 18.8553 324.874 19.1957 323.965C21.6081 317.518 19.242 307.883 13.8802 303.854C12.1315 302.54 10.228 301.41 7.67527 302.101C4.49297 302.963 3.13674 307.115 2.75825 310.257C1.93559 317.085 4.26843 323.066 7.81198 328.627C9.51266 331.295 11.6043 333.74 15.446 333.393C20.844 332.905 25.1959 330.149 29.4779 327.22C29.7488 327.035 29.7318 325.762 29.4257 325.511C27.7655 324.149 27.9585 323.03 29.5395 321.8C30.8738 320.762 30.7504 320.098 29.0436 319.486C26.2023 318.466 25.8741 316.674 28.0036 314.529C28.5497 313.978 29.4683 313.722 29.8435 313.105C30.1018 312.679 29.933 311.619 29.5607 311.293C29.195 310.974 28.3198 311.302 27.6882 311.209C25.3604 310.867 22.7095 310.263 22.2974 307.762C21.9141 305.435 24.3737 304.433 26.2467 303.455C26.6052 303.268 26.8387 302.842 27.1299 302.526C26.6523 302.104 26.1866 301.333 25.6952 301.316C22.4724 301.206 19.2438 301.244 16.0177 301.286ZM108.966 326.167C109.363 326.758 110.03 327.318 110.102 327.946C110.271 329.424 110.229 330.941 110.101 332.428C110.071 332.77 109.352 333.053 108.949 333.363C108.614 332.895 108.057 332.457 107.987 331.953C107.839 330.873 107.942 329.758 107.942 328.381C108.283 327.459 108.625 326.813 108.966 326.167ZM119.012 326.167C119.75 328.177 120.263 330.177 120.619 332.205C120.676 332.528 120.091 333.111 119.676 333.306C119.465 333.405 118.662 332.916 118.658 332.683C118.618 330.512 118.693 328.339 119.012 326.167ZM412.794 67.1375C413.505 67.4227 414.137 67.9024 414.844 68.2014C416.256 68.799 417.672 69.7361 419.128 69.8209C424.002 70.1048 427.86 71.5995 429.607 76.6555C429.787 77.1775 431.037 77.3879 431.825 77.6305C433.711 78.2108 435.727 78.4891 437.49 79.3159C440.61 80.7787 441.059 82.3838 440.08 85.7454C439.684 87.1057 438.788 88.6797 441.745 88.8343C444.649 88.9861 445.716 91.0093 446.224 94.1248C446.411 95.2748 447.392 96.721 448.412 97.2347C452.497 99.2912 453.019 100.108 452.239 104.856C452.138 105.473 452.2 106.137 452.296 106.762C452.613 108.837 453.182 110.893 453.284 112.975C453.451 116.412 453.329 119.863 453.329 123.584C451.479 130.814 447.159 136.45 440.941 139.147C435.814 141.37 434.397 145.876 431.174 149.211C426.898 153.637 422.651 158.107 418.135 162.28C415.029 165.15 411.705 167.919 408.076 170.048C404.734 172.01 400.967 173.592 397.186 174.383C391.387 175.596 387.362 172.024 383.909 167.891C380.601 163.932 377.316 159.949 374.134 155.887C371.481 152.501 369.005 148.974 366.414 145.538C366.017 145.012 365.422 144.636 364.919 144.19C364.684 144.831 364.355 145.454 364.229 146.115C362.886 153.168 361.152 160.014 354.976 164.655C353.6 165.689 355.031 166.292 355.513 166.56C359.4 168.726 363.459 170.599 367.257 172.904C369.871 174.491 372.167 176.605 374.562 178.537C374.8 178.729 374.904 179.355 374.786 179.675C373.322 183.679 371.885 187.696 370.28 191.644C368.751 195.406 365.823 197.831 362.197 199.503C358.931 201.01 356.175 199.154 355.903 195.301C355.574 190.655 355.412 185.978 354.737 181.379C354.094 177.007 352.235 173.197 347.261 172.271C345.888 172.015 344.381 172.066 343.002 172.326C333.395 174.139 324.373 177.527 315.992 182.594C309.061 186.786 302.022 190.807 295.204 195.174C291.287 197.683 287.697 200.707 283.997 203.547C282.662 204.572 282.471 205.567 283.606 207.195C287.297 212.49 288.954 218.556 289.477 224.941C289.601 226.453 289.471 227.987 289.645 229.489C289.676 229.764 290.867 230.272 291.099 230.101C296.095 226.391 302.054 225.28 307.865 223.775C311.868 222.739 315.854 221.585 319.912 220.826C322.385 220.363 324.984 220.433 327.515 220.531C328.146 220.556 328.736 221.616 329.344 222.2C328.69 222.539 328.06 223.107 327.378 223.178C323.111 223.621 318.831 223.941 314.56 224.342C314.124 224.383 313.714 224.694 313.292 224.879C313.732 225.247 314.149 225.648 314.618 225.975C315.263 226.424 315.946 226.818 316.613 227.236C315.665 227.556 314.732 227.949 313.759 228.157C313.429 228.227 313.015 227.756 312.61 227.659C311.793 227.464 310.955 227.356 310.126 227.212C310.349 227.907 310.682 228.588 310.777 229.3C311.279 233.069 312.16 236.86 312.039 240.616C311.95 243.336 310.606 246.051 309.605 248.686C309.276 249.553 308.268 250.163 307.571 250.891C307.531 249.794 307.097 248.51 307.516 247.632C309.641 243.175 309.62 238.457 309.34 233.753C309.232 231.937 308.439 230.08 307.612 228.413C306.89 226.958 305.482 226.737 303.882 227.338C299.888 228.838 295.806 230.113 291.861 231.724C290.363 232.335 289.189 233.696 287.784 234.583C285.015 236.333 282.23 238.067 279.354 239.628C278.701 239.983 277.649 239.604 276.781 239.563C277.224 238.922 277.555 238.141 278.138 237.673C279 236.981 279.979 236.321 281.017 235.977C286.949 234.017 287.754 231.052 287.229 226.508C286.523 220.401 285.196 214.475 281.846 209.09C280.026 206.163 278.313 204.087 274.418 204.284C271.841 204.414 269.614 205.299 268.875 207.296C268.316 208.803 269.169 211.197 270.074 212.817C272.792 217.68 275.934 222.27 277.372 227.801C278.588 232.479 277.537 235.903 273.27 238.14C265.001 242.476 258.859 249.093 253.554 256.537C250.189 261.259 247.194 266.247 244.079 271.144C243.413 272.191 242.536 272.957 244.875 273.733C248.211 274.839 249.229 282.016 246.647 285.574C245.483 287.176 245.835 287.385 247.29 288.184C254.264 292.014 260.429 296.779 264.959 303.505C267.274 306.941 270.257 309.935 272.491 313.416C275.729 318.463 277.045 324.16 276.726 330.172C276.69 330.864 276.177 331.532 275.885 332.21C275.624 331.489 275.09 330.746 275.144 330.048C275.502 325.428 273.622 321.231 272.139 317.149C270.96 313.904 268.122 311.231 265.888 308.409C263.229 305.053 260.73 301.48 257.605 298.606C254.347 295.61 250.427 293.333 246.794 290.744C245.941 290.135 245.16 289.29 244.207 288.987C242.904 288.572 241.38 288.181 240.106 288.467C236.426 289.292 232.839 290.406 230.852 294.188C230.532 294.798 228.73 295.39 228.35 295.082C226.301 293.422 225.239 294.738 224.031 296.103C223.853 296.305 223.338 296.329 223.015 296.262C220.825 295.802 219.984 297.314 219.206 298.86C218.377 300.509 217.655 302.981 215.511 302.172C214.156 301.66 213.38 299.32 212.614 297.675C212.261 296.917 212.792 295.768 212.486 294.961C212.191 294.183 211.261 292.998 210.738 293.061C208.026 293.388 207.954 291.4 207.614 289.756C207.394 288.695 207.502 287.546 207.588 286.446C207.74 284.529 207.372 283.351 205.307 282.293C203.199 281.212 203.011 278.362 204.056 276.404C206.249 272.297 208.468 268.046 211.508 264.584C216.599 258.786 222.178 253.383 227.846 248.132C236.186 240.406 244.647 232.795 253.34 225.471C256.95 222.428 261.276 220.228 265.321 217.715C265.746 217.451 266.473 217.671 267.06 217.666C266.863 218.242 266.842 219.047 266.44 219.356C263.801 221.385 261.021 223.232 258.398 225.281C254.477 228.344 250.503 231.365 246.808 234.689C239.176 241.557 231.874 248.799 224.13 255.535C217.728 261.104 211.905 267.079 207.617 274.426C206.813 275.804 206.182 277.429 206.07 278.983C206.032 279.514 207.917 280.8 208.775 280.68C214.726 279.849 219.739 277.018 224.064 272.886C225.695 271.329 227.333 269.75 229.148 268.429C230.069 267.758 231.696 267.014 232.47 267.393C234.355 268.316 234.639 270.377 234.509 272.385C234.392 274.179 234.207 275.972 234.182 277.767C234.176 278.206 234.677 278.651 234.946 279.094C235.415 278.768 236.047 278.545 236.331 278.101C240.425 271.687 244.293 265.121 248.574 258.837C255.044 249.34 262.38 240.674 272.945 235.338C274.947 234.326 275.815 232.655 275.224 229.899C274.053 224.438 271.205 219.887 268.461 215.248C267.053 212.867 265.612 210.488 266.07 207.678C266.621 204.302 269.869 201.766 273.612 201.678C275.537 201.633 277.47 202.15 279.407 202.314C280.276 202.387 281.393 202.541 282.009 202.107C288.098 197.82 293.891 193.075 300.19 189.134C307.968 184.27 315.952 179.638 324.222 175.691C329.65 173.101 335.733 171.872 341.543 170.103C342.707 169.749 344.014 169.856 345.164 169.474C345.942 169.216 346.897 168.618 347.19 167.925C348.567 164.673 351.088 162.91 354.263 161.726C355.116 161.408 356.087 160.621 356.417 159.81C358.733 154.127 360.917 148.389 363.04 142.632C363.136 142.372 362.17 141.307 361.827 141.366C358.839 141.88 356.286 141.645 354.907 138.409C354.795 138.146 354.147 138.075 353.733 137.982C348.325 136.767 346.176 130.585 349.583 126.238C349.969 125.747 350.106 124.497 349.768 124.091C347.298 121.125 347.122 117.524 347.786 114.205C348.226 112.004 350.213 110.024 351.771 108.166C352.788 106.955 353.216 106.263 352.321 104.615C351.225 102.594 349.841 100.685 350.257 97.8488C351.094 92.1404 352.161 91.0815 358.392 89.3441C360.098 88.8682 360.682 88.2763 360.945 86.5604C362.232 78.1729 364.196 75.0553 372.734 72.6571C375.626 71.845 378.37 72.0275 381.195 73.1777C382.083 73.5394 383.641 73.0612 384.541 72.4495C388.073 70.047 391.629 68.4584 396.073 69.7988C397.127 70.1167 398.695 69.5007 399.762 68.8682C403.895 66.4185 408.13 65.2669 412.794 67.1375ZM98.4283 324.507C98.8319 324.974 99.3029 325.402 99.6113 325.925C99.77 326.195 99.6392 326.635 99.6392 327.274C99.3909 328.537 99.1427 329.524 98.8944 330.51C98.4046 329.59 97.8178 328.706 97.4624 327.736C97.2571 327.176 97.2961 326.442 97.4646 325.855C97.6082 325.355 98.0939 324.953 98.4283 324.507ZM135.188 296.234C139.736 297.358 144.4 298.01 148.964 299.081C152.772 299.974 155.472 302.638 157.721 305.637C160.007 308.687 160.297 308.744 163.66 307.349C165.786 306.468 168.155 306.089 170.454 305.77C171.118 305.678 171.918 306.58 172.656 307.025C171.869 307.502 171.053 308.427 170.302 308.377C167.246 308.171 164.5 309.125 162.121 310.726C157.931 313.545 153.228 315.977 151.399 321.216C150.945 322.515 150.925 323.962 150.525 325.286C150.307 326.008 149.711 326.616 149.285 327.274C148.973 326.703 148.437 326.148 148.392 325.556C148.288 324.166 147.871 322.336 148.562 321.442C150.213 319.305 148.763 318.309 147.495 317.352C145.061 315.515 142.5 313.81 138.938 313.99L138.168 313.991C135.369 313.999 132.843 314.156 131.318 316.883C131.236 317.031 130.941 317.06 130.746 317.145C130.355 316.2 129.896 315.273 129.636 314.294C129.59 314.122 130.363 313.703 130.785 313.441C137.134 309.497 143.374 311.026 148.463 315.037C150.035 316.276 150.819 317.542 152.292 314.907C153.045 313.561 154.779 312.693 156.194 311.807C157.597 310.929 157.592 310.301 156.815 308.78C154.223 303.708 149.548 301.587 144.62 300.272C140.391 299.143 135.891 298.662 131.503 298.614C128.014 298.575 124.328 298.95 121.33 301.357C121.174 301.482 120.534 301.004 120.119 300.807C120.867 299.749 121.412 298.057 122.397 297.743L123.222 297.482C127.078 296.266 130.979 295.193 135.188 296.234ZM199.387 302.819C204.309 307.199 207.313 313.005 210.227 318.759C210.996 320.277 210.741 322.749 208.562 323.728C206.848 324.498 205.323 323.941 204.029 322.408C202.584 320.696 201.102 318.778 198.328 319.48C198.237 319.503 197.73 318.682 197.83 318.537C199.526 316.057 198.211 314.19 196.759 312.234C196.353 311.686 196.474 310.748 196.353 309.989C197.058 310.225 198.051 310.244 198.421 310.733C200.629 313.653 202.684 316.687 204.814 319.667C205.179 320.178 205.59 320.708 206.102 321.047C206.509 321.317 207.384 321.561 207.551 321.373C207.896 320.983 208.188 320.177 208.006 319.756C207.431 318.427 206.628 317.196 205.774 315.789C203.554 312.462 201.516 309.244 199.356 306.109C198.886 305.426 198.044 304.885 197.257 304.57C196.531 304.28 195.649 304.381 194.836 304.31C194.838 305.079 194.614 305.94 194.885 306.598C195.665 308.491 195.406 310.152 194.091 311.629C193.894 311.85 192.825 311.691 192.816 311.624C192.52 309.302 191.776 306.872 192.191 304.662C192.912 300.822 196.235 300.013 199.387 302.819ZM233.901 306.326C234.101 307.522 235.357 308.539 236.149 309.64C236.246 309.775 236.283 309.952 236.356 310.105C237.027 311.513 237.713 311.691 239.294 310.93C241.111 310.056 243.386 309.437 245.332 309.692C248.166 310.063 250.867 311.373 253.663 312.148C254.331 312.333 255.336 312.214 255.826 311.804C256.137 311.544 256.04 310.284 255.678 309.829C254.717 308.622 253.514 307.608 252.13 306.241C251.335 306.737 249.174 304.993 249.719 307.74C249.826 308.275 249.56 308.884 249.466 309.458C248.956 309.202 248.174 309.076 247.98 308.67C246.468 305.501 243.301 305.075 240.512 304.066C239.108 303.558 233.744 305.39 233.901 306.326ZM50.2549 290.19C50.1111 291.02 49.9674 291.85 49.8237 293.234C50.9266 295.813 51.8293 298.503 53.1827 300.943C54.922 304.079 53.5422 306.449 51.882 308.913C51.5427 309.417 51.3985 310.052 51.1644 310.626C51.7388 310.265 52.4191 310.004 52.8712 309.527C56.9871 305.183 57.2535 295.659 52.1284 291.663C51.5017 291.175 50.8793 290.681 50.2549 290.19ZM277.976 291.85C280.604 292.147 282.888 295.812 283.479 299.327C284.413 304.876 277.906 309.525 271.918 306.103C268.896 303.591 267.765 300.493 268.685 296.942C269.855 292.424 272.309 291.209 277.976 291.85ZM50.6831 302.92C50.4889 303.658 50.2946 304.396 49.8237 305.411L50.525 306.795C50.8447 306.511 51.3888 306.263 51.4403 305.937C51.5719 305.103 51.5289 304.23 51.4478 303.384C51.4309 303.206 50.9501 303.074 50.6831 302.92ZM275.351 294.577C272.417 294.739 270.885 296.094 270.672 299.139C270.517 301.36 273.15 304.585 275.31 304.553C280.714 304.473 281.585 302.437 280.082 296.555C278.931 294.871 277.337 294.467 275.351 294.577ZM210.34 289.445C210.714 289.878 211.036 290.618 211.47 290.69C213.332 290.999 214.481 291.927 214.764 293.816C214.972 295.208 215.079 296.618 215.345 297.998C215.488 298.737 215.87 299.431 216.145 300.145C216.424 299.438 216.764 298.748 216.971 298.02C217.694 295.474 218.407 293.61 221.908 293.253C224.26 293.013 226.493 290.996 229.249 292.026C229.446 292.1 229.74 291.915 230.266 291.573C230.614 291.183 230.962 290.793 231.309 290.402C230.771 290.147 230.223 289.656 229.696 289.678C227.653 289.76 225.556 289.761 223.588 290.241C219.571 291.22 215.754 290.855 211.958 289.358C211.501 289.178 210.883 289.406 210.34 289.445ZM99.3464 278.582C99.9761 278.832 100.729 278.947 101.198 279.374C101.589 279.731 101.782 280.441 101.83 281.015C102.065 283.793 102.222 286.577 102.407 289.636C102.591 291.865 102.793 293.816 102.925 295.772C102.936 295.924 102.323 296.31 102.222 296.244C101.691 295.901 100.879 295.503 100.803 295.023C100.322 291.967 100.044 288.878 99.625 285.811C99.3892 284.086 98.9183 282.39 98.7421 280.662C98.6742 279.996 99.1295 279.277 99.3464 278.582ZM396.228 176.852C397.532 177.6 398.806 179.472 398.935 180.946C399.13 183.184 400.038 183.428 401.847 183.386C408.822 183.226 414.372 186.676 419.49 190.836C423.486 194.084 427.359 197.529 430.956 201.209C435.633 205.994 440.43 210.771 444.353 216.151C448.681 222.086 446.295 225.86 441.129 229.817C435.786 233.91 430.116 237.577 424.767 241.664C423.398 242.71 422.441 244.372 423.741 246.581C426.407 251.11 432.909 253.49 437.035 250.811C438.704 249.727 439.797 247.754 441.29 246.048C445.363 240.916 450.893 238.036 456.179 234.859C459.645 232.775 460.668 231.989 458.216 228.015C456.511 225.252 454.718 221.875 450.326 222.617C449.719 222.72 449.009 222.217 448.348 221.995C449.025 221.295 449.6 220.161 450.398 219.974C453.032 219.354 455.501 220.344 457.055 222.364C459.039 224.942 460.846 227.789 462.006 230.799C462.441 231.927 461.274 234.404 460.101 235.29C456.095 238.314 451.656 240.761 447.595 243.719C445.472 245.266 443.76 247.392 441.959 249.345C441.771 249.549 442.107 250.717 442.427 250.839C450.347 253.846 458.32 256.582 465.45 261.466C471.098 265.335 477.325 268.361 483.354 271.654C483.519 271.745 484.735 270.651 484.807 270.033C485.012 268.273 484.717 266.454 484.914 264.692C485.278 261.449 484.302 258.964 481.747 256.833C475.135 251.318 468.655 245.646 462.126 240.033C461.847 239.793 461.519 239.557 461.359 239.244C461.039 238.622 460.819 237.949 460.558 237.296C461.449 237.287 462.643 236.898 463.182 237.329C466.958 240.345 470.645 243.479 474.27 246.677C477.135 249.205 479.868 251.883 482.67 254.483C482.958 254.751 483.317 254.943 483.643 255.171C483.871 254.712 484.311 254.242 484.289 253.795C484.189 251.806 483.81 249.824 483.812 247.839C483.815 245.794 484.385 243.737 484.284 241.706C483.826 232.521 483.124 223.348 482.704 214.162C482.484 209.372 484.997 206.155 489.531 204.379C495.082 202.205 500.786 200.869 506.749 200.499C514.182 200.039 521.612 198.91 529.031 199.003C536.482 199.096 543.917 200.349 551.362 201.07C555.45 201.466 559.542 201.811 563.633 202.183C571.721 202.919 579.824 203.543 587.886 204.502C589.331 204.674 590.964 205.965 591.902 207.2C594.697 210.88 595.963 215.092 596.234 219.809C596.531 224.971 597.653 230.083 598.328 235.228C598.63 237.535 598.791 239.866 598.888 242.192C599.288 251.816 599.997 261.447 599.861 271.065C599.791 276.051 598.232 281.024 597.273 285.988C596.746 288.716 594.595 289.769 592.198 290.153C587.928 290.837 583.615 291.25 579.332 291.858C553.614 295.509 527.736 293.472 501.933 294.118C490.91 294.395 480.973 291.468 471.477 286.049C466.665 283.303 462.654 280.13 461.365 274.605C460.756 271.993 460.153 268.993 462.665 266.813C463.325 266.24 464.385 266.067 465.295 265.879C465.613 265.813 466.036 266.253 466.41 266.463C466.22 266.789 466.102 267.208 465.826 267.426C463.818 269.011 464.045 270.363 465.866 272.069C470.713 276.611 476.755 279.04 482.573 281.884C483.108 282.146 483.654 282.396 484.215 282.592C484.575 282.717 485.167 282.915 485.311 282.76C485.608 282.44 485.797 281.909 485.805 281.461C485.813 280.966 485.376 280.43 485.462 279.974C486.221 275.99 483.882 274.52 480.707 272.858C471.661 268.121 462.863 262.909 453.962 257.894C451.801 256.675 449.585 256.007 447.179 257.292C446.813 257.487 446.327 257.523 445.897 257.523C435.197 257.535 424.494 257.672 413.796 257.487C405.735 257.348 397.685 256.684 389.624 256.453C379.187 256.155 368.746 255.998 358.305 255.89C349.635 255.801 340.963 255.931 332.292 255.86C314.749 255.717 297.206 255.576 279.665 255.276C274.186 255.182 268.712 254.631 263.247 254.16C262.385 254.085 261.583 253.318 260.753 252.872C261.634 252.396 262.523 251.491 263.394 251.508C277.541 251.787 291.686 252.187 305.831 252.545C307.614 252.59 309.4 252.533 311.184 252.554C326.236 252.734 341.288 252.896 356.339 253.125C359.433 253.172 362.522 253.479 365.615 253.653C366.165 253.684 366.805 253.821 367.245 253.597C367.639 253.396 367.816 252.766 368.089 252.326C367.684 252.217 367.189 251.9 366.886 252.03C364.35 253.118 364.895 251.984 365.145 250.148C365.854 244.96 366.382 239.841 364.933 234.515C363.796 230.336 364.991 225.872 366.535 221.731C368.084 217.576 369.706 213.448 371.187 209.27C371.46 208.501 371.211 207.547 371.202 206.679C370.561 207.09 369.937 207.53 369.275 207.904C368.522 208.328 367.736 208.692 366.964 209.083C366.97 208.127 366.69 207.051 367.029 206.233C369.183 201.037 371.538 195.924 373.666 190.717C374.087 189.688 373.833 188.373 373.846 187.189C373.858 186.137 373.564 185.017 373.83 184.042C374.898 180.133 377.245 179.054 381.317 180.24C385.256 181.388 386.972 183.737 385.119 187.651C383.452 191.172 384.001 194.074 385.187 197.427C387.467 203.876 389.35 210.463 391.47 216.969C393.342 222.713 392.529 228.29 390.181 233.614C387.313 240.119 384.045 246.439 379.163 251.753C378.842 252.102 378.785 252.694 378.606 253.174C379.144 253.335 379.681 253.629 380.221 253.636C383.481 253.68 386.743 253.594 390.001 253.672C395.553 253.805 401.102 254.038 406.653 254.209C413.034 254.405 419.416 254.555 425.795 254.785C427.291 254.838 428.777 255.158 430.273 255.298C430.565 255.325 430.883 255.085 431.189 254.968C430.926 254.716 430.696 254.411 430.394 254.22C427.912 252.649 425.213 251.343 422.975 249.482C420.193 247.17 420.106 245.407 421.497 241.963C421.648 241.59 421.164 240.574 420.765 240.427C417.559 239.25 414.328 238.119 411.052 237.155C408.292 236.344 406.494 238.048 404.78 239.892C404.282 240.428 403.499 240.699 402.847 241.091C402.885 240.122 402.612 238.993 403.013 238.209C404.93 234.457 408.882 233.896 414.054 235.692C416.957 236.701 419.827 237.833 422.786 238.633C423.628 238.861 424.89 238.344 425.69 237.783C429.854 234.864 433.97 231.872 438.02 228.796C439.812 227.436 441.582 225.97 443.046 224.279C444.64 222.437 443.97 220.375 442.79 218.488C438.017 210.856 431.184 205.166 424.629 199.212C422.14 196.952 419.76 194.568 417.207 192.385C412.684 188.518 407.409 186.233 401.491 185.606C398.715 185.312 397.919 186.364 397.416 190.114C396.903 193.949 396.418 197.793 395.698 201.591C395.506 202.605 394.694 203.949 393.83 204.289C392.315 204.886 391.275 203.875 390.596 202.325C389.297 199.355 387.625 196.544 386.392 193.55C384.632 189.274 386.725 183.415 390.755 180.588C391.411 180.127 392.2 179.678 392.568 179.022C393.418 177.507 394.555 175.892 396.228 176.852ZM291.393 286.348C293.495 286.817 294.385 288.482 293.824 290.422C293.537 291.415 292.259 292.121 291.152 292.957C288.225 292.782 287.062 291.526 287.278 289.073C287.482 286.751 288.813 285.772 291.393 286.348ZM533.269 201.674C525.765 201.907 518.271 202.478 510.767 202.702C504.399 202.891 498.178 203.862 492.251 206.114C487.533 207.906 484.864 209.301 485.413 215.294C486.05 222.249 486.66 229.21 487.036 236.182C487.195 239.13 486.553 242.113 486.578 245.077C486.619 249.888 486.914 254.697 487.092 259.508C487.283 264.686 487.433 269.867 487.659 275.044C487.773 277.644 488.15 280.238 488.161 282.836C488.172 285.261 486.475 286.632 484.559 285.645C477.995 282.266 470.798 279.982 465.273 274.755C464.973 274.471 464.528 274.34 464.151 274.138C464.08 274.631 463.765 275.329 463.978 275.583C465.779 277.731 467.336 280.339 469.618 281.77C473.868 284.433 478.534 286.444 483.074 288.626C484.835 289.472 486.699 290.555 488.562 290.654C496.127 291.053 503.71 291.291 511.285 291.26C528.174 291.192 545.067 291.138 561.947 290.657C570.875 290.403 579.787 289.364 588.688 288.49C593.516 288.016 595.498 286.312 596.069 281.914C596.718 276.908 597.179 271.837 597.161 266.797C597.137 260.956 596.537 255.114 596.125 249.277C595.608 241.944 595.104 234.608 594.444 227.286C594.048 222.891 593.503 218.499 592.773 214.148C592.072 209.973 589.059 206.953 585.694 206.612C581.976 206.235 578.259 205.838 574.536 205.51C565.9 204.75 557.258 204.063 548.626 203.262C546.641 203.078 544.688 202.551 542.167 202.182C539.2 201.998 536.227 201.582 533.269 201.674ZM241.669 275.886C240.658 276.238 240.019 277.559 239.109 278.319C237.833 279.384 236.573 280.554 235.11 281.29C231.429 283.142 227.448 283.624 223.336 283.6C219.455 283.577 215.571 283.906 211.688 284.051C211.246 284.068 210.798 283.896 210.353 283.812C210.475 284.311 210.548 284.828 210.726 285.306C211.587 287.614 213.767 287.816 215.651 287.921C224.613 288.419 233.419 287.086 242.14 285.174C244.175 284.728 245.759 283.628 245.233 281.05C245.089 280.342 245.211 279.58 245.211 278.289C244.872 276.237 243.592 275.214 241.669 275.886ZM230.067 276.971C225.604 277.083 221.324 278.074 217.383 280.25C216.973 280.476 216.743 281.027 216.429 281.427C216.881 281.58 217.348 281.898 217.784 281.861C221.678 281.529 225.582 281.235 229.447 280.683C230.343 280.555 231.104 279.481 231.927 278.289C231.306 277.828 230.676 276.956 230.067 276.971ZM231.901 269.96C231.14 270.37 230.232 270.633 229.649 271.219C228.484 272.39 227.497 273.738 226.437 275.013C228.175 274.537 229.912 274.061 231.927 273.308C231.927 272.944 231.93 272.581 231.926 272.217C231.92 271.465 231.91 270.713 231.901 269.96ZM280.082 268.049C281.189 268.475 282.019 268.9 282.849 269.326C282.064 270.376 281.471 271.864 280.425 272.325C279.718 272.637 277.806 271.772 277.425 270.965C276.446 268.892 278.689 268.799 280.082 268.049ZM128.705 258.212C136.78 260.482 145.03 260.277 153.285 260.329C161.326 260.38 169.366 260.669 177.683 260.854C184.325 260.854 190.689 260.808 197.053 260.879C199.192 260.903 201.336 261.165 203.459 261.451C203.946 261.516 204.358 262.129 204.805 262.49C204.374 262.867 203.999 263.414 203.498 263.577C202.914 263.767 202.221 263.621 201.576 263.621C189.216 263.621 176.856 263.686 164.497 263.597C157.009 263.543 149.508 263.475 142.041 262.989C137.154 262.67 132.312 261.618 127.464 260.812C126.995 260.734 126.624 260.071 126.207 259.68C127.049 259.16 128.061 258.031 128.705 258.212ZM436.208 253.936C435.958 253.996 435.811 254.478 435.617 254.764C435.945 254.949 436.27 255.287 436.601 255.294C438.923 255.341 441.247 255.339 443.57 255.303C444.057 255.295 444.541 255.081 445.027 254.962C444.565 254.527 444.104 254.093 443.366 253.381C440.754 250.5 438.559 253.366 436.208 253.936ZM371.41 251.721L369.985 253.063C370.992 253.261 371.994 253.509 373.01 253.632C373.381 253.677 373.788 253.423 374.178 253.305C373.711 252.685 373.295 252.013 372.748 251.473C372.565 251.291 372.05 251.444 371.41 251.721ZM410.998 239.279C411.092 240.099 411.341 240.937 411.252 241.737C410.952 244.429 410.69 247.145 410.071 249.77C409.847 250.72 410.295 253.293 407.527 251.859C407.942 248.196 408.406 244.652 409.122 241.16C409.27 240.435 410.348 239.901 410.998 239.279ZM378.376 191.772C378 191.711 377.194 192.8 376.996 193.483C376.633 194.738 376.698 196.111 376.372 197.381C374.162 206.004 372.162 214.67 368.784 222.98C367.576 225.949 367.397 229.544 367.555 232.815C367.829 238.463 371.232 243.048 373.702 247.921C375.814 252.089 375.99 252.097 378.751 248.262C378.911 248.041 379.174 247.893 379.328 247.669L379.881 246.858C385.589 238.478 390.926 229.956 389.399 218.787C386.724 210.221 384.104 201.636 381.274 193.122C381.033 192.397 379.419 191.94 378.376 191.772ZM370.12 247.663C369.443 247.909 368.766 248.154 368.089 248.953C368.827 248.766 369.566 248.582 370.294 248.361C370.306 248.358 370.181 247.906 370.12 247.663ZM133.587 242.638C146.695 242.752 159.806 242.803 172.906 243.2C180.615 243.434 188.304 244.292 196.007 244.785C200.349 245.063 204.709 245.083 209.05 245.385C212.134 245.6 215.207 246.044 218.266 246.509C218.808 246.591 219.258 247.277 219.75 247.685C219.181 248.015 218.598 248.655 218.045 248.63C211.557 248.334 205.073 247.935 198.588 247.575C197.853 247.534 197.111 247.608 196.376 247.564C179.012 246.533 161.655 245.352 144.237 245.872C141.464 245.954 138.675 245.54 135.617 245.356C134.695 245.356 133.96 245.553 133.425 245.31C132.607 244.939 131.927 244.264 131.189 243.718C131.989 243.341 132.791 242.631 133.587 242.638ZM373.194 198.308C372.23 200.192 371.249 202.068 370.341 203.979C370.276 204.116 370.748 204.731 370.961 204.726C371.287 204.719 371.787 204.434 371.896 204.146C372.524 202.496 373.058 200.811 373.624 198.584C373.481 198.492 373.337 198.4 373.194 198.308ZM395.09 179.96C393.059 181.5 391.101 183.137 389.123 185.3C387.576 187.834 387.755 190.337 388.999 192.972C390.118 195.345 390.927 197.863 391.966 200.277C392.197 200.814 392.818 201.182 393.259 201.629C393.541 200.922 394.039 200.219 394.052 199.508C394.071 198.487 393.408 197.39 393.607 196.446C394.489 192.249 395.644 188.109 396.541 183.914C396.779 182.801 396.521 181.555 396.329 180.397C396.292 180.173 395.296 179.804 395.09 179.96ZM350.316 167.665C349.056 169.42 350.295 170.127 351.538 171.262C353.25 172.823 354.851 174.736 355.84 176.813C358.527 182.45 358.369 188.638 358.68 195.263C358.86 197.967 359.673 198.371 361.909 197.034C366.98 194.002 369.208 188.899 371.329 183.832C372.216 181.715 372.934 179.06 370.134 177.394C368.143 176.21 366.111 175.095 364.095 173.954C360.586 171.969 357.002 170.102 353.602 167.946C352.387 167.177 351.552 165.943 350.316 167.665ZM375.521 183.404C374.768 184.655 375.947 187.692 377.577 188.7C379.501 189.889 381.782 189.393 383.311 187.238C384.436 185.569 384.267 184.307 382.319 183.343C379.432 181.915 376.44 181.877 375.521 183.404ZM245.191 23.308C249.269 24.1704 253.536 24.1394 257.718 24.5066C264.037 25.0614 270.367 25.5207 276.672 26.2081C279.672 26.5352 281.317 29.6229 281.236 33.4002C281.178 36.1173 281.499 38.8494 281.758 41.5645C282.061 44.7384 282.622 47.8923 282.821 51.0705C283.28 58.383 283.526 65.7089 283.988 73.0212C284.16 75.7401 285.108 78.4569 284.973 81.1379C284.729 85.9936 283.948 90.8231 283.37 95.6608C283.034 98.4663 282.4 101.262 282.345 104.07C282.2 111.538 282.363 119.012 282.272 126.482C282.213 131.388 282.149 136.312 281.677 141.189C281.249 145.617 280.155 149.977 279.589 154.398C279.393 155.933 280.078 157.561 280.049 159.141C279.953 164.323 279.569 169.504 279.593 174.684C279.604 177.058 277.559 177.523 276.52 177.633C271.763 178.136 267.274 179.987 262.294 179.602C254.379 178.991 246.407 179.06 238.458 178.969C235.862 178.939 233.249 179.566 230.666 179.441C221.758 179.011 212.859 178.391 203.958 177.821C201.818 177.684 199.685 177.329 197.546 177.295C183.234 177.071 168.916 177.081 154.613 176.625C149.636 176.467 144.631 175.712 140.169 172.801C136.675 170.522 134.873 167.271 134.615 163.516C134.083 155.777 133.927 147.994 134.017 140.234C134.106 132.636 134.634 125.04 135.091 117.45C135.299 113.996 135.985 110.567 136.125 107.114C136.31 102.57 136.103 98.0119 136.194 93.4626C136.257 90.309 136.54 87.1599 136.724 83.732C136.54 80.5802 136.175 77.7032 136.205 74.8304C136.289 67.0342 136.517 59.239 136.763 51.4458C136.785 50.7599 137.355 50.0913 137.671 49.4147C138.278 50.0925 139.43 50.7913 139.405 51.4449C139.216 56.3797 138.755 61.3032 138.465 66.2353C138.336 68.434 138.351 70.6453 138.394 72.8491C138.554 80.8898 138.848 88.9291 138.9 96.9702C138.928 101.32 138.568 105.672 138.385 110.022C138.015 118.816 137.689 127.612 137.263 136.403C136.97 142.434 136.346 148.455 136.247 154.486C136.191 157.831 136.623 161.252 137.346 164.526C138.375 169.188 141.926 171.722 146.28 172.761C149.622 173.559 153.143 173.639 156.594 173.937C159.646 174.2 162.711 174.451 165.771 174.467C168.276 174.48 170.785 173.957 173.289 173.987C180.869 174.078 188.448 174.298 196.026 174.516C200.747 174.652 205.485 174.667 210.182 175.102C221.095 176.115 231.999 176.998 242.98 176.755C250.848 176.58 258.727 176.874 266.592 176.645C269.696 176.555 272.783 175.646 275.861 175.029C276.388 174.924 277.233 174.43 277.25 174.081C277.379 171.561 277.293 169.032 277.349 166.508C277.455 161.742 277.493 156.971 277.784 152.216C277.989 148.868 278.616 145.548 278.962 142.207C279.385 138.122 279.922 134.033 280.022 129.937C280.117 126.022 279.565 122.095 279.569 118.174C279.573 114.008 279.719 109.824 280.125 105.679C280.693 99.881 281.857 94.1291 282.195 88.324C282.438 84.1573 283.133 79.8797 281.777 75.7228C281.668 75.3899 281.753 74.995 281.742 74.6291C281.558 68.618 281.613 62.5872 281.119 56.6017C280.664 51.089 279.562 45.6322 278.859 40.1362C278.563 37.8153 278.482 35.4584 278.439 33.1153C278.37 29.4121 277.434 28.5779 273.722 28.3498C266.473 27.9042 259.233 27.3095 251.995 26.7101C245.948 26.2094 239.918 25.4248 233.863 25.1451C231.087 25.0168 228.275 25.8598 225.466 26.1248C224.753 26.1921 223.99 25.7333 223.25 25.5162C223.652 24.9944 223.988 24.395 224.479 23.9764C224.846 23.6634 225.397 23.4917 225.891 23.4138C232.315 22.4013 238.691 21.9335 245.191 23.308ZM195.074 27.3542C202.576 27.3303 210.08 28.0064 217.583 28.3842C220.921 28.5523 224.254 28.8337 227.593 28.9189C236.648 29.1502 245.735 28.916 254.748 29.6338C260.166 30.0653 265.742 30.5086 270.498 34.3566C274.508 37.601 276.854 41.6547 277.737 46.306C278.991 52.9128 279.405 59.6845 280.056 66.3976C280.387 69.8121 280.751 73.2687 280.568 76.6778C280.259 82.4573 279.542 88.2155 278.97 93.9801C278.628 97.4274 278.082 100.862 277.898 104.316C277.437 113.013 277.118 121.718 276.766 130.422C276.556 135.602 276.438 140.786 276.196 145.965C275.872 152.917 275.487 159.866 275.084 166.814C275.014 168.035 274.843 169.275 274.524 170.453C273.855 172.919 271.561 173.183 269.658 173.334C262.905 173.871 256.129 174.138 249.086 174.507C239.555 173.655 230.333 172.572 220.992 172.761C215.713 172.867 210.419 171.881 205.125 171.789C195.319 171.617 185.496 172.041 175.701 171.659C164.871 171.236 154.205 169.596 144.36 164.553C140.146 162.394 138.283 159.199 139.548 154.731C142.254 145.172 140.713 135.44 141.15 125.793C141.528 117.46 141.876 109.126 142.266 100.793C142.405 97.8235 142.715 94.8601 142.796 91.8898C143.028 83.389 143.225 74.8868 143.351 66.3839C143.433 60.819 143.532 55.2448 143.296 49.6888C143.178 46.9364 142.293 44.2202 141.814 41.4775C141.674 40.679 141.59 39.8134 141.759 39.0397C141.864 38.5636 142.497 38.2033 142.892 37.791C143.235 38.1641 143.81 38.4967 143.883 38.9167C144.501 42.4582 145.365 46.0014 145.514 49.571C145.897 58.7104 146.167 67.8659 146.073 77.0108C145.976 86.4538 145.445 95.8942 145.008 105.331C144.738 111.179 144.153 117.013 143.951 122.862C143.646 131.729 143.616 140.605 143.313 149.472C143.25 151.337 142.61 153.208 142.063 155.024C141.17 157.992 141.706 159.497 144.217 161.268C149.132 164.734 154.788 166.098 160.531 167.328C168.718 169.081 177.006 168.949 185.306 169.001C195.316 169.063 205.328 169.253 215.334 169.554C222.657 169.775 229.972 170.263 237.291 170.632C244.609 171.001 251.925 171.549 259.248 171.665C262.962 171.723 266.713 171.143 270.391 170.518C271.166 170.386 272.158 168.836 272.251 167.862C272.632 163.899 272.732 159.907 272.879 155.923C273.092 150.189 273.239 144.453 273.445 138.719C273.602 134.367 273.665 130.005 274.027 125.668C274.582 119.022 275.382 112.397 275.997 105.756C276.042 105.272 275.496 104.342 275.113 104.277C273.184 103.951 271.216 103.667 269.265 103.687C256.612 103.816 243.958 104.21 231.307 104.149C222.511 104.106 213.717 103.473 204.923 103.105C200.479 102.919 196.037 102.694 191.592 102.561C184.29 102.341 176.978 102.337 169.686 101.949C163.815 101.636 157.958 100.968 152.111 100.312C147.579 99.8045 146.357 97.6136 147.741 93.347C148.093 92.2622 147.735 90.9612 147.829 89.7696C147.859 89.4005 148.307 89.0646 148.563 88.7136C148.86 89.024 149.339 89.2911 149.425 89.6518C149.978 91.976 151.663 92.8811 153.783 93.126C158.991 93.7273 164.196 94.467 169.423 94.7494C176.715 95.1432 184.026 95.2951 191.329 95.3156C196.971 95.3315 202.615 94.8074 208.257 94.8381C221.464 94.9101 234.672 95.081 247.875 95.39C255.567 95.57 263.252 96.0706 270.937 96.5031C271.603 96.5407 272.237 97.1488 272.886 97.4919C272.289 97.8869 271.687 98.6318 271.095 98.6234C263.852 98.5208 256.61 98.2622 249.367 98.139C244.48 98.0559 239.589 98.1564 234.701 98.1174C213.193 97.9462 191.678 98.0122 170.181 97.4162C163.52 97.2316 156.529 97.5343 150.229 94.2787C149.92 94.119 149.207 94.2572 149.004 94.5126C148.804 94.7638 148.844 95.5083 149.076 95.7437C149.753 96.4307 150.513 97.3656 151.356 97.5033C155.623 98.2009 159.914 99.0128 164.219 99.1642C175.112 99.5475 186.02 99.5092 196.916 99.8164C203.779 100.01 210.633 100.518 217.49 100.892C224.163 101.256 230.835 101.916 237.509 101.935C249.7 101.97 261.892 101.611 274.084 101.467C275.536 101.45 276.146 101.095 276.251 99.4867C276.702 92.6066 277.271 85.7333 277.879 78.8648C278.596 70.7808 277.778 62.793 276.832 54.7724C276.223 49.6056 275.463 44.7061 272.405 40.2398C269.323 35.7381 265.281 33.171 259.983 32.855C251.014 32.3202 242.028 32.0427 233.048 31.7122C226.669 31.4775 220.287 31.3549 213.907 31.1442C203.267 30.7928 192.63 30.1933 181.988 30.1201C175.133 30.073 168.271 30.7322 161.417 31.1662C157.044 31.4431 152.688 32.0071 148.313 32.207C146.008 32.3123 144.422 32.9084 143.882 35.3518C143.772 35.8497 143.187 36.2427 142.82 36.684C142.449 36.1556 141.837 35.665 141.747 35.0921C141.34 32.522 142.89 30.6122 145.86 30.0616C148.364 29.5973 150.89 29.1349 153.425 28.9713C158.229 28.6612 163.048 28.5729 167.86 28.3799C176.931 28.0161 186.002 27.3845 195.074 27.3542ZM403.015 104.556C400.743 107.001 397.982 108.268 394.381 109.193C391.582 109.003 388.642 109.899 386.149 107.654C383.606 105.363 382.087 106 380.759 109.252C380.115 110.828 379.066 112.438 377.763 113.494C376.203 114.759 374.069 115.29 372.377 116.427C370.019 118.013 367.488 118.399 365.024 117.358C363.179 116.578 363.249 117.48 363.104 118.661C362.825 120.93 364.388 122.218 365.681 123.689C367.315 125.548 368.757 127.326 367.628 130.241C366.792 132.398 366.742 134.874 366.442 137.221C366.013 140.577 367.777 143.025 369.71 145.56C376.165 154.029 382.316 162.769 390.923 169.274C392.348 170.351 394.56 171.325 396.168 171.032C399.75 170.38 403.659 169.601 406.583 167.618C415.486 161.581 423.571 154.47 430.126 145.858L430.422 145.472C432.661 142.572 435.224 139.562 433.476 135.211C433.096 134.265 433.484 132.896 433.803 131.805C434.62 129.019 435.958 126.333 436.379 123.502C436.642 121.728 435.877 119.636 435.036 117.957C434.747 117.381 432.794 117.743 431.653 117.467C430.162 117.106 428.705 116.583 427.266 116.042C426.311 115.683 425.428 114.833 424.487 114.792C421.771 114.674 419.979 113.536 418.375 111.288C416.805 109.088 415.005 106.724 411.39 108.001C409.549 108.651 407.746 107.803 406.918 105.691C405.996 103.337 404.657 102.79 403.015 104.556ZM144.556 155.882C145.186 156.013 146.004 155.937 146.415 156.31C148.96 158.618 151.919 159.382 155.314 159.639C161.484 160.106 167.619 161.041 173.769 161.771C174.133 161.814 174.506 161.772 174.875 161.777C189.184 161.961 203.494 162.115 217.802 162.344C223.814 162.441 229.822 162.851 235.832 162.843C242.58 162.834 249.327 162.501 256.075 162.336C258.791 162.27 261.511 162.212 264.224 162.294C264.884 162.314 265.527 162.9 266.178 163.226C265.346 163.665 264.538 164.412 263.676 164.484C261.477 164.665 259.254 164.516 257.041 164.548C244.945 164.723 232.849 164.992 220.753 165.061C215.39 165.092 210.025 164.614 204.66 164.583C200.957 164.562 197.25 165.079 193.547 165.058C188.182 165.027 182.818 164.739 177.455 164.522C177.063 164.506 176.684 164.175 176.023 163.99C166.988 164.032 158.319 163.099 149.804 161.125C147.981 160.702 146.385 159.109 144.826 157.876C144.447 157.576 144.631 156.565 144.556 155.882ZM392.01 151.059C396.316 151.767 399.508 152.516 403.642 153.504C405.601 153.972 406.012 155.368 404.546 156.869C399.878 161.644 393.209 162.001 389.35 155.201C388.267 153.294 389.961 151.999 392.01 151.059ZM257.377 133.483C259.951 134.656 260.962 136.225 260.112 138.854C259.008 142.264 258.056 145.731 256.776 149.074C256.201 150.574 254.99 151.83 253.929 153.335C247.243 158.923 239.956 161.573 231.354 159.604C230.041 159.304 228.574 159.386 227.226 159.597C224.033 160.098 221.449 158.515 218.77 157.3C218.214 157.048 217.467 156.001 217.609 155.615C218.962 151.947 219.991 148.022 222.071 144.788C225.946 138.764 231.834 135.599 239.069 135.217C243.532 134.982 248.004 134.904 252.463 134.621C254.116 134.516 255.229 132.503 257.377 133.483ZM195.46 107.663C199.256 107.64 203.135 108 206.828 108.858C209.883 109.567 210.092 112.675 210.302 115.286C210.486 117.577 210.34 119.895 210.34 122.477C210.156 130.425 210.001 138.097 209.769 145.767C209.699 148.092 209.501 150.421 209.212 152.73C208.857 155.567 205.73 157.758 201.78 157.879C198.278 157.987 194.714 158.272 191.29 157.744C189.605 157.484 187.882 155.805 186.687 154.349C183.458 150.412 184.998 145.651 184.93 141.19C184.925 140.862 185.642 140.523 186.024 140.19C186.38 140.641 187.01 141.073 187.044 141.547C187.167 143.291 187.286 145.075 187.05 146.795C186.654 149.666 188.009 151.895 189.321 154.177C189.522 154.528 189.903 154.775 190.201 155.07C190.457 154.623 190.956 154.16 190.93 153.73C190.661 149.344 190.252 144.966 189.995 140.579C189.845 138.019 189.935 135.446 189.853 132.88C189.695 127.944 189.496 123.008 189.253 118.075C189.25 118.025 188.397 117.903 187.995 118.012C187.444 118.163 186.944 118.503 186.422 118.762C186.327 118.013 185.909 117.1 186.193 116.544C187.363 114.249 188.422 111.753 190.158 109.939C191.403 108.637 193.652 107.674 195.46 107.663ZM176.469 128.253C179.552 128.671 180.295 131.372 181.021 133.961C182.552 139.417 182.201 144.914 181.558 150.706C181.558 155.906 180.228 157.485 174.516 157.817C170.284 158.063 166.001 157.613 161.751 157.315C159.551 157.161 158.63 155.452 158.332 153.514C157.357 147.173 157.356 140.849 158.842 134.559C159.146 133.274 158.98 131.867 159.356 130.614C160.219 127.735 163.057 127.7 165.168 127.585C168.916 127.38 172.733 127.746 176.469 128.253ZM391.575 154.368C391.799 154.692 391.963 155.09 392.256 155.328C394.446 157.099 396.799 158.311 400.004 157.009C400.65 156.668 401.296 156.328 401.942 155.987C401.826 155.774 401.742 155.402 401.59 155.372C398.62 154.787 395.647 154.216 392.661 153.725C392.342 153.673 391.939 154.141 391.575 154.368ZM255.653 136.171C253.233 136.47 250.854 137.134 248.432 137.365C247.062 137.496 245.641 137.02 244.236 136.89C243.835 136.853 243.198 136.95 243.053 137.205C242.885 137.5 243.047 138.366 243.227 138.417C245.349 139.022 244.817 140.479 244.363 141.852C243.601 144.156 242.1 146.119 239.658 146.179C236.483 146.256 233.295 145.58 230.106 145.304C228.431 145.159 226.206 144.469 225.162 145.258C222.394 147.351 220.915 150.527 221.518 154.108C221.687 155.116 223.099 156.604 224.037 156.679C229.323 157.103 234.645 157.417 239.943 157.288C247.627 157.101 256.388 149.018 257.358 141.574C257.439 140.956 257.098 140.283 256.954 139.636C256.545 140.128 256.001 140.558 255.748 141.12C252.718 147.857 247.862 152.411 239.953 154.027C237.322 154.581 234.707 155.246 232.051 155.61C231.375 155.703 230.568 154.838 229.822 154.413C230.444 154.087 231.033 153.616 231.696 153.462C233.56 153.027 235.495 152.866 237.328 152.339C242.522 150.848 247.598 149.246 250.883 144.315C252.454 141.958 254.728 140.069 256.698 137.98C257.081 137.573 257.525 137.224 257.942 136.848C257.177 136.605 256.377 136.082 255.653 136.171ZM191.521 115.005C191.337 115.297 190.964 115.611 190.996 115.877C191.509 120.165 192.254 124.433 192.561 128.733C192.744 131.301 192.087 133.918 192.113 136.509C192.157 140.854 192.357 145.202 192.649 149.538C193.046 155.418 193.986 156.19 199.767 155.669C201.058 155.552 202.524 155.512 203.557 154.87C204.896 154.04 206.36 152.827 206.899 151.44C207.581 149.684 207.529 147.589 207.532 145.639C207.536 143.782 206.99 141.917 207.056 140.069C207.338 132.208 207.93 124.355 208.057 116.493C208.125 112.276 207.244 111.405 203.738 110.894C201.082 110.506 198.375 110.387 195.686 110.326C192.567 110.254 191.543 111.356 191.521 115.005ZM161.065 136.766C160.913 142.029 160.569 147.294 160.662 152.552C160.678 153.429 162.461 154.944 163.506 155.016C167.66 155.303 171.847 155.211 176.017 155.094C177.559 155.051 178.876 154.501 178.837 152.4C178.802 150.455 179.159 148.504 179.344 146.001C179.344 143.792 179.195 141.57 179.384 139.377C179.587 137.025 178.892 136.206 176.392 136.243C171.87 136.312 167.328 136.085 162.823 135.671C161.586 135.557 161.106 135.357 161.065 136.766ZM199.252 141.884C199.706 141.84 200.187 142.282 200.68 142.391C202.036 142.691 204.425 142.658 204.584 143.248C205.134 145.287 205.182 147.569 204.918 149.696C204.44 153.542 201.233 152.028 198.717 152.367C196.452 152.303 194.708 152.11 194.796 149.35C194.855 147.5 194.093 145.576 194.375 143.792C194.839 140.856 197.441 142.059 199.252 141.884ZM196.442 146.893C196.531 149.112 197.104 150.399 200.1 150.153C201.115 149.523 202.73 149.1 203.03 148.225C203.852 145.826 202.556 144.621 199.662 144.618C198.065 144.617 196.331 144.154 196.442 146.893ZM405.036 137.837C406.641 138.578 405.988 143.544 405.786 145.39C405.313 149.696 399.639 148.731 399.639 147.546C399.639 145.399 401.403 146.221 401.942 146.001C404.189 145.086 403.431 137.096 405.036 137.837ZM176.715 143.095C173.724 144.795 170.895 146.404 168.001 147.883C167.306 148.238 166.392 148.164 165.578 148.287C165.975 147.659 166.229 146.823 166.792 146.437C169.285 144.727 171.799 143.025 174.44 141.565C176.111 140.64 176.972 141.277 176.715 143.095ZM168.588 141.337C169.16 141.388 169.708 141.703 170.267 141.906C170.025 142.295 169.871 142.814 169.525 143.052C168.036 144.076 166.513 145.058 164.945 145.954C164.64 146.129 164.078 145.857 163.635 145.79C163.73 145.282 163.648 144.557 163.954 144.305C164.949 143.486 166.085 142.84 167.305 141.988C167.826 141.666 168.224 141.305 168.588 141.337ZM234.695 138.41C235.109 138.772 235.479 139.223 235.954 139.469C236.32 139.658 236.89 139.463 237.243 139.663C237.908 140.04 238.482 140.578 239.094 141.049C238.379 141.316 237.68 141.664 236.941 141.816C236.572 141.892 236.134 141.591 235.719 141.495C233.149 140.903 230.558 139.244 228.036 141.601C227.664 141.949 227.362 142.374 227.028 142.763C227.46 142.828 227.891 142.905 228.324 142.955C229.991 143.145 231.655 143.376 233.327 143.499C235.856 143.684 238.544 145.169 241.06 142.404C243.088 141.156 242.475 139.77 240.873 139.009C239.434 138.325 237.693 138.248 236.07 138.007C235.641 137.943 235.154 138.265 234.695 138.41ZM415.046 136.476C415.52 134.036 417.003 132.272 418.359 132.536C419.714 132.799 420.428 134.991 419.954 137.43C419.48 139.87 417.997 141.634 416.641 141.37C415.286 141.107 414.572 138.916 415.046 136.476ZM205.087 116.051C205.993 116.317 206.914 118.306 206.926 119.523C206.973 124.135 206.657 128.75 206.458 133.364C206.431 133.975 206.296 134.581 206.208 135.189C205.824 137.837 204.419 138.682 201.665 138.604C193.353 138.37 194.366 139.476 194.265 131.026C194.216 126.87 193.923 122.717 193.734 118.563C193.653 116.809 194.358 115.795 196.233 115.833C196.968 115.848 197.704 115.835 198.717 115.835C201.041 115.853 203.198 115.495 205.087 116.051ZM393.43 128.241L393.563 128.254C394.93 128.446 395.758 130.597 395.412 133.058C395.066 135.519 393.677 137.358 392.31 137.166C390.943 136.974 390.115 134.823 390.461 132.362C390.807 129.901 392.195 128.061 393.563 128.254L393.43 128.241ZM198.515 118.106C197.741 118.475 196.612 119.237 196.591 119.862C196.429 124.542 196.421 129.234 196.58 133.914C196.608 134.732 197.623 136.168 198.228 136.192C200.032 136.264 202.029 136.121 203.596 135.345C204.267 135.013 204.06 132.909 204.252 131.057C204.252 128.3 203.877 125.48 204.336 122.802C205.098 118.357 205.063 118.049 200.692 118.049C199.957 118.049 199.113 117.821 198.515 118.106ZM168.025 130.246C166.352 130.339 164.662 130.477 163.035 130.839C162.482 130.962 162.095 131.827 161.632 132.353C162.222 132.751 162.804 133.482 163.403 133.495C167.928 133.591 172.456 133.562 176.982 133.523C177.402 133.52 178.152 133.199 178.168 132.983C178.2 132.53 177.966 131.772 177.631 131.627C176.309 131.058 174.905 130.677 172.979 130.226C171.327 130.226 169.671 130.155 168.025 130.246ZM422.122 125.024C425.035 126.05 425.84 128.548 425.876 129.174C425.912 129.801 419.954 125.793 415.553 127.921C414.974 128.2 413.134 127.546 412.923 126.898C412.596 125.891 413.758 125.021 414.477 124.61C417.056 123.137 419.21 123.998 422.122 125.024ZM399.861 122.003C400.548 122.371 401.729 123.534 401.138 124.576C400.961 124.889 398.923 124.977 398.324 124.713C393.259 122.477 384.568 125.211 383.259 125.194C384.294 124.288 385.188 122.994 386.393 122.556C389.117 121.567 391.962 120.67 394.822 120.392C396.452 120.233 398.31 121.173 399.861 122.003ZM238.934 53.5827C240.51 56.2408 242.971 56.0239 245.206 56.5586C247.334 57.0676 248.37 58.2728 249.171 60.2249C249.657 61.4114 250.814 62.5508 251.96 63.1942C254.855 64.8195 258.02 65.973 260.878 67.6539C263.622 69.2679 263 72.2217 262.87 74.7825C262.807 76.0275 262.185 77.2442 261.816 78.7505C260.384 81.9357 259.207 85.0121 257.444 87.7039C255.799 90.2153 252.83 90.8185 249.986 90.8906C244.829 91.0212 239.623 91.3362 234.517 90.8092C229.697 90.3119 224.742 90.5742 220.083 88.3548C216.315 86.5603 215.201 83.1314 213.734 79.9424C212.139 76.4711 211.076 72.7499 209.852 69.1139C208.75 65.8413 210.493 62.6019 213.983 61.6205C216.477 60.9192 219.057 60.5292 221.573 59.9003C222.21 59.7411 223.043 59.3363 223.29 58.8112C224.657 55.9076 227.274 55.8154 229.918 55.4355C231.121 55.2627 232.37 54.543 233.332 53.7493C235.155 52.2463 237.829 51.7201 238.934 53.5827ZM175.427 45.5761C178.302 45.5891 181.175 45.9091 184.326 46.0936C186.128 48.7757 188.58 49.8324 191.429 50.8789C196.312 52.6721 199.004 56.8359 199.708 61.875C200.022 64.116 198.896 66.521 198.763 68.8708C198.579 72.1188 198.781 75.3868 198.693 78.6428C198.639 80.5982 198.503 82.5777 198.127 84.492C197.561 87.3727 194.886 89.1868 191.143 89.2461C185.889 89.3292 180.633 89.2671 175.377 89.2671C173.225 89.2671 171.015 88.951 168.933 89.3327C164.56 90.1341 160.239 83.878 159.942 79.879C159.501 73.9228 158.95 67.9715 158.285 62.0361C157.697 56.779 160.761 52.0359 165.914 50.4957C166.468 50.33 167.139 49.914 167.376 49.4285C169.057 45.9866 172.191 45.5614 175.427 45.5761ZM217.185 63.3082C212.988 63.7269 212.167 65.0901 213.14 69.2585C213.801 72.0905 214.768 74.851 215.875 77.9202C216.97 81.6776 218.342 85.4 222.484 86.644C225.396 87.5184 228.511 87.9951 231.553 88.095C238.035 88.3079 244.529 88.2204 251.017 88.1269C253.251 88.0947 255.411 87.5091 256.322 85.0632C257.632 81.5456 258.972 78.034 260.102 74.4576C260.459 73.3295 260.698 71.5592 260.093 70.854C258.678 69.2061 256.915 67.5316 254.944 66.7467C248.556 64.2037 241.89 62.3068 234.985 62.2346C229.054 62.1726 223.098 62.7183 217.185 63.3082ZM169.463 52.2623C164.251 52.8479 161.078 54.4049 161.108 61.222C161.122 64.5576 161.374 67.898 161.653 71.2249C161.926 74.4913 162.384 77.742 162.734 81.0024C163.005 83.5233 165.427 86.395 167.647 86.4753C174.575 86.7259 181.509 87.0595 188.437 86.9972C194.856 86.9396 195.847 85.5504 195.984 78.9523C196.081 74.269 196.503 69.5924 197.056 64.6361C197.619 59.8 195.721 56.0326 191.569 53.7469C189.446 52.5785 186.846 51.8095 184.433 51.7323C179.45 51.5728 174.415 51.7057 169.463 52.2623ZM233.508 66.2169C233.534 66.7858 233.796 67.4984 233.55 67.9008C231.623 71.0542 229.598 74.1475 227.607 77.2614C227.376 77.6216 227.233 78.0706 226.929 78.3424C226.515 78.712 225.984 78.9505 225.503 79.2452C225.311 78.5543 224.806 77.7597 224.994 77.195C225.336 76.1656 226.088 75.2724 226.807 74.184C228.626 71.6276 230.274 69.1862 232.019 66.8158C232.289 66.4494 233 66.4084 233.508 66.2169ZM226.711 69.9371C226.292 70.8816 225.976 71.8924 225.426 72.7534C224.77 73.7809 223.913 74.6806 223.142 75.6348C222.194 76.8077 221.635 76.5784 221.41 74.8759C222.115 73.526 222.651 72.2667 223.573 71.4351C224.398 70.6908 225.649 70.418 226.711 69.9371ZM179.679 63.9277C179.848 63.9203 180.362 65.1903 180.205 65.3438C177.546 67.9461 174.817 70.4782 172.058 72.9751C171.876 73.1397 171.126 73.0237 170.991 72.8131C170.775 72.478 170.645 71.7687 170.846 71.5398C171.876 70.3664 173.036 69.3077 174.121 68.1811C174.379 67.9131 174.527 67.5388 174.726 67.2134C174.346 67.3506 173.892 67.3978 173.6 67.6403C172.152 68.8432 170.78 70.1409 169.306 71.3102C168.796 71.7154 168.068 71.8471 167.439 72.1038C167.533 71.3894 167.413 70.538 167.766 69.9901C168.439 68.9443 169.381 68.0715 170.488 67.1268C172.867 63.6688 176.392 64.0734 179.679 63.9277ZM227.364 58.2969C226.996 58.3809 226.714 58.8417 226.392 59.1271C226.731 59.3952 227.063 59.8842 227.411 59.8953C229.622 59.966 231.847 59.7943 234.047 59.9643C237.132 60.2026 240.199 60.6693 243.827 61.0383C244.446 61.1034 245.065 61.2226 245.683 61.2167C246.194 61.2118 246.704 61.0592 247.215 60.9721C246.964 60.5809 246.776 60.1204 246.445 59.8168C246.073 59.4759 245.6 59.1322 245.122 59.038C239.242 57.8791 233.344 56.9326 227.364 58.2969ZM175.193 47.7542C174.256 47.9387 173.296 48.0467 172.392 48.3341C171.774 48.5307 171.236 48.9772 170.662 49.312C171.4 49.5307 172.145 49.956 172.875 49.932C175.84 49.8345 178.802 49.6301 181.76 49.3914C182.443 49.3363 183.102 48.9896 183.772 48.7771C183.03 48.4361 182.306 47.857 181.543 47.8009C179.62 47.6597 177.68 47.7542 175.193 47.7542Z" fill="#00160A"/>
</svg>
