<svg width="675" height="356" viewBox="0 0 675 356" fill="none" xmlns="http://www.w3.org/2000/svg">
<path fill-rule="evenodd" clip-rule="evenodd" d="M474.128 350.68C365.891 372.992 295.667 308.742 152.711 308.742C103.86 308.742 -14.2194 336.251 4.06332 166.259C14.4381 69.7949 126.257 26.0157 230.755 82.398C261.505 94.4232 285.782 90.6964 312.14 78.7481C338.498 66.7998 372.398 13.4598 436.29 2.48634C628.561 -30.5363 841.432 274.966 474.128 350.68Z" fill="#20BF6B"/>
<path fill-rule="evenodd" clip-rule="evenodd" d="M470.187 132.652C477.722 137.614 485.288 142.863 493.96 145.355C502.631 147.847 512.822 147.085 519.499 141.018C546.446 116.534 589.841 112.44 620.89 131.453C651.94 150.465 668.022 190.978 658.464 226.11C648.907 261.241 614.518 288.024 578.116 288.686C559.255 289.03 541.814 298.046 523.791 303.618C505.769 309.191 484.093 310.621 469.999 298.082C454.808 284.569 456.542 256.723 473.292 245.199C446.97 247.171 420.648 249.143 394.326 251.115C400.116 253.463 406.28 256.116 409.599 261.408C412.918 266.701 411.396 275.36 405.35 276.933C382.834 282.79 359.779 272.116 338.167 263.501C316.555 254.886 290.512 248.559 271.24 261.594C227.808 290.969 170.428 286.092 118.699 277.526C106.289 275.471 91.3605 270.951 88.7801 258.639C65.028 263.11 40.806 265.081 16.6434 264.509C10.7454 264.369 3.78268 263.44 1.02622 258.224C-2.54537 251.465 3.86605 243.797 10.11 239.387C29.1776 225.92 52.4574 218.51 75.8014 218.479C82.4507 218.47 86.89 211.521 88.5828 205.091C90.2756 198.661 90.7499 191.505 95.0676 186.449C80.385 184.245 64.8305 188.727 53.5721 198.406C51.4825 200.202 47.9554 198.399 47.0783 195.786C46.2012 193.174 47.1048 190.333 48.0325 187.738C53.2273 173.209 59.7405 158.447 71.5469 148.513C83.3533 138.579 101.8 134.995 114.246 144.115C118.15 146.976 124.78 150.649 134.134 155.132C143.725 153.682 150.856 152.528 155.528 151.669C169.677 149.068 182.796 142.642 195.621 136.126C240.312 113.419 286.135 88.1378 336.244 86.7116C384.18 85.3471 430.135 106.277 470.187 132.652ZM520.9 172.017L525.396 183.343C525.617 183.898 525.855 184.478 526.319 184.854C526.883 185.309 527.655 185.37 528.372 185.474C533.868 186.265 538.175 190.439 542.071 194.396C547.06 199.465 552.05 204.534 557.04 209.603C558.535 211.122 561.019 209.48 562.451 207.9C565.668 204.35 568.946 200.708 570.804 196.292C572.661 191.875 572.862 186.459 570.093 182.549C568.448 180.225 565.942 178.658 563.373 177.43C559.133 175.403 554.534 174.132 549.855 173.693C545.293 173.266 540.698 173.625 536.115 173.591C531.009 173.554 525.906 173.026 520.9 172.017Z" fill="white"/>
<path fill-rule="evenodd" clip-rule="evenodd" d="M88.78 258.639C65.0279 263.11 40.8059 265.081 16.6433 264.508C9.68989 254.375 84.9348 235.705 87.6632 248.013C89.8206 257.746 89.9194 264.075 88.78 258.639Z" fill="#E7EAEE"/>
<path fill-rule="evenodd" clip-rule="evenodd" d="M453.175 225.81C455.713 225.538 465.8 223.066 476.39 224.212C482.081 221.29 509.355 223.585 525.636 226.775C536.086 228.822 562.571 230.183 572.189 235.089C588.884 243.605 589.267 248.869 586.755 249.997C579.619 253.199 571.022 254.778 566.401 254.863C558.082 255.014 541.345 247.324 522.986 242.507C514.787 240.355 508.762 238.528 504.014 236.755L504.789 236.416C494.519 241.052 483.895 241.791 473.292 245.198C446.97 247.17 420.648 249.142 394.326 251.115C400.116 253.462 313.009 221.747 338.167 217.12C339.718 216.835 341.427 216.661 343.281 216.584C366.841 215.596 413.652 230.034 453.175 225.81Z" fill="#E7EAEE"/>
<path fill-rule="evenodd" clip-rule="evenodd" d="M218.104 186.66C218.425 187.233 218.182 187.996 217.7 188.443C217.218 188.89 216.555 189.083 215.909 189.204C211.151 190.098 205.952 187.502 203.806 183.162C203.567 182.678 203.358 182.146 203.431 181.612C203.504 181.077 203.954 180.559 204.492 180.591C205.878 182.119 207.283 183.665 209.008 184.796C210.733 185.927 212.841 186.617 214.87 186.244C216.021 186.032 217.532 185.639 218.104 186.66V186.66Z" fill="#00160A"/>
<path fill-rule="evenodd" clip-rule="evenodd" d="M221.223 245.866C221.29 244.526 222.969 243.966 224.31 243.916C230.316 243.693 235.91 246.638 241.458 248.951C247.006 251.265 253.466 252.971 258.884 250.368C260.015 249.825 261.2 249.082 262.427 249.345C260.392 253.292 255.527 255.084 251.093 254.841C246.658 254.598 242.502 252.722 238.414 250.988C234.325 249.254 230.023 247.605 225.589 247.852C224.679 247.903 223.748 248.032 222.871 247.784C221.995 247.537 221.177 246.776 221.223 245.866Z" fill="#00160A"/>
<path fill-rule="evenodd" clip-rule="evenodd" d="M231.738 257.109C227.595 255.9 222.75 256.505 219.347 253.85C218.931 253.526 218.521 253.1 218.504 252.573C218.482 251.834 219.278 251.293 220.017 251.274C220.756 251.255 221.45 251.592 222.144 251.847C224.678 252.778 227.467 252.653 230.112 253.192C234.08 254.001 237.574 256.263 241.312 257.822C245.049 259.381 249.532 260.179 253.012 258.108C254.416 257.273 256.261 256.026 257.425 257.172C253.636 261.488 247.222 263.287 241.742 261.57C238.252 260.477 235.249 258.133 231.738 257.109Z" fill="#00160A"/>
<path fill-rule="evenodd" clip-rule="evenodd" d="M112.328 213.415C111.662 212.563 111.668 211.326 112.093 210.332C112.518 209.338 113.298 208.542 114.105 207.822C117.934 204.401 123.233 202.086 128.203 203.372C131.928 204.335 134.876 207.128 137.484 209.957C138.6 211.168 139.753 212.902 138.917 214.322C138.024 215.838 135.782 215.517 134.084 215.057C128.814 213.628 123.227 212.786 117.901 213.991C115.969 214.429 113.548 214.975 112.328 213.415V213.415Z" fill="#00160A"/>
<path fill-rule="evenodd" clip-rule="evenodd" d="M198.653 264.764C199.387 265.208 199.286 266.394 198.674 266.995C198.062 267.597 197.16 267.77 196.314 267.915C191.572 268.728 186.831 269.541 182.089 270.354C181.099 270.524 179.992 270.67 179.167 270.098C178.341 269.526 178.317 267.935 179.3 267.728C185.245 266.473 191.237 265.441 197.259 264.635C197.731 264.572 198.245 264.518 198.653 264.764V264.764Z" fill="#00160A"/>
<path fill-rule="evenodd" clip-rule="evenodd" d="M186.553 215.221C185.51 215.608 184.357 214.601 184.217 213.497C184.076 212.394 184.647 211.326 185.308 210.431C188.383 206.266 193.864 204.134 199.002 204.774C204.14 205.415 208.806 208.67 211.505 213.088C211.922 213.77 212.308 214.553 212.15 215.336C211.979 216.184 211.186 216.799 210.347 217.008C209.508 217.218 208.625 217.098 207.772 216.951C204.225 216.337 200.766 215.275 197.215 214.678C193.665 214.08 189.928 213.969 186.553 215.221Z" fill="#00160A"/>
<path fill-rule="evenodd" clip-rule="evenodd" d="M119.505 186.72C119.909 185.538 121.618 185.831 122.843 186.074C126.662 186.831 130.397 184.702 133.71 182.657C134.152 182.384 134.741 182.903 134.731 183.423C134.721 183.942 134.347 184.375 133.982 184.745C130.679 188.083 125.74 190.367 121.274 188.914C120.276 188.589 119.166 187.713 119.505 186.72Z" fill="#00160A"/>
<path fill-rule="evenodd" clip-rule="evenodd" d="M252.149 206.95C250.861 206.705 250.193 205.141 250.434 203.852C250.675 202.563 251.55 201.499 252.376 200.48C255.496 196.632 258.34 192.54 260.581 188.121C262.508 184.321 263.984 180.292 266.151 176.623C272.352 166.127 284.377 159.341 296.568 159.46C291.683 155.963 285.908 153.895 280.058 152.526C261.964 148.293 242.414 150.59 225.795 158.902C223.168 160.216 220.606 161.677 217.866 162.736C216.603 163.225 215.205 163.628 213.91 163.228C212.616 162.828 211.6 161.303 212.202 160.09C212.549 159.39 213.297 158.999 213.997 158.653C221.078 155.159 228.188 151.653 235.693 149.2C252.483 143.714 271.034 143.769 287.79 149.356C293.413 151.23 299.289 154.143 301.723 159.547C302.097 160.376 302.131 161.701 301.232 161.837C291.576 163.292 281.751 166.634 275.086 173.77C266.454 183.013 264.363 197.206 255.003 205.71C254.205 206.434 253.207 207.152 252.149 206.95V206.95Z" fill="#00160A"/>
<path fill-rule="evenodd" clip-rule="evenodd" d="M394.326 251.115C400.116 253.463 406.28 256.116 409.599 261.408C412.918 266.701 411.396 275.36 405.35 276.933C382.834 282.79 359.779 272.116 338.167 263.501C316.555 254.886 290.512 248.559 271.24 261.594C227.808 290.969 170.428 286.092 118.699 277.526C106.289 275.471 91.3605 270.951 88.7801 258.639C65.028 263.11 40.806 265.081 16.6434 264.509C10.7454 264.369 3.78268 263.44 1.02622 258.224C-2.54537 251.465 3.86605 243.797 10.11 239.387C29.1776 225.92 52.4574 218.51 75.8014 218.479C82.4507 218.47 86.89 211.521 88.5828 205.091C90.2756 198.661 90.7499 191.505 95.0676 186.449C80.385 184.245 64.8305 188.727 53.5721 198.406C51.4825 200.202 47.9554 198.399 47.0783 195.786C46.2012 193.174 47.1048 190.333 48.0325 187.738C53.2273 173.209 59.7405 158.447 71.5469 148.513C83.3533 138.579 96.4209 134.808 114.165 142.888C118.812 145.004 125.448 148.764 134.075 154.168C143.609 153.378 150.76 152.545 155.528 151.669C169.677 149.068 182.796 142.642 195.621 136.126C240.312 113.419 286.135 88.1378 336.244 86.7116C384.18 85.3471 430.135 106.277 470.187 132.652C477.722 137.614 485.288 142.863 493.96 145.355C502.631 147.847 512.822 147.085 519.499 141.018C546.446 116.534 589.841 112.44 620.89 131.453C651.94 150.465 668.022 190.978 658.464 226.11C648.907 261.241 614.518 288.024 578.116 288.686C559.255 289.03 541.814 298.046 523.791 303.618C505.769 309.191 484.093 310.621 469.999 298.082C454.808 284.569 456.542 256.723 473.292 245.199C446.97 247.171 420.648 249.143 394.326 251.115ZM546.69 202.555C533.407 189.194 513.589 182.661 494.964 185.502C503.982 182.7 513.645 181.994 522.974 183.456C496.529 145.266 453.85 121.412 410.35 105.116C389.21 97.1962 367.195 90.6863 344.626 90.188C315.245 89.5393 286.61 99.0888 259.472 110.367C229.686 122.744 200.874 137.324 172.094 151.889C180.974 151.435 189.974 155.337 195.713 162.129C171.607 152.189 143.054 153.721 120.151 166.185C120.261 161.631 123.9 157.411 128.387 156.632C115.282 145.084 95.1479 142.282 79.3868 149.81C63.6257 157.339 53.1532 174.762 53.8996 192.213C67.2101 181.205 86.408 177.801 102.692 183.561C92.9995 199.734 87.9959 218.681 88.4389 237.531C93.5321 235.385 99.8081 236.394 103.972 240.028C99.3198 240.529 94.6675 241.029 90.0152 241.529C90.2118 243.652 90.4084 245.775 90.605 247.898C95.5278 247.172 100.451 246.447 105.373 245.721C102.205 249.365 97.7379 251.856 92.9723 252.635C92.374 258.7 96.5835 264.422 101.865 267.462C107.146 270.501 113.349 271.408 119.383 272.258C134.422 274.376 149.462 276.495 164.501 278.614C161.013 274.68 160.442 268.346 158.165 263.967C155.216 258.296 150.957 255.986 148.822 248.461C148.086 245.865 146.388 242.21 148.764 240.56C149.762 239.866 151.061 239.84 152.277 239.839C157.241 239.833 162.206 239.828 167.17 239.823C168.775 239.821 170.452 239.837 171.87 240.587C176.167 242.859 174.81 249.572 171.601 253.223C168.392 256.874 163.804 259.79 162.708 264.526C161.582 269.39 164.857 274.433 169.207 276.885C173.556 279.337 178.732 279.753 183.722 279.923C194.24 280.283 204.786 279.796 215.226 278.467C241.507 275.124 269.507 264.414 281.705 240.897C280.967 246.825 277.87 252.426 273.241 256.202C292.388 249.149 314.072 249.228 333.168 256.421C351.278 263.242 368.461 276.415 387.667 274.05C386.844 273.383 386.525 272.229 385.702 271.562C383.461 269.745 380.717 268.414 378.476 266.597C385.324 269.102 392.172 271.606 399.02 274.111C398.242 272.972 399.02 271.823 397.571 270.081C396.123 268.339 392.959 265.231 391.095 262.499C396.281 264.008 400.826 267.607 403.484 272.309C405.7 271.767 407.916 271.225 410.132 270.683C398.881 255.495 383.326 243.532 365.759 236.557C357.236 233.172 346.67 229.122 345.604 220.013C364.761 238.514 392.214 246.406 418.84 246.969C445.466 247.533 471.738 241.483 497.682 235.469C491.742 232.467 486.387 228.314 482 223.309C511.139 239.635 543.742 249.745 577.006 252.769C575.119 249.571 573.232 246.372 571.346 243.174C575.472 243.292 579.328 246.422 580.291 250.436C582.361 249.621 584.43 248.806 586.499 247.991C583.621 245.169 580.743 242.348 577.865 239.526C582.494 238.41 587.689 241.98 588.306 246.703C590.243 245.695 591.842 244.05 592.794 242.085C589.352 239.479 585.91 236.874 582.468 234.268C587.686 234.162 592.922 235.908 597.032 239.123C592.17 227.302 575.717 227.02 564.788 220.391C557.519 215.982 552.684 208.584 546.69 202.555ZM521.948 168.59C528.449 170.166 535.256 168.946 541.945 168.966C548.876 168.986 555.779 170.361 562.273 172.782C566.281 174.277 570.288 176.285 572.894 179.678C577.025 185.056 576.665 192.857 573.783 198.995C570.901 205.134 565.914 209.986 561.032 214.693C571.28 219.265 581.528 223.836 591.776 228.408C594.672 229.7 597.802 231.216 599.126 234.097C601.415 239.078 596.971 244.543 592.406 247.579C578.165 257.052 558.797 258.213 543.525 250.512C533.728 245.571 522.867 243.214 512.14 240.904C506.283 239.642 500.183 238.382 494.365 239.809C490.236 240.822 486.343 243.17 482.094 243.025C478.297 242.896 475.345 246.175 473.12 249.254C465.799 259.387 459.763 272.335 464.05 284.077C466.997 292.151 474.466 297.968 482.605 300.728C490.745 303.487 499.542 303.566 508.12 303.02C518.855 302.336 529.792 300.633 539.22 295.451C545.358 292.077 550.852 287.243 557.642 285.521C565.789 283.457 574.372 286.227 582.754 285.615C589.429 285.128 595.746 282.515 601.857 279.787C616.786 273.125 631.717 265.259 642.306 252.804C658.096 234.232 661.851 207.017 654.306 183.836C646.762 160.655 628.933 141.596 607.595 129.808C601.728 126.567 595.551 123.813 589.047 122.196C573.433 118.313 556.343 121.371 542.698 129.896C535.673 134.285 529.569 140.005 522.685 144.613C515.802 149.221 507.71 152.77 499.465 151.965C505.819 158.987 512.744 166.359 521.948 168.59ZM30.4965 232.081C20.9323 235.81 11.3624 240.758 5.30079 249.043C8.08976 247.506 11.5918 247.335 14.5169 248.594C12.3846 249.647 10.2523 250.701 8.11993 251.754C6.92539 252.345 5.69062 252.967 4.86098 254.009C4.03133 255.052 3.73132 256.643 4.53452 257.707C5.33772 258.77 7.36909 258.672 7.75764 257.398C9.18326 252.721 14.6884 249.732 19.3866 251.084C15.858 253.094 12.0049 255.516 11.0285 259.458C11.5561 261.233 14.1565 261.526 15.6849 260.478C17.2132 259.431 17.976 257.617 18.8549 255.986C19.7339 254.355 21.0104 252.685 22.8436 252.417C23.2305 252.36 23.6727 252.39 23.9413 252.674C24.4096 253.169 24.023 253.979 23.5824 254.499C22.5841 255.677 21.31 256.709 20.8192 258.173C20.3284 259.637 21.2055 261.684 22.7468 261.59C44.3894 260.268 65.9911 258.278 87.511 255.625C88.2887 253.941 85.926 252.573 84.0878 252.324C79.4217 251.691 74.6218 252.064 70.1098 253.411C70.9433 250.638 73.744 248.822 76.5926 248.302C79.4412 247.782 82.3646 248.317 85.2107 248.851C85.2329 246.852 84.8598 244.85 84.1192 242.993C79.5941 242.898 75.1087 241.387 71.4491 238.723C74.508 237.579 78.0616 237.84 80.9207 239.418C82.286 240.172 83.3034 237.966 83.3259 236.407C83.3991 231.339 83.4724 226.271 83.5456 221.203C65.4177 221.798 47.3954 225.493 30.4965 232.081ZM528.372 185.474C533.868 186.265 538.175 190.439 542.071 194.396C547.06 199.465 552.05 204.534 557.04 209.603C558.535 211.122 561.019 209.48 562.451 207.9C565.668 204.35 568.946 200.708 570.804 196.292C572.661 191.875 572.862 186.459 570.093 182.549C568.448 180.225 565.942 178.658 563.373 177.43C559.133 175.403 554.534 174.132 549.855 173.693C545.293 173.266 540.698 173.625 536.115 173.591C531.009 173.554 525.906 173.026 520.9 172.017C522.399 175.792 523.898 179.568 525.396 183.343C525.617 183.898 525.855 184.478 526.319 184.854C526.883 185.309 527.655 185.37 528.372 185.474Z" fill="#00160A"/>
</svg>
